G04*
G04 #@! TF.GenerationSoftware,Altium Limited,Altium Designer,21.4.1 (30)*
G04*
G04 Layer_Physical_Order=1*
G04 Layer_Color=255*
%FSLAX25Y25*%
%MOIN*%
G70*
G04*
G04 #@! TF.SameCoordinates,3188A3CB-C3BA-4C27-A4B5-D095F5D5FE6E*
G04*
G04*
G04 #@! TF.FilePolarity,Positive*
G04*
G01*
G75*
%ADD10R,0.11024X0.04331*%
%ADD11R,0.01000X0.01000*%
%ADD16C,0.11811*%
%ADD17C,0.04331*%
%ADD18C,0.19685*%
%ADD19C,0.02756*%
%ADD20C,0.02795*%
G36*
X16909Y41339D02*
Y44685D01*
X27972D01*
Y38976D01*
X1201D01*
Y41339D01*
X16909D01*
D02*
G37*
G36*
Y57284D02*
Y53740D01*
X27972D01*
Y59449D01*
X1201D01*
Y57284D01*
X16909D01*
D02*
G37*
G36*
X35181Y50744D02*
X35940Y51538D01*
X37249Y53128D01*
X37800Y53924D01*
X38280Y54721D01*
X38691Y55518D01*
X39032Y56316D01*
X39304Y57115D01*
X39505Y57914D01*
X39638Y58714D01*
X46214Y52138D01*
X45414Y52005D01*
X44615Y51803D01*
X43816Y51532D01*
X43018Y51191D01*
X42221Y50780D01*
X41424Y50300D01*
X40628Y49749D01*
X39833Y49130D01*
X39038Y48440D01*
X38244Y47681D01*
X35181Y50744D01*
D02*
G37*
G36*
X147638Y66929D02*
X120079D01*
Y78740D01*
X147638D01*
Y66929D01*
D02*
G37*
G36*
X214567D02*
X187008D01*
Y78740D01*
X214567D01*
Y66929D01*
D02*
G37*
G36*
X294756Y47681D02*
X294165Y48237D01*
X293548Y48746D01*
X292905Y49209D01*
X292237Y49625D01*
X291544Y49995D01*
X290825Y50319D01*
X290080Y50596D01*
X289310Y50827D01*
X288514Y51012D01*
X287693Y51150D01*
X294350Y57807D01*
X294488Y56986D01*
X294673Y56190D01*
X294904Y55420D01*
X295181Y54675D01*
X295505Y53956D01*
X295875Y53263D01*
X296291Y52595D01*
X296754Y51952D01*
X297263Y51335D01*
X297818Y50744D01*
X294756Y47681D01*
D02*
G37*
G36*
X317736Y57087D02*
Y53740D01*
X306673D01*
Y59449D01*
X333445D01*
Y57087D01*
X317736D01*
D02*
G37*
G36*
Y41142D02*
Y44685D01*
X306673D01*
Y38976D01*
X333445D01*
Y41142D01*
X317736D01*
D02*
G37*
D10*
X22461Y56299D02*
D03*
Y42126D02*
D03*
Y49213D02*
D03*
X312185Y49213D02*
D03*
Y56299D02*
D03*
Y42126D02*
D03*
D11*
X14547Y38976D02*
D03*
X5492D02*
D03*
Y59449D02*
D03*
X14547D02*
D03*
X320098Y38976D02*
D03*
X329154D02*
D03*
Y59449D02*
D03*
X320098D02*
D03*
D16*
X272665Y72835D02*
X288500Y57000D01*
X214567Y72835D02*
X272665D01*
X60335Y72835D02*
X124016D01*
X45500Y58000D02*
X60335Y72835D01*
D17*
X296287Y49213D02*
X312185D01*
X288500Y57000D02*
X296287Y49213D01*
X309626Y42126D02*
X312185D01*
X309626Y41832D02*
Y42126D01*
X301909Y41832D02*
X309626D01*
X302380Y56299D02*
X312185D01*
X302368Y56288D02*
X302380Y56299D01*
X22461Y49213D02*
X36713D01*
X45500Y58000D01*
X22461Y56299D02*
X31799D01*
X25799Y42000D02*
X32000D01*
X25000Y41201D02*
X25799Y42000D01*
X324646Y34425D02*
Y38626D01*
Y59724D02*
Y64925D01*
X10000Y33500D02*
Y38701D01*
Y59799D02*
Y64000D01*
D18*
X19685Y78740D02*
D03*
X314961D02*
D03*
Y19685D02*
D03*
X216535D02*
D03*
X118110D02*
D03*
X19685D02*
D03*
D19*
X301909Y41832D02*
D03*
X302368Y56288D02*
D03*
X32000Y42000D02*
D03*
X324646Y34425D02*
D03*
Y64925D02*
D03*
X10000Y33500D02*
D03*
Y64000D02*
D03*
D20*
X31799Y56299D02*
D03*
M02*
