G04*
G04 #@! TF.GenerationSoftware,Altium Limited,Altium Designer,21.4.1 (30)*
G04*
G04 Layer_Color=8388736*
%FSLAX25Y25*%
%MOIN*%
G70*
G04*
G04 #@! TF.SameCoordinates,3188A3CB-C3BA-4C27-A4B5-D095F5D5FE6E*
G04*
G04*
G04 #@! TF.FilePolarity,Negative*
G04*
G01*
G75*
%ADD12R,0.11824X0.05131*%
%ADD13R,0.01800X0.01800*%
%ADD14C,0.12611*%
%ADD15C,0.20485*%
G36*
X214619Y79138D02*
X214671Y79127D01*
X214720Y79110D01*
X214767Y79087D01*
X214811Y79058D01*
X214850Y79024D01*
X214885Y78984D01*
X214914Y78941D01*
X214937Y78894D01*
X214954Y78844D01*
X214964Y78793D01*
X214968Y78740D01*
Y66929D01*
X214964Y66877D01*
X214954Y66825D01*
X214937Y66776D01*
X214914Y66729D01*
X214885Y66685D01*
X214850Y66646D01*
X214811Y66611D01*
X214767Y66582D01*
X214720Y66559D01*
X214671Y66542D01*
X214619Y66532D01*
X214567Y66528D01*
X202756D01*
X202704Y66532D01*
X202652Y66542D01*
X202603Y66559D01*
X202555Y66582D01*
X202512Y66611D01*
X202472Y66646D01*
X202438Y66685D01*
X202409Y66729D01*
X202386Y66776D01*
X202369Y66825D01*
X202359Y66877D01*
X202355Y66929D01*
Y78740D01*
X202359Y78793D01*
X202369Y78844D01*
X202386Y78894D01*
X202409Y78941D01*
X202438Y78984D01*
X202472Y79024D01*
X202512Y79058D01*
X202555Y79087D01*
X202603Y79110D01*
X202652Y79127D01*
X202704Y79138D01*
X202756Y79141D01*
X214567D01*
X214619Y79138D01*
D02*
G37*
G36*
X198871D02*
X198923Y79127D01*
X198972Y79110D01*
X199019Y79087D01*
X199063Y79058D01*
X199102Y79024D01*
X199137Y78984D01*
X199166Y78941D01*
X199189Y78894D01*
X199206Y78844D01*
X199216Y78793D01*
X199220Y78740D01*
Y66929D01*
X199216Y66877D01*
X199206Y66825D01*
X199189Y66776D01*
X199166Y66729D01*
X199137Y66685D01*
X199102Y66646D01*
X199063Y66611D01*
X199019Y66582D01*
X198972Y66559D01*
X198923Y66542D01*
X198871Y66532D01*
X198819Y66528D01*
X187008D01*
X186955Y66532D01*
X186904Y66542D01*
X186855Y66559D01*
X186807Y66582D01*
X186764Y66611D01*
X186724Y66646D01*
X186690Y66685D01*
X186661Y66729D01*
X186637Y66776D01*
X186621Y66825D01*
X186610Y66877D01*
X186607Y66929D01*
Y78740D01*
X186610Y78793D01*
X186621Y78844D01*
X186637Y78894D01*
X186661Y78941D01*
X186690Y78984D01*
X186724Y79024D01*
X186764Y79058D01*
X186807Y79087D01*
X186855Y79110D01*
X186904Y79127D01*
X186955Y79138D01*
X187008Y79141D01*
X198819D01*
X198871Y79138D01*
D02*
G37*
G36*
X147690D02*
X147742Y79127D01*
X147791Y79110D01*
X147838Y79087D01*
X147882Y79058D01*
X147921Y79024D01*
X147956Y78984D01*
X147985Y78941D01*
X148008Y78894D01*
X148025Y78844D01*
X148035Y78793D01*
X148039Y78740D01*
Y66929D01*
X148035Y66877D01*
X148025Y66825D01*
X148008Y66776D01*
X147985Y66729D01*
X147956Y66685D01*
X147921Y66646D01*
X147882Y66611D01*
X147838Y66582D01*
X147791Y66559D01*
X147742Y66542D01*
X147690Y66532D01*
X147638Y66528D01*
X135827D01*
X135775Y66532D01*
X135723Y66542D01*
X135673Y66559D01*
X135626Y66582D01*
X135583Y66611D01*
X135543Y66646D01*
X135509Y66685D01*
X135480Y66729D01*
X135456Y66776D01*
X135440Y66825D01*
X135429Y66877D01*
X135426Y66929D01*
Y78740D01*
X135429Y78793D01*
X135440Y78844D01*
X135456Y78894D01*
X135480Y78941D01*
X135509Y78984D01*
X135543Y79024D01*
X135583Y79058D01*
X135626Y79087D01*
X135673Y79110D01*
X135723Y79127D01*
X135775Y79138D01*
X135827Y79141D01*
X147638D01*
X147690Y79138D01*
D02*
G37*
G36*
X131942D02*
X131993Y79127D01*
X132043Y79110D01*
X132090Y79087D01*
X132134Y79058D01*
X132173Y79024D01*
X132208Y78984D01*
X132237Y78941D01*
X132260Y78894D01*
X132277Y78844D01*
X132287Y78793D01*
X132291Y78740D01*
Y66929D01*
X132287Y66877D01*
X132277Y66825D01*
X132260Y66776D01*
X132237Y66729D01*
X132208Y66685D01*
X132173Y66646D01*
X132134Y66611D01*
X132090Y66582D01*
X132043Y66559D01*
X131993Y66542D01*
X131942Y66532D01*
X131890Y66528D01*
X120079D01*
X120026Y66532D01*
X119975Y66542D01*
X119925Y66559D01*
X119878Y66582D01*
X119835Y66611D01*
X119795Y66646D01*
X119761Y66685D01*
X119732Y66729D01*
X119708Y66776D01*
X119692Y66825D01*
X119681Y66877D01*
X119678Y66929D01*
Y78740D01*
X119681Y78793D01*
X119692Y78844D01*
X119708Y78894D01*
X119732Y78941D01*
X119761Y78984D01*
X119795Y79024D01*
X119835Y79058D01*
X119878Y79087D01*
X119925Y79110D01*
X119975Y79127D01*
X120026Y79138D01*
X120079Y79141D01*
X131890D01*
X131942Y79138D01*
D02*
G37*
G36*
X333839Y56299D02*
X319665D01*
Y53347D01*
X306279D01*
Y59842D01*
X333839D01*
Y56299D01*
D02*
G37*
G36*
X28366Y53347D02*
X14980D01*
Y56299D01*
X807D01*
Y59842D01*
X28366D01*
Y53347D01*
D02*
G37*
G36*
X319665Y42126D02*
X333839D01*
Y38583D01*
X306279D01*
Y45079D01*
X319665D01*
Y42126D01*
D02*
G37*
G36*
X28366Y38583D02*
X807D01*
Y42126D01*
X14980D01*
Y45079D01*
X28366D01*
Y38583D01*
D02*
G37*
D12*
X22461Y49213D02*
D03*
X312185Y49213D02*
D03*
D13*
X14547Y38976D02*
D03*
X5492D02*
D03*
Y59449D02*
D03*
X14547D02*
D03*
X320098Y38976D02*
D03*
X329154D02*
D03*
Y59449D02*
D03*
X320098D02*
D03*
D14*
X272665Y72835D02*
X288500Y57000D01*
X214567Y72835D02*
X272665D01*
X60335Y72835D02*
X124016D01*
X45500Y58000D02*
X60335Y72835D01*
D15*
X19685Y78740D02*
D03*
X314961D02*
D03*
Y19685D02*
D03*
X216535D02*
D03*
X118110D02*
D03*
X19685D02*
D03*
M02*
