G04*
G04 #@! TF.GenerationSoftware,Altium Limited,Altium Designer,21.4.1 (30)*
G04*
G04 Layer_Physical_Order=1*
G04 Layer_Color=255*
%FSLAX25Y25*%
%MOIN*%
G70*
G04*
G04 #@! TF.SameCoordinates,DE3D3837-1171-46BA-834C-E1CE419D22AE*
G04*
G04*
G04 #@! TF.FilePolarity,Positive*
G04*
G01*
G75*
%ADD10R,0.11024X0.04331*%
%ADD11R,0.01000X0.01000*%
%ADD15C,0.11811*%
%ADD16C,0.04331*%
%ADD17C,0.19685*%
%ADD18C,0.02756*%
%ADD19C,0.02795*%
G36*
X16909Y41339D02*
Y44685D01*
X27972D01*
Y38976D01*
X1201D01*
Y41339D01*
X16909D01*
D02*
G37*
G36*
Y57284D02*
Y53740D01*
X27972D01*
Y59449D01*
X1201D01*
Y57284D01*
X16909D01*
D02*
G37*
G36*
X98425Y66929D02*
X70866D01*
Y78740D01*
X98425D01*
Y66929D01*
D02*
G37*
G36*
X165354D02*
X137795D01*
Y78740D01*
X165354D01*
Y66929D01*
D02*
G37*
G36*
X219311Y41142D02*
Y44685D01*
X208248D01*
Y38976D01*
X235020D01*
Y41142D01*
X219311D01*
D02*
G37*
G36*
Y57087D02*
Y53740D01*
X208248D01*
Y59449D01*
X235020D01*
Y57087D01*
X219311D01*
D02*
G37*
D10*
X22461Y56299D02*
D03*
Y42126D02*
D03*
Y49213D02*
D03*
X213760Y49213D02*
D03*
Y56299D02*
D03*
Y42126D02*
D03*
D11*
X14547Y38976D02*
D03*
X5492D02*
D03*
Y59449D02*
D03*
X14547D02*
D03*
X221673Y38976D02*
D03*
X230728D02*
D03*
Y59449D02*
D03*
X221673D02*
D03*
D15*
X165354Y72835D02*
X174240D01*
X45500Y58000D02*
X60315Y72815D01*
X71822D01*
X174240Y72835D02*
X190075Y57000D01*
D16*
X197862Y49213D02*
X213760D01*
X190075Y57000D02*
X197862Y49213D01*
X211201Y42126D02*
X213760D01*
X211201Y41832D02*
Y42126D01*
X203484Y41832D02*
X211201D01*
X203955Y56299D02*
X213760D01*
X203943Y56288D02*
X203955Y56299D01*
X22461Y49213D02*
X36713D01*
X45500Y58000D01*
X22461Y56299D02*
X31799D01*
X25799Y42000D02*
X32000D01*
X25000Y41201D02*
X25799Y42000D01*
X226220Y34425D02*
Y38626D01*
Y59724D02*
Y64925D01*
X10000Y33500D02*
Y38701D01*
Y59799D02*
Y64000D01*
D17*
X19685Y78740D02*
D03*
X216535D02*
D03*
Y19685D02*
D03*
X118110D02*
D03*
X19685D02*
D03*
D18*
X203484Y41832D02*
D03*
X203943Y56288D02*
D03*
X32000Y42000D02*
D03*
X226220Y34425D02*
D03*
Y64925D02*
D03*
X10000Y33500D02*
D03*
Y64000D02*
D03*
D19*
X31799Y56299D02*
D03*
M02*
