G04*
G04 #@! TF.GenerationSoftware,Altium Limited,Altium Designer,21.4.1 (30)*
G04*
G04 Layer_Physical_Order=2*
G04 Layer_Color=16711680*
%FSLAX25Y25*%
%MOIN*%
G70*
G04*
G04 #@! TF.SameCoordinates,DE3D3837-1171-46BA-834C-E1CE419D22AE*
G04*
G04*
G04 #@! TF.FilePolarity,Positive*
G04*
G01*
G75*
%ADD17C,0.19685*%
%ADD18C,0.02756*%
%ADD19C,0.02795*%
G36*
X218975Y97267D02*
X221372Y96790D01*
X223687Y96005D01*
X225879Y94924D01*
X227911Y93565D01*
X229749Y91954D01*
X231361Y90116D01*
X232719Y88084D01*
X233800Y85891D01*
X234586Y83577D01*
X235062Y81179D01*
X235190Y79231D01*
X235213Y78740D01*
X235217Y78720D01*
X235217Y78240D01*
X235236Y57420D01*
X234882Y57067D01*
X220847D01*
X220462Y56990D01*
X220137Y56773D01*
X219919Y56447D01*
X219843Y56063D01*
Y42362D01*
X219919Y41978D01*
X220137Y41653D01*
X220462Y41435D01*
X220847Y41359D01*
X235213D01*
Y19685D01*
X235220Y19650D01*
X235062Y17246D01*
X234586Y14849D01*
X233800Y12534D01*
X232719Y10342D01*
X231361Y8309D01*
X229749Y6471D01*
X227911Y4860D01*
X225879Y3502D01*
X223687Y2421D01*
X221372Y1635D01*
X218975Y1158D01*
X217026Y1030D01*
X216535Y1008D01*
X216535Y1008D01*
X216035Y1008D01*
X20184Y1008D01*
X19685Y1008D01*
X19195Y1030D01*
X17246Y1158D01*
X14849Y1635D01*
X12534Y2421D01*
X10342Y3502D01*
X8309Y4860D01*
X6471Y6471D01*
X4860Y8309D01*
X3502Y10342D01*
X2421Y12534D01*
X1635Y14849D01*
X1158Y17246D01*
X1030Y19195D01*
X1008Y19685D01*
X1003Y19705D01*
X1003Y20185D01*
X985Y41005D01*
X1338Y41359D01*
X15374D01*
X15758Y41435D01*
X16084Y41653D01*
X16301Y41978D01*
X16377Y42362D01*
Y56063D01*
X16301Y56447D01*
X16084Y56773D01*
X15758Y56990D01*
X15374Y57067D01*
X1008D01*
Y78740D01*
X1001Y78776D01*
X1158Y81179D01*
X1635Y83577D01*
X2421Y85891D01*
X3502Y88084D01*
X4860Y90116D01*
X6471Y91954D01*
X8309Y93565D01*
X10342Y94924D01*
X12534Y96005D01*
X14849Y96790D01*
X17246Y97267D01*
X19649Y97425D01*
X19685Y97418D01*
X216535D01*
X216571Y97425D01*
X218975Y97267D01*
D02*
G37*
%LPC*%
G36*
X219035Y89322D02*
Y81240D01*
X227117D01*
X227111Y81279D01*
X226584Y82902D01*
X225809Y84423D01*
X224806Y85804D01*
X223599Y87010D01*
X222218Y88013D01*
X220697Y88788D01*
X219074Y89316D01*
X219035Y89322D01*
D02*
G37*
G36*
X214035D02*
X213997Y89316D01*
X212373Y88788D01*
X210853Y88013D01*
X209472Y87010D01*
X208265Y85804D01*
X207262Y84423D01*
X206487Y82902D01*
X205960Y81279D01*
X205954Y81240D01*
X214035D01*
Y89322D01*
D02*
G37*
G36*
X22185D02*
Y81240D01*
X30267D01*
X30261Y81279D01*
X29733Y82902D01*
X28958Y84423D01*
X27955Y85804D01*
X26748Y87010D01*
X25368Y88013D01*
X23847Y88788D01*
X22224Y89316D01*
X22185Y89322D01*
D02*
G37*
G36*
X17185D02*
X17146Y89316D01*
X15523Y88788D01*
X14002Y88013D01*
X12622Y87010D01*
X11415Y85804D01*
X10412Y84423D01*
X9637Y82902D01*
X9110Y81279D01*
X9103Y81240D01*
X17185D01*
Y89322D01*
D02*
G37*
G36*
X227117Y76240D02*
X219035D01*
Y68159D01*
X219074Y68165D01*
X220697Y68692D01*
X222218Y69467D01*
X223599Y70470D01*
X224806Y71677D01*
X225809Y73057D01*
X226584Y74578D01*
X227111Y76201D01*
X227117Y76240D01*
D02*
G37*
G36*
X214035D02*
X205954D01*
X205960Y76201D01*
X206487Y74578D01*
X207262Y73057D01*
X208265Y71677D01*
X209472Y70470D01*
X210853Y69467D01*
X212373Y68692D01*
X213997Y68165D01*
X214035Y68159D01*
Y76240D01*
D02*
G37*
G36*
X30267D02*
X22185D01*
Y68159D01*
X22224Y68165D01*
X23847Y68692D01*
X25368Y69467D01*
X26748Y70470D01*
X27955Y71677D01*
X28958Y73057D01*
X29733Y74578D01*
X30261Y76201D01*
X30267Y76240D01*
D02*
G37*
G36*
X17185D02*
X9103D01*
X9110Y76201D01*
X9637Y74578D01*
X10412Y73057D01*
X11415Y71677D01*
X12622Y70470D01*
X14002Y69467D01*
X15523Y68692D01*
X17146Y68165D01*
X17185Y68159D01*
Y76240D01*
D02*
G37*
G36*
X226720Y67292D02*
Y65425D01*
X228587D01*
X228236Y66272D01*
X227568Y66941D01*
X226720Y67292D01*
D02*
G37*
G36*
X225721D02*
X224873Y66941D01*
X224204Y66272D01*
X223854Y65425D01*
X225721D01*
Y67292D01*
D02*
G37*
G36*
X10500Y66367D02*
Y64500D01*
X12367D01*
X12016Y65347D01*
X11347Y66016D01*
X10500Y66367D01*
D02*
G37*
G36*
X9500D02*
X8653Y66016D01*
X7984Y65347D01*
X7633Y64500D01*
X9500D01*
Y66367D01*
D02*
G37*
G36*
X228587Y64425D02*
X226720D01*
Y62558D01*
X227568Y62909D01*
X228236Y63578D01*
X228587Y64425D01*
D02*
G37*
G36*
X225721D02*
X223854D01*
X224204Y63578D01*
X224873Y62909D01*
X225721Y62558D01*
Y64425D01*
D02*
G37*
G36*
X12367Y63500D02*
X10500D01*
Y61633D01*
X11347Y61984D01*
X12016Y62653D01*
X12367Y63500D01*
D02*
G37*
G36*
X9500D02*
X7633D01*
X7984Y62653D01*
X8653Y61984D01*
X9500Y61633D01*
Y63500D01*
D02*
G37*
G36*
X32299Y58687D02*
Y56799D01*
X34187D01*
X33832Y57657D01*
X33157Y58332D01*
X32299Y58687D01*
D02*
G37*
G36*
X31299D02*
X30441Y58332D01*
X29767Y57657D01*
X29411Y56799D01*
X31299D01*
Y58687D01*
D02*
G37*
G36*
X204443Y58654D02*
Y56788D01*
X206310D01*
X205959Y57635D01*
X205290Y58303D01*
X204443Y58654D01*
D02*
G37*
G36*
X203443D02*
X202596Y58303D01*
X201927Y57635D01*
X201576Y56788D01*
X203443D01*
Y58654D01*
D02*
G37*
G36*
X206310Y55788D02*
X204443D01*
Y53921D01*
X205290Y54272D01*
X205959Y54941D01*
X206310Y55788D01*
D02*
G37*
G36*
X203443D02*
X201576D01*
X201927Y54941D01*
X202596Y54272D01*
X203443Y53921D01*
Y55788D01*
D02*
G37*
G36*
X34187Y55799D02*
X32299D01*
Y53911D01*
X33157Y54267D01*
X33832Y54941D01*
X34187Y55799D01*
D02*
G37*
G36*
X31299D02*
X29411D01*
X29767Y54941D01*
X30441Y54267D01*
X31299Y53911D01*
Y55799D01*
D02*
G37*
G36*
X32500Y44367D02*
Y42500D01*
X34367D01*
X34016Y43347D01*
X33347Y44016D01*
X32500Y44367D01*
D02*
G37*
G36*
X31500D02*
X30653Y44016D01*
X29984Y43347D01*
X29633Y42500D01*
X31500D01*
Y44367D01*
D02*
G37*
G36*
X203984Y44199D02*
Y42332D01*
X205851D01*
X205500Y43179D01*
X204831Y43848D01*
X203984Y44199D01*
D02*
G37*
G36*
X202984D02*
X202137Y43848D01*
X201468Y43179D01*
X201118Y42332D01*
X202984D01*
Y44199D01*
D02*
G37*
G36*
X34367Y41500D02*
X32500D01*
Y39633D01*
X33347Y39984D01*
X34016Y40653D01*
X34367Y41500D01*
D02*
G37*
G36*
X31500D02*
X29633D01*
X29984Y40653D01*
X30653Y39984D01*
X31500Y39633D01*
Y41500D01*
D02*
G37*
G36*
X205851Y41332D02*
X203984D01*
Y39465D01*
X204831Y39816D01*
X205500Y40485D01*
X205851Y41332D01*
D02*
G37*
G36*
X202984D02*
X201118D01*
X201468Y40485D01*
X202137Y39816D01*
X202984Y39465D01*
Y41332D01*
D02*
G37*
G36*
X226720Y36792D02*
Y34925D01*
X228587D01*
X228236Y35772D01*
X227568Y36441D01*
X226720Y36792D01*
D02*
G37*
G36*
X225721D02*
X224873Y36441D01*
X224204Y35772D01*
X223854Y34925D01*
X225721D01*
Y36792D01*
D02*
G37*
G36*
X10500Y35867D02*
Y34000D01*
X12367D01*
X12016Y34847D01*
X11347Y35516D01*
X10500Y35867D01*
D02*
G37*
G36*
X9500D02*
X8653Y35516D01*
X7984Y34847D01*
X7633Y34000D01*
X9500D01*
Y35867D01*
D02*
G37*
G36*
X228587Y33925D02*
X226720D01*
Y32058D01*
X227568Y32409D01*
X228236Y33078D01*
X228587Y33925D01*
D02*
G37*
G36*
X225721D02*
X223854D01*
X224204Y33078D01*
X224873Y32409D01*
X225721Y32058D01*
Y33925D01*
D02*
G37*
G36*
X12367Y33000D02*
X10500D01*
Y31133D01*
X11347Y31484D01*
X12016Y32153D01*
X12367Y33000D01*
D02*
G37*
G36*
X9500D02*
X7633D01*
X7984Y32153D01*
X8653Y31484D01*
X9500Y31133D01*
Y33000D01*
D02*
G37*
G36*
X219035Y30267D02*
Y22185D01*
X227117D01*
X227111Y22224D01*
X226584Y23847D01*
X225809Y25368D01*
X224806Y26748D01*
X223599Y27955D01*
X222218Y28958D01*
X220697Y29733D01*
X219074Y30261D01*
X219035Y30267D01*
D02*
G37*
G36*
X214035D02*
X213997Y30261D01*
X212373Y29733D01*
X210853Y28958D01*
X209472Y27955D01*
X208265Y26748D01*
X207262Y25368D01*
X206487Y23847D01*
X205960Y22224D01*
X205954Y22185D01*
X214035D01*
Y30267D01*
D02*
G37*
G36*
X120610D02*
Y22185D01*
X128692D01*
X128686Y22224D01*
X128158Y23847D01*
X127384Y25368D01*
X126380Y26748D01*
X125174Y27955D01*
X123793Y28958D01*
X122272Y29733D01*
X120649Y30261D01*
X120610Y30267D01*
D02*
G37*
G36*
X115610D02*
X115571Y30261D01*
X113948Y29733D01*
X112427Y28958D01*
X111047Y27955D01*
X109840Y26748D01*
X108837Y25368D01*
X108062Y23847D01*
X107535Y22224D01*
X107528Y22185D01*
X115610D01*
Y30267D01*
D02*
G37*
G36*
X22185D02*
Y22185D01*
X30267D01*
X30261Y22224D01*
X29733Y23847D01*
X28958Y25368D01*
X27955Y26748D01*
X26748Y27955D01*
X25368Y28958D01*
X23847Y29733D01*
X22224Y30261D01*
X22185Y30267D01*
D02*
G37*
G36*
X17185D02*
X17146Y30261D01*
X15523Y29733D01*
X14002Y28958D01*
X12622Y27955D01*
X11415Y26748D01*
X10412Y25368D01*
X9637Y23847D01*
X9110Y22224D01*
X9103Y22185D01*
X17185D01*
Y30267D01*
D02*
G37*
G36*
X227117Y17185D02*
X219035D01*
Y9103D01*
X219074Y9110D01*
X220697Y9637D01*
X222218Y10412D01*
X223599Y11415D01*
X224806Y12622D01*
X225809Y14002D01*
X226584Y15523D01*
X227111Y17146D01*
X227117Y17185D01*
D02*
G37*
G36*
X214035D02*
X205954D01*
X205960Y17146D01*
X206487Y15523D01*
X207262Y14002D01*
X208265Y12622D01*
X209472Y11415D01*
X210853Y10412D01*
X212373Y9637D01*
X213997Y9110D01*
X214035Y9103D01*
Y17185D01*
D02*
G37*
G36*
X128692D02*
X120610D01*
Y9103D01*
X120649Y9110D01*
X122272Y9637D01*
X123793Y10412D01*
X125174Y11415D01*
X126380Y12622D01*
X127384Y14002D01*
X128158Y15523D01*
X128686Y17146D01*
X128692Y17185D01*
D02*
G37*
G36*
X115610D02*
X107528D01*
X107535Y17146D01*
X108062Y15523D01*
X108837Y14002D01*
X109840Y12622D01*
X111047Y11415D01*
X112427Y10412D01*
X113948Y9637D01*
X115571Y9110D01*
X115610Y9103D01*
Y17185D01*
D02*
G37*
G36*
X30267D02*
X22185D01*
Y9103D01*
X22224Y9110D01*
X23847Y9637D01*
X25368Y10412D01*
X26748Y11415D01*
X27955Y12622D01*
X28958Y14002D01*
X29733Y15523D01*
X30261Y17146D01*
X30267Y17185D01*
D02*
G37*
G36*
X17185D02*
X9103D01*
X9110Y17146D01*
X9637Y15523D01*
X10412Y14002D01*
X11415Y12622D01*
X12622Y11415D01*
X14002Y10412D01*
X15523Y9637D01*
X17146Y9110D01*
X17185Y9103D01*
Y17185D01*
D02*
G37*
%LPD*%
D17*
X19685Y78740D02*
D03*
X216535D02*
D03*
Y19685D02*
D03*
X118110D02*
D03*
X19685D02*
D03*
D18*
X203484Y41832D02*
D03*
X203943Y56288D02*
D03*
X32000Y42000D02*
D03*
X226220Y34425D02*
D03*
Y64925D02*
D03*
X10000Y33500D02*
D03*
Y64000D02*
D03*
D19*
X31799Y56299D02*
D03*
M02*
