M48
;Layer_Color=9474304
;FILE_FORMAT=2:5
INCH,LZ
;TYPE=PLATED
T1F00S00C0.01181
T2F00S00C0.09055
%
T01
X0012976Y0008961
X0028724
X0044472
X006022
X0075968
X0091716
X0107465
X009959Y0024709
X0083842
X0068094
X0052346
X0036598
X0033177Y0039738
X0044472Y0040457
X006022
X0075968
X0091716
X0107465
X0123213
X0131087Y0056205
X0115339
X009959
X0083842
X0068094
Y0087701
X0083842
X009959
X0115339
X0131087
Y0024709
X0033226Y0058736
X0044472Y0071953
X0052346Y0087701
X0036598
X0146835
X0162583
X0178331
X0194079
X0209827
X0225575
X0241323
X0257071
X0272819
X0288567
X0272819Y0056205
X0257071
X0241323
X0225575
X0209827
X0194079
X0178331
X0162583
X0146835
X0138961Y0040457
X0154709
X0170457
X0186205
X0201953
X0217701
X0233449
X0249197
X0264945
X0280693
X0288567Y0024709
X0272819
X0257071
X0241323
X0233449Y0008961
X0249197
X0264945
X0280693
X0201953
X0186205
X0170457
X0154709
X0138961
X0146835Y0024709
X0162583
X0178331
X0194079
X0170457Y0071953
X0154709
X0296441
X0301444Y0059212
X0301493Y0040213
X0296441Y0008961
X0304315Y0087701
T02
X0019685Y0019685
Y007874
X011811Y0019685
X0216535
X0314961
Y007874
M30
