G04*
G04 #@! TF.GenerationSoftware,Altium Limited,Altium Designer,21.4.1 (30)*
G04*
G04 Layer_Physical_Order=1*
G04 Layer_Color=255*
%FSLAX25Y25*%
%MOIN*%
G70*
G04*
G04 #@! TF.SameCoordinates,3DD515BA-ABF8-41DF-8C9C-53FC49308A7C*
G04*
G04*
G04 #@! TF.FilePolarity,Positive*
G04*
G01*
G75*
%ADD11R,0.11024X0.04331*%
%ADD12R,0.01000X0.01000*%
%ADD16R,0.05906X0.05906*%
%ADD17C,0.04331*%
%ADD18C,0.10630*%
%ADD19C,0.19685*%
%ADD20C,0.02795*%
G36*
X24648Y61958D02*
X24713Y61220D01*
X24821Y60568D01*
X24972Y60004D01*
X25167Y59526D01*
X25214Y59449D01*
X27972D01*
Y53740D01*
X16909D01*
Y57284D01*
X1201D01*
Y59449D01*
X19707D01*
X19754Y59526D01*
X19949Y60004D01*
X20100Y60568D01*
X20209Y61220D01*
X20274Y61958D01*
X20295Y62783D01*
X24626D01*
X24648Y61958D01*
D02*
G37*
G36*
X146435Y78148D02*
X149633Y77444D01*
X152726Y76367D01*
X155668Y74931D01*
X158421Y73156D01*
X160943Y71069D01*
X163201Y68697D01*
X165162Y66075D01*
X166799Y63239D01*
X168088Y60229D01*
X169012Y57087D01*
X169558Y53859D01*
X169717Y50588D01*
X169489Y47322D01*
X168875Y44105D01*
X167884Y40984D01*
X166531Y38002D01*
X164834Y35202D01*
X162818Y32622D01*
X160511Y30299D01*
X157944Y28265D01*
X155155Y26549D01*
X152182Y25176D01*
X149068Y24164D01*
X145856Y23529D01*
X142591Y23278D01*
X139320Y23415D01*
X136087Y23939D01*
X132940Y24841D01*
X129921Y26111D01*
X127074Y27728D01*
X124439Y29671D01*
X122052Y31913D01*
X119947Y34421D01*
X118154Y37161D01*
X116698Y40094D01*
X115600Y43179D01*
X114874Y46372D01*
X114703Y48000D01*
X70723Y44024D01*
X70349Y44356D01*
X70074Y54314D01*
X70439Y54657D01*
X114244Y50709D01*
X114553Y50681D01*
X115282Y50681D01*
X155507D01*
X155507Y50681D01*
X155526Y50589D01*
X155580Y50315D01*
X155925Y49656D01*
X156489Y49172D01*
X157193Y48932D01*
X157935Y48969D01*
X158611Y49280D01*
X159123Y49819D01*
X159399Y50509D01*
X159399Y51253D01*
X159123Y51943D01*
X158611Y52482D01*
X157935Y52793D01*
X157193Y52830D01*
X156489Y52590D01*
X155925Y52106D01*
X155580Y51447D01*
X155526Y51174D01*
X155507Y51081D01*
X115508Y51081D01*
X115053Y51081D01*
X114954Y51181D01*
X114954D01*
Y51181D01*
X114954D01*
X114557Y51581D01*
X114565Y52718D01*
X114976Y55967D01*
X115769Y59144D01*
X116933Y62204D01*
X118450Y65106D01*
X120301Y67807D01*
X122459Y70271D01*
X124893Y72461D01*
X127569Y74348D01*
X130449Y75905D01*
X133494Y77109D01*
X136660Y77945D01*
X139903Y78400D01*
X143177Y78468D01*
X146435Y78148D01*
D02*
G37*
G36*
X46628Y44002D02*
X32154Y47047D01*
Y51378D01*
X46628Y54407D01*
Y44002D01*
D02*
G37*
G36*
X27972Y38976D02*
X25214D01*
X25167Y38899D01*
X24972Y38421D01*
X24821Y37857D01*
X24713Y37205D01*
X24648Y36467D01*
X24626Y35642D01*
X20295D01*
X20274Y36467D01*
X20209Y37205D01*
X20100Y37857D01*
X19949Y38421D01*
X19754Y38899D01*
X19707Y38976D01*
X1201D01*
Y41339D01*
X16909D01*
Y44685D01*
X27972D01*
Y38976D01*
D02*
G37*
D11*
X22461Y56299D02*
D03*
Y42126D02*
D03*
Y49213D02*
D03*
D12*
X14547Y38976D02*
D03*
X5492D02*
D03*
Y59449D02*
D03*
X14547D02*
D03*
D16*
X87008Y49409D02*
D03*
D17*
X22461Y42126D02*
X31398D01*
X22461Y56299D02*
X31299D01*
X9449Y34646D02*
Y38681D01*
X22461Y34528D02*
Y42126D01*
X10236Y59744D02*
Y63779D01*
X22461Y56299D02*
Y63898D01*
Y49213D02*
X47638D01*
D18*
X70079Y49380D01*
D19*
X68898Y78740D02*
D03*
Y19685D02*
D03*
X19685D02*
D03*
X216535D02*
D03*
Y78740D02*
D03*
X19685D02*
D03*
D20*
X31398Y42126D02*
D03*
X31299Y56299D02*
D03*
X9449Y34646D02*
D03*
X22461Y34528D02*
D03*
X10236Y63779D02*
D03*
X22461Y63898D02*
D03*
M02*
