G04*
G04 #@! TF.GenerationSoftware,Altium Limited,Altium Designer,21.4.1 (30)*
G04*
G04 Layer_Color=65535*
%FSLAX25Y25*%
%MOIN*%
G70*
G04*
G04 #@! TF.SameCoordinates,3DD515BA-ABF8-41DF-8C9C-53FC49308A7C*
G04*
G04*
G04 #@! TF.FilePolarity,Positive*
G04*
G01*
G75*
%ADD10C,0.00394*%
G36*
X8051Y61488D02*
X7587D01*
Y64442D01*
X7581Y64437D01*
X7554Y64415D01*
X7521Y64382D01*
X7467Y64344D01*
X7406Y64295D01*
X7330Y64240D01*
X7243Y64180D01*
X7144Y64120D01*
X7139D01*
X7133Y64115D01*
X7101Y64093D01*
X7046Y64066D01*
X6981Y64033D01*
X6904Y63995D01*
X6822Y63956D01*
X6740Y63918D01*
X6658Y63885D01*
Y64333D01*
X6664D01*
X6675Y64344D01*
X6697Y64350D01*
X6724Y64366D01*
X6757Y64382D01*
X6795Y64404D01*
X6888Y64459D01*
X6997Y64519D01*
X7106Y64595D01*
X7221Y64683D01*
X7335Y64775D01*
X7341Y64781D01*
X7346Y64786D01*
X7363Y64803D01*
X7385Y64819D01*
X7434Y64874D01*
X7499Y64939D01*
X7565Y65016D01*
X7636Y65103D01*
X7696Y65190D01*
X7750Y65283D01*
X8051D01*
Y61488D01*
D02*
G37*
G36*
X4605Y65261D02*
X4698Y65256D01*
X4797Y65250D01*
X4889Y65240D01*
X4971Y65229D01*
X4982D01*
X5020Y65218D01*
X5070Y65207D01*
X5135Y65190D01*
X5206Y65163D01*
X5283Y65130D01*
X5364Y65092D01*
X5435Y65048D01*
X5446Y65043D01*
X5468Y65027D01*
X5501Y64994D01*
X5545Y64956D01*
X5594Y64906D01*
X5643Y64841D01*
X5697Y64770D01*
X5741Y64688D01*
X5747Y64677D01*
X5757Y64650D01*
X5779Y64601D01*
X5801Y64535D01*
X5818Y64459D01*
X5839Y64371D01*
X5850Y64273D01*
X5856Y64169D01*
Y64164D01*
Y64148D01*
Y64126D01*
X5850Y64087D01*
X5845Y64049D01*
X5839Y64000D01*
X5829Y63946D01*
X5818Y63885D01*
X5779Y63760D01*
X5757Y63694D01*
X5725Y63623D01*
X5686Y63552D01*
X5648Y63487D01*
X5599Y63421D01*
X5545Y63356D01*
X5539Y63350D01*
X5528Y63339D01*
X5512Y63323D01*
X5485Y63307D01*
X5452Y63279D01*
X5408Y63252D01*
X5353Y63219D01*
X5293Y63192D01*
X5222Y63159D01*
X5141Y63126D01*
X5053Y63099D01*
X4949Y63077D01*
X4840Y63055D01*
X4720Y63039D01*
X4584Y63028D01*
X4442Y63023D01*
X3475D01*
Y61488D01*
X2973D01*
Y65267D01*
X4524D01*
X4605Y65261D01*
D02*
G37*
G36*
X157625Y12012D02*
X156729D01*
Y12544D01*
X156722Y12530D01*
X156692Y12493D01*
X156641Y12435D01*
X156576Y12369D01*
X156503Y12297D01*
X156408Y12216D01*
X156306Y12143D01*
X156197Y12078D01*
X156182Y12071D01*
X156146Y12056D01*
X156080Y12034D01*
X156007Y12005D01*
X155912Y11976D01*
X155803Y11954D01*
X155694Y11939D01*
X155577Y11932D01*
X155519D01*
X155475Y11939D01*
X155417Y11947D01*
X155358Y11961D01*
X155285Y11976D01*
X155205Y11998D01*
X155125Y12020D01*
X155038Y12056D01*
X154950Y12092D01*
X154855Y12143D01*
X154768Y12202D01*
X154673Y12267D01*
X154586Y12348D01*
X154498Y12435D01*
X154491Y12442D01*
X154476Y12457D01*
X154454Y12486D01*
X154432Y12530D01*
X154396Y12581D01*
X154360Y12646D01*
X154316Y12719D01*
X154279Y12807D01*
X154236Y12902D01*
X154192Y13004D01*
X154156Y13120D01*
X154126Y13244D01*
X154097Y13383D01*
X154075Y13529D01*
X154061Y13682D01*
X154053Y13849D01*
Y13857D01*
Y13893D01*
Y13937D01*
X154061Y14002D01*
X154068Y14083D01*
X154075Y14170D01*
X154090Y14272D01*
X154104Y14374D01*
X154156Y14607D01*
X154192Y14724D01*
X154236Y14841D01*
X154287Y14957D01*
X154345Y15067D01*
X154411Y15169D01*
X154483Y15263D01*
X154491Y15271D01*
X154505Y15285D01*
X154527Y15307D01*
X154564Y15344D01*
X154607Y15380D01*
X154658Y15417D01*
X154717Y15460D01*
X154790Y15511D01*
X154863Y15555D01*
X154950Y15599D01*
X155132Y15679D01*
X155242Y15708D01*
X155351Y15730D01*
X155468Y15745D01*
X155592Y15752D01*
X155650D01*
X155694Y15745D01*
X155745Y15737D01*
X155810Y15723D01*
X155876Y15708D01*
X155956Y15686D01*
X156036Y15664D01*
X156124Y15628D01*
X156211Y15584D01*
X156299Y15541D01*
X156394Y15475D01*
X156481Y15409D01*
X156569Y15329D01*
X156656Y15242D01*
Y17057D01*
X157625D01*
Y12012D01*
D02*
G37*
G36*
X153332Y15745D02*
X153412Y15730D01*
X153514Y15708D01*
X153623Y15672D01*
X153733Y15628D01*
X153849Y15562D01*
X153543Y14724D01*
X153536Y14731D01*
X153499Y14746D01*
X153456Y14775D01*
X153397Y14804D01*
X153324Y14833D01*
X153252Y14863D01*
X153171Y14877D01*
X153091Y14885D01*
X153062D01*
X153018Y14877D01*
X152974Y14870D01*
X152924Y14855D01*
X152865Y14833D01*
X152807Y14804D01*
X152749Y14768D01*
X152741Y14761D01*
X152727Y14746D01*
X152698Y14717D01*
X152668Y14673D01*
X152632Y14622D01*
X152595Y14549D01*
X152559Y14462D01*
X152530Y14360D01*
Y14345D01*
X152523Y14323D01*
X152515Y14301D01*
Y14265D01*
X152508Y14221D01*
X152501Y14163D01*
X152493Y14097D01*
X152486Y14024D01*
X152479Y13929D01*
X152471Y13835D01*
Y13718D01*
X152464Y13594D01*
X152457Y13456D01*
Y13303D01*
Y13135D01*
Y12012D01*
X151487D01*
Y15672D01*
X152384D01*
Y15154D01*
X152391Y15161D01*
X152420Y15205D01*
X152464Y15271D01*
X152523Y15351D01*
X152581Y15431D01*
X152654Y15511D01*
X152719Y15584D01*
X152792Y15635D01*
X152800Y15643D01*
X152821Y15657D01*
X152865Y15672D01*
X152916Y15694D01*
X152974Y15716D01*
X153047Y15737D01*
X153120Y15745D01*
X153208Y15752D01*
X153266D01*
X153332Y15745D01*
D02*
G37*
G36*
X130222D02*
X130303Y15737D01*
X130390Y15723D01*
X130485Y15701D01*
X130587Y15672D01*
X130689Y15635D01*
X130704Y15628D01*
X130733Y15613D01*
X130784Y15592D01*
X130842Y15555D01*
X130908Y15511D01*
X130973Y15460D01*
X131039Y15402D01*
X131097Y15336D01*
X131105Y15329D01*
X131119Y15307D01*
X131141Y15271D01*
X131170Y15220D01*
X131207Y15161D01*
X131236Y15089D01*
X131265Y15016D01*
X131287Y14928D01*
Y14921D01*
X131294Y14885D01*
X131309Y14833D01*
X131316Y14761D01*
X131331Y14673D01*
X131338Y14556D01*
X131345Y14433D01*
Y14279D01*
Y12012D01*
X130376D01*
Y13871D01*
Y13878D01*
Y13900D01*
Y13929D01*
Y13966D01*
Y14017D01*
Y14068D01*
X130368Y14192D01*
X130361Y14316D01*
X130346Y14447D01*
X130332Y14556D01*
X130324Y14600D01*
X130310Y14637D01*
Y14644D01*
X130295Y14666D01*
X130281Y14695D01*
X130259Y14739D01*
X130193Y14826D01*
X130157Y14870D01*
X130106Y14906D01*
X130098Y14914D01*
X130084Y14921D01*
X130055Y14935D01*
X130011Y14957D01*
X129960Y14979D01*
X129909Y14994D01*
X129843Y15001D01*
X129771Y15008D01*
X129727D01*
X129683Y15001D01*
X129625Y14994D01*
X129552Y14972D01*
X129479Y14950D01*
X129399Y14914D01*
X129318Y14870D01*
X129311Y14863D01*
X129289Y14848D01*
X129253Y14812D01*
X129209Y14775D01*
X129165Y14717D01*
X129122Y14659D01*
X129078Y14578D01*
X129049Y14498D01*
Y14491D01*
X129034Y14454D01*
X129027Y14396D01*
X129012Y14309D01*
X129005Y14257D01*
X128998Y14192D01*
X128990Y14126D01*
Y14046D01*
X128983Y13966D01*
X128976Y13871D01*
Y13769D01*
Y13660D01*
Y12012D01*
X128006D01*
Y15672D01*
X128903D01*
Y15132D01*
X128910Y15140D01*
X128925Y15161D01*
X128954Y15191D01*
X128990Y15227D01*
X129034Y15278D01*
X129093Y15329D01*
X129158Y15387D01*
X129231Y15446D01*
X129311Y15497D01*
X129406Y15555D01*
X129501Y15606D01*
X129610Y15657D01*
X129727Y15694D01*
X129843Y15723D01*
X129975Y15745D01*
X130106Y15752D01*
X130157D01*
X130222Y15745D01*
D02*
G37*
G36*
X125914D02*
X125994Y15737D01*
X126082Y15723D01*
X126177Y15701D01*
X126278Y15672D01*
X126381Y15635D01*
X126395Y15628D01*
X126424Y15613D01*
X126475Y15592D01*
X126534Y15555D01*
X126599Y15511D01*
X126665Y15460D01*
X126731Y15402D01*
X126789Y15336D01*
X126796Y15329D01*
X126811Y15307D01*
X126833Y15271D01*
X126862Y15220D01*
X126898Y15161D01*
X126927Y15089D01*
X126956Y15016D01*
X126978Y14928D01*
Y14921D01*
X126986Y14885D01*
X127000Y14833D01*
X127007Y14761D01*
X127022Y14673D01*
X127029Y14556D01*
X127037Y14433D01*
Y14279D01*
Y12012D01*
X126067D01*
Y13871D01*
Y13878D01*
Y13900D01*
Y13929D01*
Y13966D01*
Y14017D01*
Y14068D01*
X126060Y14192D01*
X126052Y14316D01*
X126038Y14447D01*
X126023Y14556D01*
X126016Y14600D01*
X126002Y14637D01*
Y14644D01*
X125987Y14666D01*
X125972Y14695D01*
X125951Y14739D01*
X125885Y14826D01*
X125848Y14870D01*
X125797Y14906D01*
X125790Y14914D01*
X125776Y14921D01*
X125746Y14935D01*
X125703Y14957D01*
X125652Y14979D01*
X125601Y14994D01*
X125535Y15001D01*
X125462Y15008D01*
X125418D01*
X125375Y15001D01*
X125316Y14994D01*
X125243Y14972D01*
X125171Y14950D01*
X125090Y14914D01*
X125010Y14870D01*
X125003Y14863D01*
X124981Y14848D01*
X124944Y14812D01*
X124901Y14775D01*
X124857Y14717D01*
X124813Y14659D01*
X124769Y14578D01*
X124740Y14498D01*
Y14491D01*
X124726Y14454D01*
X124718Y14396D01*
X124704Y14309D01*
X124697Y14257D01*
X124689Y14192D01*
X124682Y14126D01*
Y14046D01*
X124675Y13966D01*
X124668Y13871D01*
Y13769D01*
Y13660D01*
Y12012D01*
X123698D01*
Y15672D01*
X124595D01*
Y15132D01*
X124602Y15140D01*
X124616Y15161D01*
X124646Y15191D01*
X124682Y15227D01*
X124726Y15278D01*
X124784Y15329D01*
X124850Y15387D01*
X124923Y15446D01*
X125003Y15497D01*
X125098Y15555D01*
X125192Y15606D01*
X125302Y15657D01*
X125418Y15694D01*
X125535Y15723D01*
X125666Y15745D01*
X125797Y15752D01*
X125848D01*
X125914Y15745D01*
D02*
G37*
G36*
X115336D02*
X115416Y15737D01*
X115504Y15723D01*
X115599Y15701D01*
X115701Y15672D01*
X115803Y15635D01*
X115817Y15628D01*
X115847Y15613D01*
X115898Y15592D01*
X115956Y15555D01*
X116022Y15511D01*
X116087Y15460D01*
X116153Y15402D01*
X116211Y15336D01*
X116218Y15329D01*
X116233Y15307D01*
X116255Y15271D01*
X116284Y15220D01*
X116320Y15161D01*
X116350Y15089D01*
X116379Y15016D01*
X116401Y14928D01*
Y14921D01*
X116408Y14885D01*
X116422Y14833D01*
X116430Y14761D01*
X116444Y14673D01*
X116452Y14556D01*
X116459Y14433D01*
Y14279D01*
Y12012D01*
X115489D01*
Y13871D01*
Y13878D01*
Y13900D01*
Y13929D01*
Y13966D01*
Y14017D01*
Y14068D01*
X115482Y14192D01*
X115475Y14316D01*
X115460Y14447D01*
X115446Y14556D01*
X115438Y14600D01*
X115424Y14637D01*
Y14644D01*
X115409Y14666D01*
X115395Y14695D01*
X115373Y14739D01*
X115307Y14826D01*
X115271Y14870D01*
X115220Y14906D01*
X115212Y14914D01*
X115198Y14921D01*
X115169Y14935D01*
X115125Y14957D01*
X115074Y14979D01*
X115023Y14994D01*
X114957Y15001D01*
X114884Y15008D01*
X114840D01*
X114797Y15001D01*
X114739Y14994D01*
X114666Y14972D01*
X114593Y14950D01*
X114513Y14914D01*
X114432Y14870D01*
X114425Y14863D01*
X114403Y14848D01*
X114367Y14812D01*
X114323Y14775D01*
X114279Y14717D01*
X114235Y14659D01*
X114192Y14578D01*
X114163Y14498D01*
Y14491D01*
X114148Y14454D01*
X114141Y14396D01*
X114126Y14309D01*
X114119Y14257D01*
X114111Y14192D01*
X114104Y14126D01*
Y14046D01*
X114097Y13966D01*
X114090Y13871D01*
Y13769D01*
Y13660D01*
Y12012D01*
X113120D01*
Y15672D01*
X114017D01*
Y15132D01*
X114024Y15140D01*
X114039Y15161D01*
X114068Y15191D01*
X114104Y15227D01*
X114148Y15278D01*
X114206Y15329D01*
X114272Y15387D01*
X114345Y15446D01*
X114425Y15497D01*
X114520Y15555D01*
X114614Y15606D01*
X114724Y15657D01*
X114840Y15694D01*
X114957Y15723D01*
X115088Y15745D01*
X115220Y15752D01*
X115271D01*
X115336Y15745D01*
D02*
G37*
G36*
X99969Y12012D02*
X99028D01*
X99021Y15978D01*
X98030Y12012D01*
X97046D01*
X96054Y15978D01*
Y12012D01*
X95114D01*
Y17057D01*
X96637D01*
X97541Y13609D01*
X98438Y17057D01*
X99969D01*
Y12012D01*
D02*
G37*
G36*
X149191Y15745D02*
X149249D01*
X149395Y15730D01*
X149548Y15716D01*
X149709Y15686D01*
X149862Y15643D01*
X149927Y15621D01*
X149993Y15592D01*
X150000D01*
X150007Y15584D01*
X150044Y15562D01*
X150102Y15533D01*
X150168Y15489D01*
X150248Y15431D01*
X150321Y15366D01*
X150387Y15285D01*
X150445Y15205D01*
X150452Y15191D01*
X150467Y15161D01*
X150489Y15096D01*
X150496Y15059D01*
X150511Y15008D01*
X150525Y14957D01*
X150532Y14892D01*
X150547Y14819D01*
X150554Y14739D01*
X150561Y14651D01*
X150569Y14556D01*
X150576Y14454D01*
Y14338D01*
X150561Y13208D01*
Y13201D01*
Y13186D01*
Y13164D01*
Y13128D01*
Y13040D01*
X150569Y12938D01*
Y12821D01*
X150583Y12705D01*
X150591Y12588D01*
X150605Y12493D01*
Y12486D01*
X150613Y12457D01*
X150627Y12406D01*
X150642Y12348D01*
X150671Y12275D01*
X150700Y12195D01*
X150736Y12107D01*
X150780Y12012D01*
X149825D01*
Y12020D01*
X149818Y12027D01*
X149811Y12056D01*
X149796Y12085D01*
X149782Y12122D01*
X149767Y12173D01*
X149752Y12231D01*
X149731Y12297D01*
Y12304D01*
X149723Y12311D01*
X149716Y12340D01*
X149701Y12377D01*
X149694Y12406D01*
X149679Y12399D01*
X149650Y12369D01*
X149599Y12326D01*
X149534Y12275D01*
X149453Y12216D01*
X149366Y12151D01*
X149264Y12100D01*
X149162Y12049D01*
X149147Y12041D01*
X149111Y12034D01*
X149053Y12012D01*
X148980Y11990D01*
X148892Y11969D01*
X148790Y11954D01*
X148673Y11939D01*
X148557Y11932D01*
X148506D01*
X148462Y11939D01*
X148418D01*
X148360Y11947D01*
X148236Y11969D01*
X148090Y12005D01*
X147944Y12056D01*
X147799Y12129D01*
X147667Y12231D01*
Y12238D01*
X147653Y12246D01*
X147616Y12289D01*
X147565Y12355D01*
X147507Y12442D01*
X147449Y12552D01*
X147398Y12683D01*
X147361Y12836D01*
X147354Y12916D01*
X147347Y13004D01*
Y13018D01*
Y13055D01*
X147354Y13113D01*
X147369Y13186D01*
X147383Y13273D01*
X147405Y13361D01*
X147441Y13456D01*
X147492Y13550D01*
X147500Y13565D01*
X147522Y13594D01*
X147551Y13638D01*
X147602Y13689D01*
X147653Y13747D01*
X147726Y13813D01*
X147806Y13871D01*
X147901Y13922D01*
X147915Y13929D01*
X147952Y13944D01*
X148010Y13966D01*
X148098Y14002D01*
X148207Y14039D01*
X148338Y14075D01*
X148498Y14112D01*
X148673Y14148D01*
X148681D01*
X148703Y14155D01*
X148739Y14163D01*
X148783Y14170D01*
X148841Y14177D01*
X148907Y14192D01*
X149053Y14228D01*
X149206Y14265D01*
X149366Y14301D01*
X149504Y14345D01*
X149570Y14367D01*
X149621Y14389D01*
Y14483D01*
Y14498D01*
Y14527D01*
X149614Y14578D01*
X149607Y14644D01*
X149585Y14709D01*
X149563Y14775D01*
X149526Y14833D01*
X149475Y14885D01*
X149468Y14892D01*
X149446Y14906D01*
X149410Y14921D01*
X149359Y14950D01*
X149286Y14972D01*
X149198Y14987D01*
X149089Y15001D01*
X148958Y15008D01*
X148914D01*
X148870Y15001D01*
X148812Y14994D01*
X148746Y14979D01*
X148673Y14965D01*
X148608Y14935D01*
X148549Y14899D01*
X148542Y14892D01*
X148528Y14877D01*
X148498Y14855D01*
X148469Y14819D01*
X148426Y14768D01*
X148389Y14702D01*
X148353Y14629D01*
X148316Y14542D01*
X147449Y14702D01*
Y14709D01*
X147456Y14724D01*
X147463Y14753D01*
X147478Y14790D01*
X147492Y14833D01*
X147514Y14885D01*
X147565Y15001D01*
X147638Y15125D01*
X147726Y15256D01*
X147828Y15380D01*
X147952Y15489D01*
X147959D01*
X147966Y15504D01*
X147988Y15511D01*
X148017Y15533D01*
X148061Y15548D01*
X148105Y15570D01*
X148163Y15599D01*
X148221Y15621D01*
X148294Y15643D01*
X148374Y15672D01*
X148462Y15694D01*
X148564Y15708D01*
X148666Y15730D01*
X148783Y15737D01*
X148899Y15752D01*
X149140D01*
X149191Y15745D01*
D02*
G37*
G36*
X140567Y17050D02*
X140713Y17042D01*
X140858Y17035D01*
X140997Y17020D01*
X141121Y17006D01*
X141136D01*
X141172Y16999D01*
X141223Y16984D01*
X141296Y16962D01*
X141376Y16933D01*
X141464Y16896D01*
X141558Y16853D01*
X141646Y16794D01*
X141653Y16787D01*
X141682Y16765D01*
X141726Y16729D01*
X141784Y16685D01*
X141843Y16620D01*
X141908Y16547D01*
X141974Y16466D01*
X142032Y16372D01*
X142040Y16357D01*
X142054Y16328D01*
X142083Y16270D01*
X142112Y16197D01*
X142142Y16109D01*
X142171Y16014D01*
X142185Y15898D01*
X142193Y15781D01*
Y15774D01*
Y15767D01*
Y15723D01*
X142185Y15657D01*
X142171Y15570D01*
X142142Y15468D01*
X142112Y15358D01*
X142061Y15249D01*
X141996Y15132D01*
X141989Y15118D01*
X141959Y15081D01*
X141916Y15030D01*
X141865Y14965D01*
X141792Y14899D01*
X141704Y14819D01*
X141602Y14753D01*
X141486Y14688D01*
X141493D01*
X141507Y14680D01*
X141529Y14673D01*
X141558Y14666D01*
X141646Y14629D01*
X141748Y14578D01*
X141857Y14520D01*
X141981Y14440D01*
X142091Y14345D01*
X142193Y14228D01*
X142200Y14214D01*
X142229Y14170D01*
X142273Y14104D01*
X142316Y14017D01*
X142360Y13900D01*
X142404Y13776D01*
X142433Y13631D01*
X142440Y13470D01*
Y13463D01*
Y13456D01*
Y13412D01*
X142433Y13346D01*
X142419Y13259D01*
X142404Y13157D01*
X142375Y13040D01*
X142331Y12923D01*
X142280Y12799D01*
X142273Y12785D01*
X142251Y12749D01*
X142215Y12690D01*
X142163Y12617D01*
X142105Y12530D01*
X142025Y12450D01*
X141945Y12362D01*
X141843Y12282D01*
X141828Y12275D01*
X141792Y12253D01*
X141733Y12216D01*
X141653Y12180D01*
X141551Y12136D01*
X141434Y12100D01*
X141303Y12063D01*
X141157Y12041D01*
X141128D01*
X141099Y12034D01*
X141026D01*
X140975Y12027D01*
X140837D01*
X140749Y12020D01*
X140531D01*
X140407Y12012D01*
X138220D01*
Y17057D01*
X140436D01*
X140567Y17050D01*
D02*
G37*
G36*
X133911Y15745D02*
X133969D01*
X134115Y15730D01*
X134268Y15716D01*
X134429Y15686D01*
X134582Y15643D01*
X134648Y15621D01*
X134713Y15592D01*
X134720D01*
X134728Y15584D01*
X134764Y15562D01*
X134822Y15533D01*
X134888Y15489D01*
X134968Y15431D01*
X135041Y15366D01*
X135107Y15285D01*
X135165Y15205D01*
X135172Y15191D01*
X135187Y15161D01*
X135209Y15096D01*
X135216Y15059D01*
X135231Y15008D01*
X135245Y14957D01*
X135252Y14892D01*
X135267Y14819D01*
X135274Y14739D01*
X135282Y14651D01*
X135289Y14556D01*
X135296Y14454D01*
Y14338D01*
X135282Y13208D01*
Y13201D01*
Y13186D01*
Y13164D01*
Y13128D01*
Y13040D01*
X135289Y12938D01*
Y12821D01*
X135304Y12705D01*
X135311Y12588D01*
X135325Y12493D01*
Y12486D01*
X135333Y12457D01*
X135347Y12406D01*
X135362Y12348D01*
X135391Y12275D01*
X135420Y12195D01*
X135457Y12107D01*
X135500Y12012D01*
X134545D01*
Y12020D01*
X134538Y12027D01*
X134531Y12056D01*
X134516Y12085D01*
X134502Y12122D01*
X134487Y12173D01*
X134473Y12231D01*
X134451Y12297D01*
Y12304D01*
X134443Y12311D01*
X134436Y12340D01*
X134422Y12377D01*
X134414Y12406D01*
X134400Y12399D01*
X134370Y12369D01*
X134319Y12326D01*
X134254Y12275D01*
X134174Y12216D01*
X134086Y12151D01*
X133984Y12100D01*
X133882Y12049D01*
X133867Y12041D01*
X133831Y12034D01*
X133773Y12012D01*
X133700Y11990D01*
X133612Y11969D01*
X133510Y11954D01*
X133394Y11939D01*
X133277Y11932D01*
X133226D01*
X133182Y11939D01*
X133138D01*
X133080Y11947D01*
X132956Y11969D01*
X132810Y12005D01*
X132665Y12056D01*
X132519Y12129D01*
X132388Y12231D01*
Y12238D01*
X132373Y12246D01*
X132336Y12289D01*
X132285Y12355D01*
X132227Y12442D01*
X132169Y12552D01*
X132118Y12683D01*
X132081Y12836D01*
X132074Y12916D01*
X132067Y13004D01*
Y13018D01*
Y13055D01*
X132074Y13113D01*
X132089Y13186D01*
X132103Y13273D01*
X132125Y13361D01*
X132162Y13456D01*
X132213Y13550D01*
X132220Y13565D01*
X132242Y13594D01*
X132271Y13638D01*
X132322Y13689D01*
X132373Y13747D01*
X132446Y13813D01*
X132526Y13871D01*
X132621Y13922D01*
X132635Y13929D01*
X132672Y13944D01*
X132730Y13966D01*
X132818Y14002D01*
X132927Y14039D01*
X133058Y14075D01*
X133219Y14112D01*
X133394Y14148D01*
X133401D01*
X133423Y14155D01*
X133459Y14163D01*
X133503Y14170D01*
X133561Y14177D01*
X133627Y14192D01*
X133773Y14228D01*
X133926Y14265D01*
X134086Y14301D01*
X134225Y14345D01*
X134290Y14367D01*
X134341Y14389D01*
Y14483D01*
Y14498D01*
Y14527D01*
X134334Y14578D01*
X134327Y14644D01*
X134305Y14709D01*
X134283Y14775D01*
X134247Y14833D01*
X134195Y14885D01*
X134188Y14892D01*
X134166Y14906D01*
X134130Y14921D01*
X134079Y14950D01*
X134006Y14972D01*
X133918Y14987D01*
X133809Y15001D01*
X133678Y15008D01*
X133634D01*
X133590Y15001D01*
X133532Y14994D01*
X133466Y14979D01*
X133394Y14965D01*
X133328Y14935D01*
X133270Y14899D01*
X133262Y14892D01*
X133248Y14877D01*
X133219Y14855D01*
X133189Y14819D01*
X133146Y14768D01*
X133109Y14702D01*
X133073Y14629D01*
X133036Y14542D01*
X132169Y14702D01*
Y14709D01*
X132176Y14724D01*
X132183Y14753D01*
X132198Y14790D01*
X132213Y14833D01*
X132235Y14885D01*
X132285Y15001D01*
X132358Y15125D01*
X132446Y15256D01*
X132548Y15380D01*
X132672Y15489D01*
X132679D01*
X132686Y15504D01*
X132708Y15511D01*
X132738Y15533D01*
X132781Y15548D01*
X132825Y15570D01*
X132883Y15599D01*
X132942Y15621D01*
X133015Y15643D01*
X133095Y15672D01*
X133182Y15694D01*
X133284Y15708D01*
X133386Y15730D01*
X133503Y15737D01*
X133620Y15752D01*
X133860D01*
X133911Y15745D01*
D02*
G37*
G36*
X112595Y12012D02*
X111494D01*
X111057Y13157D01*
X109030D01*
X108615Y12012D01*
X107536D01*
X109490Y17057D01*
X110569D01*
X112595Y12012D01*
D02*
G37*
G36*
X103344Y17050D02*
X103424D01*
X103505Y17042D01*
X103599D01*
X103789Y17020D01*
X103986Y16999D01*
X104168Y16962D01*
X104248Y16940D01*
X104321Y16918D01*
X104328D01*
X104336Y16911D01*
X104379Y16889D01*
X104445Y16853D01*
X104533Y16809D01*
X104627Y16736D01*
X104722Y16656D01*
X104817Y16554D01*
X104904Y16430D01*
Y16423D01*
X104912Y16415D01*
X104926Y16394D01*
X104941Y16372D01*
X104977Y16299D01*
X105021Y16204D01*
X105057Y16087D01*
X105094Y15956D01*
X105123Y15803D01*
X105130Y15643D01*
Y15635D01*
Y15621D01*
Y15584D01*
X105123Y15548D01*
Y15497D01*
X105116Y15446D01*
X105087Y15315D01*
X105050Y15161D01*
X104992Y15008D01*
X104904Y14848D01*
X104853Y14775D01*
X104795Y14702D01*
X104788Y14695D01*
X104780Y14688D01*
X104759Y14666D01*
X104729Y14644D01*
X104700Y14615D01*
X104656Y14578D01*
X104605Y14542D01*
X104547Y14505D01*
X104481Y14462D01*
X104401Y14425D01*
X104321Y14389D01*
X104234Y14352D01*
X104131Y14316D01*
X104030Y14287D01*
X103920Y14257D01*
X103796Y14236D01*
X103804D01*
X103811Y14228D01*
X103855Y14199D01*
X103913Y14163D01*
X103986Y14112D01*
X104073Y14046D01*
X104161Y13981D01*
X104255Y13900D01*
X104336Y13813D01*
X104343Y13805D01*
X104379Y13769D01*
X104423Y13711D01*
X104489Y13623D01*
X104576Y13514D01*
X104620Y13441D01*
X104671Y13368D01*
X104729Y13288D01*
X104788Y13201D01*
X104853Y13098D01*
X104919Y12996D01*
X105538Y12012D01*
X104314D01*
X103585Y13106D01*
X103577Y13113D01*
X103570Y13135D01*
X103548Y13164D01*
X103519Y13201D01*
X103490Y13244D01*
X103454Y13303D01*
X103373Y13419D01*
X103279Y13550D01*
X103191Y13667D01*
X103111Y13776D01*
X103075Y13813D01*
X103045Y13849D01*
X103038Y13857D01*
X103023Y13871D01*
X102994Y13900D01*
X102958Y13937D01*
X102907Y13966D01*
X102856Y14002D01*
X102797Y14031D01*
X102739Y14061D01*
X102732D01*
X102710Y14068D01*
X102673Y14083D01*
X102615Y14090D01*
X102542Y14104D01*
X102455Y14112D01*
X102353Y14119D01*
X102025D01*
Y12012D01*
X101004D01*
Y17057D01*
X103279D01*
X103344Y17050D01*
D02*
G37*
G36*
X92110D02*
X92249Y17042D01*
X92402Y17035D01*
X92562Y17013D01*
X92715Y16991D01*
X92854Y16955D01*
X92861D01*
X92876Y16948D01*
X92898Y16940D01*
X92927Y16933D01*
X93014Y16896D01*
X93116Y16846D01*
X93233Y16780D01*
X93364Y16700D01*
X93488Y16605D01*
X93612Y16488D01*
X93619D01*
X93627Y16474D01*
X93663Y16430D01*
X93721Y16357D01*
X93787Y16262D01*
X93867Y16146D01*
X93947Y16007D01*
X94028Y15847D01*
X94093Y15672D01*
Y15664D01*
X94100Y15650D01*
X94108Y15621D01*
X94122Y15584D01*
X94130Y15541D01*
X94144Y15482D01*
X94159Y15417D01*
X94181Y15344D01*
X94195Y15263D01*
X94210Y15169D01*
X94224Y15074D01*
X94232Y14965D01*
X94254Y14739D01*
X94261Y14483D01*
Y14476D01*
Y14454D01*
Y14425D01*
Y14381D01*
X94254Y14323D01*
Y14265D01*
X94246Y14192D01*
X94239Y14112D01*
X94224Y13944D01*
X94195Y13769D01*
X94152Y13587D01*
X94100Y13412D01*
Y13405D01*
X94093Y13390D01*
X94079Y13361D01*
X94064Y13317D01*
X94050Y13273D01*
X94020Y13222D01*
X93962Y13091D01*
X93889Y12953D01*
X93794Y12799D01*
X93685Y12654D01*
X93561Y12515D01*
X93546Y12501D01*
X93510Y12472D01*
X93452Y12428D01*
X93371Y12369D01*
X93269Y12304D01*
X93153Y12238D01*
X93007Y12173D01*
X92847Y12114D01*
X92839D01*
X92832Y12107D01*
X92810D01*
X92788Y12100D01*
X92708Y12085D01*
X92606Y12063D01*
X92482Y12041D01*
X92329Y12027D01*
X92147Y12020D01*
X91950Y12012D01*
X90040D01*
Y17057D01*
X92052D01*
X92110Y17050D01*
D02*
G37*
G36*
X145094Y15745D02*
X145167Y15737D01*
X145247Y15723D01*
X145342Y15708D01*
X145437Y15686D01*
X145546Y15657D01*
X145655Y15621D01*
X145765Y15577D01*
X145881Y15526D01*
X145998Y15460D01*
X146107Y15387D01*
X146217Y15307D01*
X146319Y15213D01*
X146326Y15205D01*
X146341Y15191D01*
X146370Y15154D01*
X146399Y15118D01*
X146443Y15059D01*
X146486Y15001D01*
X146537Y14921D01*
X146589Y14841D01*
X146632Y14746D01*
X146683Y14644D01*
X146727Y14527D01*
X146771Y14411D01*
X146800Y14279D01*
X146829Y14148D01*
X146844Y14002D01*
X146851Y13849D01*
Y13842D01*
Y13813D01*
Y13769D01*
X146844Y13711D01*
X146836Y13638D01*
X146822Y13558D01*
X146807Y13463D01*
X146785Y13368D01*
X146756Y13259D01*
X146720Y13149D01*
X146676Y13033D01*
X146625Y12916D01*
X146559Y12799D01*
X146486Y12690D01*
X146406Y12581D01*
X146311Y12472D01*
X146304Y12464D01*
X146290Y12450D01*
X146260Y12420D01*
X146217Y12384D01*
X146166Y12348D01*
X146100Y12304D01*
X146027Y12253D01*
X145947Y12202D01*
X145852Y12151D01*
X145750Y12100D01*
X145641Y12056D01*
X145517Y12020D01*
X145393Y11983D01*
X145254Y11954D01*
X145116Y11939D01*
X144963Y11932D01*
X144912D01*
X144875Y11939D01*
X144832D01*
X144781Y11947D01*
X144657Y11961D01*
X144503Y11990D01*
X144343Y12027D01*
X144176Y12085D01*
X144000Y12158D01*
X143993D01*
X143979Y12165D01*
X143957Y12180D01*
X143928Y12202D01*
X143847Y12253D01*
X143745Y12326D01*
X143636Y12420D01*
X143519Y12537D01*
X143410Y12668D01*
X143308Y12821D01*
Y12829D01*
X143301Y12843D01*
X143286Y12865D01*
X143272Y12902D01*
X143257Y12945D01*
X143235Y12996D01*
X143213Y13055D01*
X143191Y13120D01*
X143169Y13193D01*
X143148Y13273D01*
X143111Y13456D01*
X143082Y13667D01*
X143075Y13893D01*
Y13900D01*
Y13915D01*
Y13944D01*
X143082Y13973D01*
Y14017D01*
X143089Y14068D01*
X143104Y14192D01*
X143133Y14330D01*
X143177Y14483D01*
X143228Y14651D01*
X143308Y14819D01*
Y14826D01*
X143323Y14841D01*
X143330Y14863D01*
X143352Y14892D01*
X143410Y14972D01*
X143483Y15074D01*
X143578Y15183D01*
X143694Y15300D01*
X143826Y15409D01*
X143979Y15511D01*
X143986D01*
X144000Y15519D01*
X144022Y15533D01*
X144059Y15548D01*
X144095Y15570D01*
X144146Y15584D01*
X144205Y15606D01*
X144263Y15635D01*
X144409Y15679D01*
X144576Y15716D01*
X144759Y15745D01*
X144956Y15752D01*
X145036D01*
X145094Y15745D01*
D02*
G37*
G36*
X121314D02*
X121380Y15737D01*
X121460Y15723D01*
X121547Y15708D01*
X121642Y15686D01*
X121744Y15657D01*
X121846Y15621D01*
X121956Y15577D01*
X122065Y15519D01*
X122167Y15460D01*
X122269Y15387D01*
X122371Y15300D01*
X122459Y15205D01*
X122466Y15198D01*
X122480Y15183D01*
X122502Y15147D01*
X122531Y15103D01*
X122568Y15045D01*
X122604Y14979D01*
X122648Y14892D01*
X122692Y14797D01*
X122736Y14688D01*
X122779Y14564D01*
X122816Y14433D01*
X122852Y14279D01*
X122881Y14119D01*
X122903Y13944D01*
X122918Y13762D01*
Y13558D01*
X120498D01*
Y13550D01*
Y13536D01*
Y13514D01*
X120505Y13485D01*
X120512Y13412D01*
X120527Y13310D01*
X120556Y13208D01*
X120600Y13091D01*
X120651Y12982D01*
X120724Y12887D01*
X120731Y12880D01*
X120767Y12851D01*
X120811Y12814D01*
X120877Y12770D01*
X120957Y12727D01*
X121059Y12690D01*
X121168Y12661D01*
X121285Y12654D01*
X121321D01*
X121365Y12661D01*
X121416Y12668D01*
X121474Y12683D01*
X121540Y12705D01*
X121606Y12734D01*
X121664Y12778D01*
X121671Y12785D01*
X121693Y12799D01*
X121722Y12829D01*
X121751Y12872D01*
X121795Y12931D01*
X121832Y12996D01*
X121868Y13084D01*
X121905Y13179D01*
X122867Y13018D01*
Y13011D01*
X122860Y12996D01*
X122845Y12967D01*
X122830Y12931D01*
X122809Y12887D01*
X122787Y12836D01*
X122721Y12719D01*
X122641Y12588D01*
X122539Y12450D01*
X122415Y12326D01*
X122276Y12209D01*
X122269D01*
X122262Y12195D01*
X122233Y12187D01*
X122203Y12165D01*
X122167Y12143D01*
X122116Y12122D01*
X122065Y12100D01*
X121999Y12071D01*
X121853Y12020D01*
X121686Y11976D01*
X121489Y11947D01*
X121278Y11932D01*
X121234D01*
X121190Y11939D01*
X121124D01*
X121044Y11954D01*
X120949Y11969D01*
X120847Y11983D01*
X120745Y12012D01*
X120629Y12041D01*
X120512Y12085D01*
X120396Y12136D01*
X120279Y12195D01*
X120162Y12267D01*
X120053Y12348D01*
X119958Y12442D01*
X119863Y12552D01*
X119856Y12559D01*
X119849Y12573D01*
X119834Y12603D01*
X119805Y12639D01*
X119783Y12690D01*
X119754Y12749D01*
X119718Y12814D01*
X119688Y12894D01*
X119652Y12982D01*
X119623Y13077D01*
X119586Y13179D01*
X119564Y13295D01*
X119543Y13412D01*
X119521Y13536D01*
X119513Y13674D01*
X119506Y13813D01*
Y13820D01*
Y13849D01*
Y13900D01*
X119513Y13966D01*
X119521Y14039D01*
X119528Y14126D01*
X119543Y14221D01*
X119564Y14330D01*
X119623Y14556D01*
X119659Y14673D01*
X119703Y14797D01*
X119761Y14914D01*
X119827Y15023D01*
X119900Y15132D01*
X119980Y15234D01*
X119987Y15242D01*
X120002Y15256D01*
X120031Y15285D01*
X120068Y15315D01*
X120111Y15351D01*
X120169Y15395D01*
X120235Y15446D01*
X120308Y15497D01*
X120388Y15541D01*
X120483Y15592D01*
X120578Y15635D01*
X120687Y15672D01*
X120797Y15701D01*
X120920Y15730D01*
X121044Y15745D01*
X121176Y15752D01*
X121256D01*
X121314Y15745D01*
D02*
G37*
G36*
X118456Y15672D02*
X119120D01*
Y14899D01*
X118456D01*
Y13419D01*
Y13412D01*
Y13397D01*
Y13375D01*
Y13346D01*
Y13273D01*
Y13186D01*
X118464Y13098D01*
Y13011D01*
Y12945D01*
X118471Y12916D01*
Y12902D01*
X118478Y12887D01*
X118493Y12858D01*
X118515Y12821D01*
X118558Y12778D01*
X118573Y12770D01*
X118602Y12756D01*
X118653Y12741D01*
X118719Y12734D01*
X118748D01*
X118777Y12741D01*
X118821Y12749D01*
X118879Y12756D01*
X118945Y12770D01*
X119025Y12792D01*
X119113Y12821D01*
X119200Y12071D01*
X119193D01*
X119185Y12063D01*
X119142Y12049D01*
X119069Y12027D01*
X118974Y12005D01*
X118865Y11976D01*
X118733Y11954D01*
X118588Y11939D01*
X118435Y11932D01*
X118391D01*
X118340Y11939D01*
X118274Y11947D01*
X118201Y11954D01*
X118121Y11969D01*
X118041Y11990D01*
X117961Y12020D01*
X117953Y12027D01*
X117924Y12034D01*
X117888Y12056D01*
X117844Y12078D01*
X117742Y12151D01*
X117691Y12195D01*
X117647Y12246D01*
X117640Y12253D01*
X117633Y12275D01*
X117618Y12304D01*
X117596Y12348D01*
X117574Y12399D01*
X117552Y12464D01*
X117531Y12537D01*
X117516Y12617D01*
Y12625D01*
X117509Y12654D01*
Y12697D01*
X117501Y12770D01*
X117494Y12865D01*
Y12982D01*
X117487Y13047D01*
Y13128D01*
Y13208D01*
Y13303D01*
Y14899D01*
X117042D01*
Y15672D01*
X117487D01*
Y16401D01*
X118456Y16969D01*
Y15672D01*
D02*
G37*
G36*
X86891Y17144D02*
X86964D01*
X87058Y17130D01*
X87168Y17115D01*
X87292Y17093D01*
X87423Y17064D01*
X87561Y17028D01*
X87707Y16984D01*
X87853Y16926D01*
X88006Y16860D01*
X88152Y16780D01*
X88298Y16685D01*
X88436Y16576D01*
X88567Y16452D01*
X88575Y16444D01*
X88596Y16423D01*
X88633Y16379D01*
X88669Y16328D01*
X88721Y16255D01*
X88779Y16168D01*
X88837Y16065D01*
X88903Y15949D01*
X88968Y15825D01*
X89027Y15679D01*
X89085Y15519D01*
X89136Y15351D01*
X89180Y15161D01*
X89209Y14965D01*
X89231Y14753D01*
X89238Y14527D01*
Y14513D01*
Y14476D01*
X89231Y14411D01*
Y14323D01*
X89216Y14221D01*
X89202Y14104D01*
X89180Y13966D01*
X89158Y13827D01*
X89121Y13674D01*
X89078Y13514D01*
X89019Y13354D01*
X88954Y13193D01*
X88881Y13040D01*
X88786Y12887D01*
X88684Y12741D01*
X88567Y12603D01*
X88560Y12595D01*
X88538Y12573D01*
X88502Y12537D01*
X88443Y12493D01*
X88378Y12442D01*
X88298Y12384D01*
X88203Y12326D01*
X88101Y12260D01*
X87977Y12195D01*
X87846Y12136D01*
X87700Y12078D01*
X87539Y12027D01*
X87372Y11983D01*
X87190Y11947D01*
X87000Y11925D01*
X86796Y11917D01*
X86745D01*
X86686Y11925D01*
X86614Y11932D01*
X86519Y11939D01*
X86409Y11954D01*
X86286Y11976D01*
X86154Y12005D01*
X86009Y12041D01*
X85870Y12085D01*
X85717Y12143D01*
X85571Y12209D01*
X85418Y12282D01*
X85280Y12377D01*
X85141Y12479D01*
X85010Y12603D01*
X85003Y12610D01*
X84981Y12632D01*
X84952Y12676D01*
X84908Y12727D01*
X84857Y12799D01*
X84798Y12887D01*
X84740Y12982D01*
X84682Y13098D01*
X84616Y13222D01*
X84558Y13368D01*
X84500Y13521D01*
X84448Y13689D01*
X84405Y13871D01*
X84376Y14068D01*
X84354Y14279D01*
X84346Y14498D01*
Y14505D01*
Y14535D01*
Y14571D01*
X84354Y14629D01*
Y14695D01*
X84361Y14768D01*
X84368Y14855D01*
X84376Y14950D01*
X84405Y15154D01*
X84441Y15373D01*
X84500Y15592D01*
X84572Y15796D01*
Y15803D01*
X84580Y15810D01*
X84594Y15832D01*
X84602Y15861D01*
X84645Y15934D01*
X84696Y16029D01*
X84762Y16138D01*
X84842Y16248D01*
X84937Y16372D01*
X85039Y16488D01*
X85046Y16496D01*
X85054Y16503D01*
X85090Y16539D01*
X85156Y16598D01*
X85236Y16663D01*
X85331Y16736D01*
X85440Y16816D01*
X85564Y16889D01*
X85695Y16948D01*
X85702D01*
X85717Y16955D01*
X85746Y16969D01*
X85783Y16977D01*
X85826Y16999D01*
X85877Y17013D01*
X85943Y17028D01*
X86009Y17050D01*
X86169Y17086D01*
X86351Y17122D01*
X86563Y17144D01*
X86781Y17152D01*
X86832D01*
X86891Y17144D01*
D02*
G37*
G36*
X111284Y9166D02*
X110820D01*
Y9696D01*
X111284D01*
Y9166D01*
D02*
G37*
G36*
X135783Y9756D02*
X135821D01*
X135925Y9745D01*
X136039Y9729D01*
X136160Y9701D01*
X136291Y9668D01*
X136411Y9625D01*
X136416D01*
X136427Y9619D01*
X136443Y9608D01*
X136465Y9597D01*
X136520Y9570D01*
X136591Y9521D01*
X136673Y9466D01*
X136755Y9396D01*
X136831Y9314D01*
X136902Y9221D01*
Y9215D01*
X136908Y9210D01*
X136918Y9193D01*
X136929Y9177D01*
X136957Y9122D01*
X136989Y9052D01*
X137028Y8964D01*
X137055Y8860D01*
X137082Y8751D01*
X137093Y8631D01*
X136613Y8593D01*
Y8598D01*
Y8609D01*
X136607Y8626D01*
X136602Y8653D01*
X136585Y8713D01*
X136564Y8795D01*
X136531Y8882D01*
X136482Y8970D01*
X136422Y9052D01*
X136345Y9128D01*
X136334Y9133D01*
X136307Y9155D01*
X136252Y9188D01*
X136181Y9221D01*
X136089Y9253D01*
X135979Y9286D01*
X135843Y9308D01*
X135690Y9314D01*
X135614D01*
X135581Y9308D01*
X135537Y9303D01*
X135439Y9292D01*
X135330Y9270D01*
X135220Y9243D01*
X135117Y9199D01*
X135073Y9172D01*
X135029Y9144D01*
X135018Y9139D01*
X134997Y9117D01*
X134964Y9079D01*
X134931Y9035D01*
X134893Y8975D01*
X134860Y8909D01*
X134838Y8833D01*
X134827Y8746D01*
Y8735D01*
Y8713D01*
X134833Y8675D01*
X134844Y8631D01*
X134860Y8576D01*
X134887Y8522D01*
X134920Y8467D01*
X134969Y8413D01*
X134975Y8407D01*
X135002Y8391D01*
X135024Y8374D01*
X135046Y8364D01*
X135079Y8347D01*
X135117Y8325D01*
X135166Y8309D01*
X135220Y8287D01*
X135281Y8265D01*
X135352Y8238D01*
X135428Y8216D01*
X135515Y8189D01*
X135614Y8167D01*
X135723Y8140D01*
X135728D01*
X135750Y8134D01*
X135783Y8129D01*
X135821Y8118D01*
X135870Y8107D01*
X135930Y8090D01*
X135990Y8074D01*
X136056Y8058D01*
X136198Y8020D01*
X136334Y7981D01*
X136400Y7959D01*
X136460Y7938D01*
X136514Y7921D01*
X136558Y7899D01*
X136564D01*
X136574Y7894D01*
X136591Y7883D01*
X136613Y7872D01*
X136673Y7839D01*
X136744Y7796D01*
X136826Y7736D01*
X136908Y7670D01*
X136984Y7594D01*
X137049Y7512D01*
X137055Y7501D01*
X137077Y7474D01*
X137099Y7424D01*
X137131Y7359D01*
X137159Y7282D01*
X137186Y7190D01*
X137202Y7086D01*
X137208Y6977D01*
Y6971D01*
Y6966D01*
Y6949D01*
Y6927D01*
X137197Y6867D01*
X137186Y6791D01*
X137164Y6704D01*
X137137Y6611D01*
X137093Y6513D01*
X137033Y6409D01*
Y6403D01*
X137028Y6398D01*
X137000Y6365D01*
X136962Y6316D01*
X136908Y6261D01*
X136837Y6196D01*
X136749Y6125D01*
X136651Y6059D01*
X136536Y5999D01*
X136531D01*
X136520Y5994D01*
X136504Y5988D01*
X136482Y5977D01*
X136449Y5967D01*
X136411Y5950D01*
X136323Y5928D01*
X136220Y5901D01*
X136094Y5874D01*
X135958Y5857D01*
X135810Y5852D01*
X135723D01*
X135679Y5857D01*
X135630D01*
X135575Y5863D01*
X135510Y5868D01*
X135373Y5890D01*
X135231Y5912D01*
X135089Y5950D01*
X134953Y5999D01*
X134947D01*
X134936Y6005D01*
X134920Y6016D01*
X134898Y6027D01*
X134833Y6059D01*
X134756Y6109D01*
X134669Y6174D01*
X134576Y6250D01*
X134489Y6343D01*
X134407Y6447D01*
Y6453D01*
X134396Y6463D01*
X134390Y6480D01*
X134374Y6502D01*
X134363Y6529D01*
X134347Y6562D01*
X134309Y6644D01*
X134270Y6747D01*
X134238Y6862D01*
X134216Y6993D01*
X134205Y7130D01*
X134674Y7173D01*
Y7168D01*
Y7162D01*
X134680Y7146D01*
Y7124D01*
X134691Y7075D01*
X134707Y7004D01*
X134729Y6933D01*
X134751Y6851D01*
X134789Y6775D01*
X134827Y6704D01*
X134833Y6698D01*
X134849Y6676D01*
X134876Y6638D01*
X134920Y6600D01*
X134975Y6551D01*
X135035Y6502D01*
X135117Y6453D01*
X135204Y6409D01*
X135210D01*
X135215Y6403D01*
X135231Y6398D01*
X135248Y6392D01*
X135302Y6376D01*
X135373Y6354D01*
X135461Y6332D01*
X135559Y6316D01*
X135668Y6305D01*
X135788Y6300D01*
X135837D01*
X135892Y6305D01*
X135958Y6311D01*
X136034Y6322D01*
X136121Y6332D01*
X136209Y6354D01*
X136291Y6381D01*
X136302Y6387D01*
X136329Y6398D01*
X136367Y6420D01*
X136416Y6442D01*
X136465Y6480D01*
X136520Y6518D01*
X136574Y6562D01*
X136618Y6616D01*
X136624Y6622D01*
X136635Y6644D01*
X136651Y6671D01*
X136673Y6715D01*
X136695Y6758D01*
X136711Y6813D01*
X136722Y6873D01*
X136727Y6938D01*
Y6944D01*
Y6971D01*
X136722Y7004D01*
X136716Y7048D01*
X136700Y7091D01*
X136684Y7146D01*
X136656Y7201D01*
X136618Y7250D01*
X136613Y7255D01*
X136596Y7271D01*
X136574Y7293D01*
X136536Y7326D01*
X136493Y7359D01*
X136433Y7397D01*
X136362Y7435D01*
X136280Y7468D01*
X136274Y7474D01*
X136247Y7479D01*
X136203Y7495D01*
X136176Y7501D01*
X136138Y7512D01*
X136100Y7528D01*
X136050Y7539D01*
X135996Y7555D01*
X135930Y7572D01*
X135865Y7588D01*
X135788Y7610D01*
X135701Y7632D01*
X135608Y7654D01*
X135603D01*
X135586Y7659D01*
X135559Y7665D01*
X135526Y7676D01*
X135483Y7687D01*
X135433Y7697D01*
X135324Y7730D01*
X135204Y7768D01*
X135079Y7807D01*
X134969Y7845D01*
X134920Y7867D01*
X134876Y7888D01*
X134871D01*
X134865Y7894D01*
X134833Y7916D01*
X134784Y7943D01*
X134729Y7987D01*
X134663Y8036D01*
X134598Y8096D01*
X134532Y8167D01*
X134478Y8243D01*
X134472Y8254D01*
X134456Y8282D01*
X134434Y8325D01*
X134412Y8380D01*
X134390Y8451D01*
X134369Y8533D01*
X134352Y8620D01*
X134347Y8713D01*
Y8718D01*
Y8724D01*
Y8740D01*
Y8762D01*
X134358Y8817D01*
X134369Y8888D01*
X134385Y8970D01*
X134412Y9062D01*
X134451Y9155D01*
X134505Y9248D01*
Y9253D01*
X134511Y9259D01*
X134538Y9292D01*
X134576Y9335D01*
X134625Y9390D01*
X134691Y9450D01*
X134773Y9516D01*
X134871Y9576D01*
X134980Y9630D01*
X134986D01*
X134997Y9636D01*
X135013Y9641D01*
X135035Y9652D01*
X135062Y9663D01*
X135100Y9674D01*
X135182Y9696D01*
X135286Y9718D01*
X135406Y9739D01*
X135532Y9756D01*
X135674Y9761D01*
X135745D01*
X135783Y9756D01*
D02*
G37*
G36*
X155357Y8713D02*
X155417Y8708D01*
X155488Y8697D01*
X155564Y8680D01*
X155646Y8658D01*
X155723Y8626D01*
X155734Y8620D01*
X155755Y8609D01*
X155794Y8593D01*
X155837Y8565D01*
X155892Y8533D01*
X155941Y8489D01*
X155990Y8445D01*
X156034Y8391D01*
X156039Y8385D01*
X156050Y8364D01*
X156067Y8336D01*
X156094Y8298D01*
X156116Y8243D01*
X156138Y8189D01*
X156165Y8123D01*
X156181Y8052D01*
Y8047D01*
X156187Y8025D01*
X156192Y7992D01*
X156198Y7949D01*
Y7883D01*
X156203Y7807D01*
X156209Y7714D01*
Y7599D01*
Y5917D01*
X155745D01*
Y7577D01*
Y7583D01*
Y7588D01*
Y7626D01*
Y7676D01*
X155739Y7736D01*
X155734Y7807D01*
X155723Y7878D01*
X155706Y7943D01*
X155690Y8003D01*
Y8009D01*
X155679Y8025D01*
X155663Y8052D01*
X155646Y8085D01*
X155619Y8118D01*
X155586Y8156D01*
X155543Y8194D01*
X155493Y8227D01*
X155488Y8232D01*
X155472Y8243D01*
X155439Y8254D01*
X155401Y8271D01*
X155357Y8287D01*
X155302Y8303D01*
X155237Y8309D01*
X155171Y8314D01*
X155144D01*
X155122Y8309D01*
X155068Y8303D01*
X154997Y8292D01*
X154920Y8265D01*
X154833Y8232D01*
X154745Y8189D01*
X154664Y8123D01*
X154653Y8112D01*
X154631Y8085D01*
X154614Y8063D01*
X154598Y8036D01*
X154576Y8003D01*
X154560Y7965D01*
X154538Y7921D01*
X154516Y7867D01*
X154500Y7807D01*
X154483Y7741D01*
X154472Y7670D01*
X154462Y7594D01*
X154451Y7501D01*
Y7408D01*
Y5917D01*
X153986D01*
Y8658D01*
X154401D01*
Y8265D01*
X154407Y8271D01*
X154418Y8287D01*
X154434Y8309D01*
X154456Y8336D01*
X154489Y8369D01*
X154527Y8407D01*
X154571Y8451D01*
X154625Y8495D01*
X154680Y8533D01*
X154745Y8576D01*
X154816Y8615D01*
X154893Y8647D01*
X154980Y8675D01*
X155068Y8697D01*
X155166Y8713D01*
X155270Y8718D01*
X155313D01*
X155357Y8713D01*
D02*
G37*
G36*
X146839D02*
X146899Y8708D01*
X146970Y8697D01*
X147047Y8680D01*
X147129Y8658D01*
X147205Y8626D01*
X147216Y8620D01*
X147238Y8609D01*
X147276Y8593D01*
X147320Y8565D01*
X147374Y8533D01*
X147424Y8489D01*
X147473Y8445D01*
X147516Y8391D01*
X147522Y8385D01*
X147533Y8364D01*
X147549Y8336D01*
X147576Y8298D01*
X147598Y8243D01*
X147620Y8189D01*
X147647Y8123D01*
X147664Y8052D01*
Y8047D01*
X147669Y8025D01*
X147675Y7992D01*
X147680Y7949D01*
Y7883D01*
X147686Y7807D01*
X147691Y7714D01*
Y7599D01*
Y5917D01*
X147227D01*
Y7577D01*
Y7583D01*
Y7588D01*
Y7626D01*
Y7676D01*
X147222Y7736D01*
X147216Y7807D01*
X147205Y7878D01*
X147189Y7943D01*
X147172Y8003D01*
Y8009D01*
X147161Y8025D01*
X147145Y8052D01*
X147129Y8085D01*
X147101Y8118D01*
X147069Y8156D01*
X147025Y8194D01*
X146976Y8227D01*
X146970Y8232D01*
X146954Y8243D01*
X146921Y8254D01*
X146883Y8271D01*
X146839Y8287D01*
X146785Y8303D01*
X146719Y8309D01*
X146654Y8314D01*
X146626D01*
X146605Y8309D01*
X146550Y8303D01*
X146479Y8292D01*
X146403Y8265D01*
X146315Y8232D01*
X146228Y8189D01*
X146146Y8123D01*
X146135Y8112D01*
X146113Y8085D01*
X146097Y8063D01*
X146080Y8036D01*
X146058Y8003D01*
X146042Y7965D01*
X146020Y7921D01*
X145999Y7867D01*
X145982Y7807D01*
X145966Y7741D01*
X145955Y7670D01*
X145944Y7594D01*
X145933Y7501D01*
Y7408D01*
Y5917D01*
X145469D01*
Y8658D01*
X145884D01*
Y8265D01*
X145889Y8271D01*
X145900Y8287D01*
X145917Y8309D01*
X145938Y8336D01*
X145971Y8369D01*
X146009Y8407D01*
X146053Y8451D01*
X146108Y8495D01*
X146162Y8533D01*
X146228Y8576D01*
X146299Y8615D01*
X146375Y8647D01*
X146463Y8675D01*
X146550Y8697D01*
X146648Y8713D01*
X146752Y8718D01*
X146796D01*
X146839Y8713D01*
D02*
G37*
G36*
X141865D02*
X141925Y8702D01*
X141996Y8680D01*
X142073Y8653D01*
X142160Y8615D01*
X142253Y8565D01*
X142084Y8140D01*
X142078Y8145D01*
X142056Y8156D01*
X142024Y8172D01*
X141980Y8189D01*
X141931Y8205D01*
X141871Y8222D01*
X141811Y8232D01*
X141751Y8238D01*
X141723D01*
X141696Y8232D01*
X141658Y8227D01*
X141620Y8216D01*
X141570Y8200D01*
X141521Y8178D01*
X141478Y8145D01*
X141472Y8140D01*
X141456Y8129D01*
X141439Y8107D01*
X141412Y8080D01*
X141385Y8041D01*
X141358Y7998D01*
X141330Y7949D01*
X141308Y7888D01*
X141303Y7878D01*
X141297Y7845D01*
X141287Y7796D01*
X141270Y7730D01*
X141254Y7648D01*
X141243Y7555D01*
X141237Y7457D01*
X141232Y7348D01*
Y5917D01*
X140768D01*
Y8658D01*
X141188D01*
Y8243D01*
X141194Y8249D01*
X141216Y8287D01*
X141243Y8336D01*
X141287Y8396D01*
X141330Y8456D01*
X141379Y8522D01*
X141428Y8576D01*
X141478Y8620D01*
X141483Y8626D01*
X141499Y8636D01*
X141532Y8653D01*
X141565Y8669D01*
X141609Y8686D01*
X141663Y8702D01*
X141718Y8713D01*
X141778Y8718D01*
X141816D01*
X141865Y8713D01*
D02*
G37*
G36*
X149416D02*
X149498Y8708D01*
X149586Y8697D01*
X149679Y8675D01*
X149777Y8653D01*
X149870Y8620D01*
X149875D01*
X149881Y8615D01*
X149908Y8604D01*
X149952Y8582D01*
X150006Y8555D01*
X150066Y8516D01*
X150126Y8473D01*
X150181Y8424D01*
X150230Y8369D01*
X150235Y8364D01*
X150246Y8342D01*
X150268Y8303D01*
X150295Y8260D01*
X150323Y8194D01*
X150350Y8123D01*
X150372Y8041D01*
X150394Y7949D01*
X149941Y7888D01*
Y7899D01*
X149935Y7921D01*
X149924Y7959D01*
X149908Y8009D01*
X149881Y8058D01*
X149848Y8112D01*
X149810Y8167D01*
X149755Y8216D01*
X149750Y8222D01*
X149728Y8232D01*
X149695Y8254D01*
X149646Y8276D01*
X149591Y8298D01*
X149520Y8320D01*
X149433Y8331D01*
X149340Y8336D01*
X149285D01*
X149231Y8331D01*
X149160Y8325D01*
X149089Y8309D01*
X149012Y8292D01*
X148941Y8265D01*
X148881Y8227D01*
X148876Y8222D01*
X148860Y8211D01*
X148838Y8189D01*
X148816Y8156D01*
X148788Y8123D01*
X148767Y8080D01*
X148750Y8031D01*
X148745Y7981D01*
Y7976D01*
Y7965D01*
X148750Y7949D01*
Y7927D01*
X148767Y7872D01*
X148799Y7818D01*
X148805Y7812D01*
X148810Y7807D01*
X148821Y7790D01*
X148843Y7774D01*
X148865Y7757D01*
X148898Y7736D01*
X148936Y7719D01*
X148980Y7697D01*
X148985D01*
X148996Y7692D01*
X149018Y7687D01*
X149056Y7670D01*
X149111Y7654D01*
X149182Y7637D01*
X149225Y7621D01*
X149275Y7610D01*
X149329Y7594D01*
X149389Y7577D01*
X149395D01*
X149411Y7572D01*
X149438Y7566D01*
X149471Y7555D01*
X149509Y7544D01*
X149558Y7534D01*
X149662Y7501D01*
X149777Y7468D01*
X149891Y7430D01*
X149995Y7392D01*
X150039Y7375D01*
X150077Y7359D01*
X150088Y7353D01*
X150110Y7343D01*
X150143Y7326D01*
X150192Y7299D01*
X150241Y7266D01*
X150290Y7222D01*
X150339Y7173D01*
X150383Y7119D01*
X150388Y7113D01*
X150399Y7091D01*
X150421Y7059D01*
X150443Y7009D01*
X150459Y6949D01*
X150481Y6884D01*
X150492Y6807D01*
X150497Y6720D01*
Y6709D01*
Y6682D01*
X150492Y6638D01*
X150481Y6578D01*
X150465Y6513D01*
X150437Y6442D01*
X150405Y6360D01*
X150361Y6283D01*
X150356Y6272D01*
X150334Y6250D01*
X150306Y6212D01*
X150263Y6169D01*
X150203Y6120D01*
X150137Y6065D01*
X150061Y6016D01*
X149968Y5967D01*
X149962D01*
X149957Y5961D01*
X149924Y5950D01*
X149870Y5934D01*
X149799Y5912D01*
X149711Y5890D01*
X149613Y5874D01*
X149509Y5863D01*
X149389Y5857D01*
X149340D01*
X149302Y5863D01*
X149258D01*
X149204Y5868D01*
X149149Y5874D01*
X149089Y5885D01*
X148958Y5912D01*
X148821Y5950D01*
X148690Y6005D01*
X148630Y6038D01*
X148576Y6076D01*
X148570Y6081D01*
X148565Y6087D01*
X148532Y6120D01*
X148483Y6169D01*
X148428Y6245D01*
X148368Y6338D01*
X148308Y6447D01*
X148259Y6584D01*
X148221Y6736D01*
X148679Y6807D01*
Y6802D01*
Y6797D01*
X148690Y6764D01*
X148701Y6709D01*
X148723Y6649D01*
X148750Y6584D01*
X148783Y6513D01*
X148832Y6442D01*
X148892Y6381D01*
X148903Y6376D01*
X148925Y6360D01*
X148969Y6338D01*
X149023Y6311D01*
X149094Y6283D01*
X149176Y6261D01*
X149275Y6245D01*
X149389Y6240D01*
X149444D01*
X149498Y6245D01*
X149569Y6256D01*
X149646Y6272D01*
X149728Y6294D01*
X149799Y6322D01*
X149864Y6365D01*
X149870Y6371D01*
X149891Y6387D01*
X149913Y6414D01*
X149946Y6453D01*
X149973Y6496D01*
X150001Y6551D01*
X150017Y6605D01*
X150022Y6671D01*
Y6676D01*
Y6698D01*
X150017Y6725D01*
X150006Y6764D01*
X149990Y6802D01*
X149962Y6840D01*
X149930Y6884D01*
X149881Y6917D01*
X149875Y6922D01*
X149859Y6927D01*
X149831Y6944D01*
X149788Y6960D01*
X149722Y6982D01*
X149684Y6999D01*
X149640Y7009D01*
X149591Y7026D01*
X149537Y7042D01*
X149477Y7059D01*
X149406Y7075D01*
X149400D01*
X149384Y7080D01*
X149356Y7086D01*
X149324Y7097D01*
X149280Y7108D01*
X149231Y7124D01*
X149127Y7151D01*
X149007Y7190D01*
X148892Y7222D01*
X148783Y7261D01*
X148734Y7282D01*
X148696Y7299D01*
X148685Y7304D01*
X148663Y7315D01*
X148630Y7337D01*
X148586Y7364D01*
X148537Y7403D01*
X148488Y7446D01*
X148439Y7495D01*
X148395Y7555D01*
X148390Y7561D01*
X148379Y7583D01*
X148363Y7621D01*
X148346Y7665D01*
X148330Y7719D01*
X148313Y7785D01*
X148303Y7850D01*
X148297Y7927D01*
Y7938D01*
Y7959D01*
X148303Y7992D01*
X148308Y8041D01*
X148319Y8090D01*
X148330Y8151D01*
X148352Y8205D01*
X148379Y8265D01*
X148384Y8271D01*
X148395Y8292D01*
X148412Y8320D01*
X148439Y8358D01*
X148472Y8396D01*
X148510Y8445D01*
X148554Y8489D01*
X148608Y8527D01*
X148614Y8533D01*
X148630Y8538D01*
X148652Y8555D01*
X148685Y8571D01*
X148729Y8593D01*
X148778Y8615D01*
X148838Y8636D01*
X148903Y8658D01*
X148914Y8664D01*
X148936Y8669D01*
X148974Y8680D01*
X149023Y8691D01*
X149083Y8702D01*
X149149Y8708D01*
X149225Y8718D01*
X149356D01*
X149416Y8713D01*
D02*
G37*
G36*
X125633D02*
X125715Y8708D01*
X125802Y8697D01*
X125895Y8675D01*
X125993Y8653D01*
X126086Y8620D01*
X126091D01*
X126097Y8615D01*
X126124Y8604D01*
X126168Y8582D01*
X126222Y8555D01*
X126282Y8516D01*
X126342Y8473D01*
X126397Y8424D01*
X126446Y8369D01*
X126452Y8364D01*
X126463Y8342D01*
X126484Y8303D01*
X126512Y8260D01*
X126539Y8194D01*
X126566Y8123D01*
X126588Y8041D01*
X126610Y7949D01*
X126157Y7888D01*
Y7899D01*
X126151Y7921D01*
X126140Y7959D01*
X126124Y8009D01*
X126097Y8058D01*
X126064Y8112D01*
X126026Y8167D01*
X125971Y8216D01*
X125966Y8222D01*
X125944Y8232D01*
X125911Y8254D01*
X125862Y8276D01*
X125807Y8298D01*
X125736Y8320D01*
X125649Y8331D01*
X125556Y8336D01*
X125502D01*
X125447Y8331D01*
X125376Y8325D01*
X125305Y8309D01*
X125229Y8292D01*
X125158Y8265D01*
X125098Y8227D01*
X125092Y8222D01*
X125076Y8211D01*
X125054Y8189D01*
X125032Y8156D01*
X125005Y8123D01*
X124983Y8080D01*
X124967Y8031D01*
X124961Y7981D01*
Y7976D01*
Y7965D01*
X124967Y7949D01*
Y7927D01*
X124983Y7872D01*
X125016Y7818D01*
X125021Y7812D01*
X125027Y7807D01*
X125038Y7790D01*
X125059Y7774D01*
X125081Y7757D01*
X125114Y7736D01*
X125152Y7719D01*
X125196Y7697D01*
X125201D01*
X125212Y7692D01*
X125234Y7687D01*
X125272Y7670D01*
X125327Y7654D01*
X125398Y7637D01*
X125442Y7621D01*
X125491Y7610D01*
X125545Y7594D01*
X125605Y7577D01*
X125611D01*
X125627Y7572D01*
X125654Y7566D01*
X125687Y7555D01*
X125725Y7544D01*
X125775Y7534D01*
X125878Y7501D01*
X125993Y7468D01*
X126108Y7430D01*
X126211Y7392D01*
X126255Y7375D01*
X126293Y7359D01*
X126304Y7353D01*
X126326Y7343D01*
X126359Y7326D01*
X126408Y7299D01*
X126457Y7266D01*
X126506Y7222D01*
X126555Y7173D01*
X126599Y7119D01*
X126604Y7113D01*
X126616Y7091D01*
X126637Y7059D01*
X126659Y7009D01*
X126675Y6949D01*
X126697Y6884D01*
X126708Y6807D01*
X126714Y6720D01*
Y6709D01*
Y6682D01*
X126708Y6638D01*
X126697Y6578D01*
X126681Y6513D01*
X126654Y6442D01*
X126621Y6360D01*
X126577Y6283D01*
X126572Y6272D01*
X126550Y6250D01*
X126523Y6212D01*
X126479Y6169D01*
X126419Y6120D01*
X126353Y6065D01*
X126277Y6016D01*
X126184Y5967D01*
X126179D01*
X126173Y5961D01*
X126140Y5950D01*
X126086Y5934D01*
X126015Y5912D01*
X125927Y5890D01*
X125829Y5874D01*
X125725Y5863D01*
X125605Y5857D01*
X125556D01*
X125518Y5863D01*
X125474D01*
X125420Y5868D01*
X125365Y5874D01*
X125305Y5885D01*
X125174Y5912D01*
X125038Y5950D01*
X124907Y6005D01*
X124846Y6038D01*
X124792Y6076D01*
X124786Y6081D01*
X124781Y6087D01*
X124748Y6120D01*
X124699Y6169D01*
X124644Y6245D01*
X124584Y6338D01*
X124524Y6447D01*
X124475Y6584D01*
X124437Y6736D01*
X124896Y6807D01*
Y6802D01*
Y6797D01*
X124907Y6764D01*
X124917Y6709D01*
X124939Y6649D01*
X124967Y6584D01*
X124999Y6513D01*
X125048Y6442D01*
X125109Y6381D01*
X125119Y6376D01*
X125141Y6360D01*
X125185Y6338D01*
X125240Y6311D01*
X125311Y6283D01*
X125392Y6261D01*
X125491Y6245D01*
X125605Y6240D01*
X125660D01*
X125715Y6245D01*
X125786Y6256D01*
X125862Y6272D01*
X125944Y6294D01*
X126015Y6322D01*
X126080Y6365D01*
X126086Y6371D01*
X126108Y6387D01*
X126129Y6414D01*
X126162Y6453D01*
X126190Y6496D01*
X126217Y6551D01*
X126233Y6605D01*
X126239Y6671D01*
Y6676D01*
Y6698D01*
X126233Y6725D01*
X126222Y6764D01*
X126206Y6802D01*
X126179Y6840D01*
X126146Y6884D01*
X126097Y6917D01*
X126091Y6922D01*
X126075Y6927D01*
X126048Y6944D01*
X126004Y6960D01*
X125938Y6982D01*
X125900Y6999D01*
X125856Y7009D01*
X125807Y7026D01*
X125753Y7042D01*
X125693Y7059D01*
X125622Y7075D01*
X125616D01*
X125600Y7080D01*
X125573Y7086D01*
X125540Y7097D01*
X125496Y7108D01*
X125447Y7124D01*
X125343Y7151D01*
X125223Y7190D01*
X125109Y7222D01*
X124999Y7261D01*
X124950Y7282D01*
X124912Y7299D01*
X124901Y7304D01*
X124879Y7315D01*
X124846Y7337D01*
X124803Y7364D01*
X124754Y7403D01*
X124705Y7446D01*
X124655Y7495D01*
X124612Y7555D01*
X124606Y7561D01*
X124595Y7583D01*
X124579Y7621D01*
X124563Y7665D01*
X124546Y7719D01*
X124530Y7785D01*
X124519Y7850D01*
X124513Y7927D01*
Y7938D01*
Y7959D01*
X124519Y7992D01*
X124524Y8041D01*
X124535Y8090D01*
X124546Y8151D01*
X124568Y8205D01*
X124595Y8265D01*
X124601Y8271D01*
X124612Y8292D01*
X124628Y8320D01*
X124655Y8358D01*
X124688Y8396D01*
X124726Y8445D01*
X124770Y8489D01*
X124825Y8527D01*
X124830Y8533D01*
X124846Y8538D01*
X124868Y8555D01*
X124901Y8571D01*
X124945Y8593D01*
X124994Y8615D01*
X125054Y8636D01*
X125119Y8658D01*
X125130Y8664D01*
X125152Y8669D01*
X125190Y8680D01*
X125240Y8691D01*
X125300Y8702D01*
X125365Y8708D01*
X125442Y8718D01*
X125573D01*
X125633Y8713D01*
D02*
G37*
G36*
X113178Y8713D02*
X113211D01*
X113255Y8708D01*
X113359Y8691D01*
X113473Y8664D01*
X113593Y8620D01*
X113714Y8565D01*
X113828Y8489D01*
X113834D01*
X113839Y8478D01*
X113872Y8445D01*
X113921Y8396D01*
X113981Y8325D01*
X114041Y8238D01*
X114101Y8129D01*
X114156Y8003D01*
X114194Y7856D01*
X113741Y7785D01*
Y7790D01*
X113735Y7796D01*
X113730Y7828D01*
X113714Y7878D01*
X113686Y7938D01*
X113659Y8003D01*
X113615Y8074D01*
X113566Y8140D01*
X113512Y8194D01*
X113506Y8200D01*
X113484Y8216D01*
X113446Y8238D01*
X113402Y8265D01*
X113342Y8292D01*
X113277Y8314D01*
X113200Y8331D01*
X113118Y8336D01*
X113086D01*
X113058Y8331D01*
X112998Y8325D01*
X112916Y8303D01*
X112829Y8276D01*
X112731Y8232D01*
X112638Y8167D01*
X112594Y8129D01*
X112550Y8085D01*
Y8080D01*
X112540Y8074D01*
X112529Y8058D01*
X112518Y8036D01*
X112501Y8009D01*
X112479Y7976D01*
X112463Y7938D01*
X112441Y7894D01*
X112419Y7839D01*
X112403Y7779D01*
X112381Y7714D01*
X112365Y7643D01*
X112354Y7566D01*
X112343Y7479D01*
X112332Y7386D01*
Y7288D01*
Y7282D01*
Y7266D01*
Y7233D01*
X112338Y7201D01*
Y7151D01*
X112343Y7102D01*
X112359Y6982D01*
X112381Y6851D01*
X112419Y6715D01*
X112469Y6594D01*
X112501Y6534D01*
X112540Y6485D01*
X112550Y6474D01*
X112578Y6447D01*
X112627Y6409D01*
X112687Y6365D01*
X112769Y6316D01*
X112862Y6278D01*
X112971Y6250D01*
X113031Y6245D01*
X113091Y6240D01*
X113102D01*
X113135Y6245D01*
X113189Y6250D01*
X113249Y6261D01*
X113320Y6278D01*
X113397Y6311D01*
X113473Y6349D01*
X113544Y6403D01*
X113555Y6409D01*
X113572Y6436D01*
X113604Y6474D01*
X113643Y6534D01*
X113681Y6605D01*
X113724Y6693D01*
X113757Y6802D01*
X113779Y6922D01*
X114238Y6862D01*
Y6857D01*
X114232Y6840D01*
X114227Y6818D01*
X114221Y6786D01*
X114210Y6742D01*
X114199Y6698D01*
X114161Y6589D01*
X114112Y6474D01*
X114041Y6349D01*
X113954Y6229D01*
X113905Y6174D01*
X113850Y6120D01*
X113845Y6114D01*
X113834Y6109D01*
X113817Y6098D01*
X113795Y6081D01*
X113768Y6059D01*
X113730Y6038D01*
X113686Y6016D01*
X113643Y5988D01*
X113533Y5939D01*
X113402Y5901D01*
X113260Y5868D01*
X113178Y5863D01*
X113096Y5857D01*
X113042D01*
X113004Y5863D01*
X112954Y5868D01*
X112900Y5879D01*
X112840Y5890D01*
X112774Y5901D01*
X112627Y5945D01*
X112556Y5977D01*
X112479Y6010D01*
X112403Y6054D01*
X112332Y6103D01*
X112261Y6158D01*
X112196Y6223D01*
X112190Y6229D01*
X112179Y6240D01*
X112163Y6261D01*
X112141Y6289D01*
X112119Y6327D01*
X112086Y6376D01*
X112059Y6431D01*
X112026Y6491D01*
X111994Y6562D01*
X111966Y6644D01*
X111934Y6725D01*
X111912Y6824D01*
X111890Y6922D01*
X111873Y7037D01*
X111863Y7151D01*
X111857Y7277D01*
Y7282D01*
Y7299D01*
Y7321D01*
Y7353D01*
X111863Y7392D01*
Y7435D01*
X111868Y7484D01*
X111873Y7539D01*
X111890Y7659D01*
X111917Y7790D01*
X111950Y7921D01*
X111999Y8052D01*
Y8058D01*
X112004Y8069D01*
X112015Y8085D01*
X112026Y8107D01*
X112059Y8167D01*
X112108Y8238D01*
X112174Y8320D01*
X112250Y8402D01*
X112343Y8484D01*
X112447Y8549D01*
X112452D01*
X112463Y8555D01*
X112479Y8565D01*
X112501Y8576D01*
X112529Y8587D01*
X112561Y8604D01*
X112643Y8636D01*
X112736Y8664D01*
X112851Y8691D01*
X112971Y8713D01*
X113102Y8718D01*
X113146D01*
X113178Y8713D01*
D02*
G37*
G36*
X110039Y5917D02*
X109520D01*
X107544Y8882D01*
Y5917D01*
X107063D01*
Y9696D01*
X107576D01*
X109558Y6725D01*
Y9696D01*
X110039D01*
Y5917D01*
D02*
G37*
G36*
X130618Y7119D02*
Y7113D01*
Y7097D01*
Y7075D01*
Y7042D01*
X130612Y6999D01*
Y6955D01*
X130601Y6851D01*
X130590Y6731D01*
X130569Y6605D01*
X130536Y6491D01*
X130498Y6381D01*
Y6376D01*
X130492Y6371D01*
X130476Y6338D01*
X130448Y6294D01*
X130410Y6234D01*
X130356Y6174D01*
X130296Y6109D01*
X130219Y6043D01*
X130132Y5988D01*
X130121Y5983D01*
X130088Y5967D01*
X130039Y5945D01*
X129968Y5923D01*
X129880Y5896D01*
X129782Y5874D01*
X129673Y5857D01*
X129553Y5852D01*
X129504D01*
X129471Y5857D01*
X129427Y5863D01*
X129384Y5868D01*
X129269Y5890D01*
X129149Y5923D01*
X129023Y5972D01*
X128958Y6005D01*
X128898Y6043D01*
X128843Y6087D01*
X128788Y6136D01*
X128783Y6141D01*
X128778Y6147D01*
X128767Y6169D01*
X128750Y6190D01*
X128728Y6218D01*
X128707Y6256D01*
X128685Y6300D01*
X128657Y6349D01*
X128636Y6403D01*
X128614Y6469D01*
X128592Y6534D01*
X128570Y6611D01*
X128559Y6693D01*
X128543Y6786D01*
X128537Y6878D01*
Y6982D01*
X128991Y7048D01*
Y7042D01*
Y7031D01*
Y7009D01*
X128996Y6977D01*
X129001Y6944D01*
Y6906D01*
X129018Y6813D01*
X129034Y6715D01*
X129067Y6616D01*
X129100Y6529D01*
X129122Y6491D01*
X129149Y6458D01*
X129154Y6453D01*
X129176Y6436D01*
X129209Y6409D01*
X129253Y6381D01*
X129313Y6349D01*
X129378Y6327D01*
X129460Y6305D01*
X129548Y6300D01*
X129580D01*
X129613Y6305D01*
X129662Y6311D01*
X129711Y6322D01*
X129766Y6332D01*
X129821Y6354D01*
X129875Y6381D01*
X129880Y6387D01*
X129897Y6398D01*
X129919Y6420D01*
X129952Y6442D01*
X129979Y6480D01*
X130012Y6518D01*
X130039Y6562D01*
X130061Y6616D01*
Y6622D01*
X130072Y6644D01*
X130077Y6682D01*
X130088Y6731D01*
X130099Y6797D01*
X130104Y6878D01*
X130115Y6977D01*
Y7091D01*
Y9696D01*
X130618D01*
Y7119D01*
D02*
G37*
G36*
X87172Y9204D02*
X85660D01*
X85458Y8183D01*
X85463Y8189D01*
X85474Y8194D01*
X85491Y8205D01*
X85518Y8222D01*
X85551Y8238D01*
X85589Y8260D01*
X85676Y8303D01*
X85786Y8347D01*
X85906Y8385D01*
X86037Y8413D01*
X86102Y8424D01*
X86222D01*
X86255Y8418D01*
X86299Y8413D01*
X86348Y8407D01*
X86403Y8396D01*
X86463Y8380D01*
X86594Y8342D01*
X86665Y8314D01*
X86736Y8276D01*
X86807Y8238D01*
X86878Y8194D01*
X86943Y8140D01*
X87009Y8080D01*
X87014Y8074D01*
X87025Y8063D01*
X87041Y8047D01*
X87063Y8020D01*
X87090Y7981D01*
X87118Y7943D01*
X87151Y7894D01*
X87183Y7839D01*
X87211Y7779D01*
X87243Y7714D01*
X87271Y7637D01*
X87298Y7561D01*
X87320Y7479D01*
X87336Y7386D01*
X87347Y7293D01*
X87353Y7195D01*
Y7190D01*
Y7173D01*
Y7146D01*
X87347Y7108D01*
X87342Y7064D01*
X87336Y7015D01*
X87325Y6955D01*
X87314Y6895D01*
X87282Y6753D01*
X87227Y6605D01*
X87194Y6529D01*
X87151Y6458D01*
X87107Y6381D01*
X87052Y6311D01*
X87047Y6305D01*
X87036Y6289D01*
X87014Y6267D01*
X86987Y6240D01*
X86949Y6207D01*
X86905Y6163D01*
X86850Y6125D01*
X86790Y6081D01*
X86725Y6038D01*
X86648Y5999D01*
X86566Y5961D01*
X86479Y5923D01*
X86386Y5896D01*
X86282Y5874D01*
X86173Y5857D01*
X86059Y5852D01*
X86009D01*
X85971Y5857D01*
X85927Y5863D01*
X85878Y5868D01*
X85818Y5874D01*
X85758Y5890D01*
X85622Y5923D01*
X85485Y5972D01*
X85414Y6005D01*
X85343Y6043D01*
X85278Y6087D01*
X85212Y6136D01*
X85207Y6141D01*
X85196Y6147D01*
X85185Y6169D01*
X85163Y6190D01*
X85136Y6218D01*
X85109Y6250D01*
X85076Y6294D01*
X85049Y6343D01*
X85016Y6392D01*
X84983Y6453D01*
X84923Y6583D01*
X84874Y6736D01*
X84857Y6818D01*
X84847Y6906D01*
X85332Y6944D01*
Y6938D01*
Y6927D01*
X85338Y6911D01*
X85343Y6884D01*
X85360Y6824D01*
X85382Y6742D01*
X85414Y6660D01*
X85458Y6567D01*
X85513Y6485D01*
X85578Y6409D01*
X85589Y6403D01*
X85611Y6381D01*
X85654Y6354D01*
X85715Y6322D01*
X85780Y6289D01*
X85862Y6261D01*
X85955Y6240D01*
X86059Y6234D01*
X86091D01*
X86113Y6240D01*
X86179Y6245D01*
X86255Y6267D01*
X86348Y6294D01*
X86441Y6338D01*
X86539Y6403D01*
X86583Y6442D01*
X86626Y6485D01*
X86632Y6491D01*
X86637Y6496D01*
X86648Y6513D01*
X86665Y6529D01*
X86703Y6589D01*
X86747Y6665D01*
X86785Y6758D01*
X86823Y6873D01*
X86850Y7009D01*
X86861Y7080D01*
Y7157D01*
Y7162D01*
Y7173D01*
Y7195D01*
X86856Y7222D01*
Y7255D01*
X86850Y7293D01*
X86834Y7381D01*
X86807Y7484D01*
X86768Y7588D01*
X86714Y7687D01*
X86637Y7779D01*
Y7785D01*
X86626Y7790D01*
X86599Y7818D01*
X86550Y7856D01*
X86484Y7899D01*
X86397Y7938D01*
X86299Y7976D01*
X86184Y8003D01*
X86119Y8014D01*
X86015D01*
X85971Y8009D01*
X85917Y8003D01*
X85851Y7987D01*
X85786Y7970D01*
X85715Y7943D01*
X85644Y7910D01*
X85638Y7905D01*
X85616Y7894D01*
X85584Y7867D01*
X85540Y7839D01*
X85496Y7801D01*
X85453Y7752D01*
X85403Y7703D01*
X85365Y7643D01*
X84928Y7703D01*
X85294Y9647D01*
X87172D01*
Y9204D01*
D02*
G37*
G36*
X132037Y5917D02*
X131508D01*
Y6447D01*
X132037D01*
Y5917D01*
D02*
G37*
G36*
X122963Y8713D02*
X123045Y8708D01*
X123137Y8697D01*
X123230Y8680D01*
X123323Y8658D01*
X123410Y8631D01*
X123421Y8626D01*
X123449Y8615D01*
X123487Y8598D01*
X123536Y8576D01*
X123591Y8544D01*
X123645Y8511D01*
X123694Y8467D01*
X123738Y8424D01*
X123743Y8418D01*
X123754Y8402D01*
X123771Y8374D01*
X123793Y8342D01*
X123820Y8292D01*
X123842Y8243D01*
X123864Y8183D01*
X123880Y8112D01*
Y8107D01*
X123886Y8090D01*
X123891Y8058D01*
X123896Y8014D01*
Y7954D01*
X123902Y7883D01*
X123907Y7790D01*
Y7687D01*
Y7064D01*
Y7059D01*
Y7037D01*
Y7004D01*
Y6960D01*
Y6911D01*
Y6851D01*
X123913Y6720D01*
Y6584D01*
X123918Y6447D01*
X123924Y6387D01*
Y6332D01*
X123929Y6283D01*
X123935Y6245D01*
Y6240D01*
X123940Y6218D01*
X123945Y6185D01*
X123962Y6141D01*
X123973Y6092D01*
X123995Y6038D01*
X124022Y5977D01*
X124049Y5917D01*
X123563D01*
X123558Y5923D01*
X123552Y5945D01*
X123541Y5972D01*
X123525Y6016D01*
X123509Y6065D01*
X123498Y6125D01*
X123487Y6190D01*
X123476Y6261D01*
X123470D01*
X123465Y6250D01*
X123432Y6223D01*
X123383Y6185D01*
X123318Y6136D01*
X123236Y6087D01*
X123154Y6032D01*
X123066Y5983D01*
X122974Y5945D01*
X122963Y5939D01*
X122930Y5934D01*
X122881Y5917D01*
X122821Y5901D01*
X122744Y5885D01*
X122657Y5874D01*
X122559Y5863D01*
X122460Y5857D01*
X122417D01*
X122384Y5863D01*
X122346D01*
X122302Y5868D01*
X122204Y5885D01*
X122095Y5912D01*
X121975Y5950D01*
X121865Y6005D01*
X121767Y6076D01*
X121756Y6087D01*
X121729Y6114D01*
X121690Y6163D01*
X121647Y6229D01*
X121603Y6311D01*
X121565Y6403D01*
X121538Y6518D01*
X121532Y6573D01*
X121527Y6638D01*
Y6649D01*
Y6671D01*
X121532Y6709D01*
X121538Y6758D01*
X121549Y6818D01*
X121565Y6878D01*
X121587Y6944D01*
X121614Y7004D01*
X121620Y7009D01*
X121631Y7031D01*
X121652Y7064D01*
X121680Y7102D01*
X121712Y7146D01*
X121756Y7190D01*
X121800Y7233D01*
X121854Y7271D01*
X121860Y7277D01*
X121882Y7288D01*
X121909Y7310D01*
X121953Y7332D01*
X122002Y7353D01*
X122062Y7381D01*
X122122Y7403D01*
X122193Y7424D01*
X122198D01*
X122220Y7430D01*
X122253Y7441D01*
X122297Y7446D01*
X122351Y7457D01*
X122422Y7468D01*
X122504Y7485D01*
X122602Y7495D01*
X122608D01*
X122630Y7501D01*
X122657D01*
X122695Y7506D01*
X122739Y7512D01*
X122793Y7523D01*
X122854Y7528D01*
X122919Y7539D01*
X123050Y7566D01*
X123192Y7594D01*
X123318Y7626D01*
X123378Y7643D01*
X123432Y7659D01*
Y7665D01*
Y7676D01*
X123438Y7708D01*
Y7746D01*
Y7768D01*
Y7779D01*
Y7785D01*
Y7790D01*
Y7823D01*
X123432Y7878D01*
X123421Y7938D01*
X123405Y8003D01*
X123378Y8069D01*
X123345Y8129D01*
X123301Y8178D01*
X123296Y8183D01*
X123268Y8205D01*
X123225Y8227D01*
X123170Y8260D01*
X123094Y8287D01*
X123006Y8314D01*
X122897Y8331D01*
X122772Y8336D01*
X122717D01*
X122662Y8331D01*
X122586Y8320D01*
X122510Y8309D01*
X122428Y8287D01*
X122351Y8260D01*
X122286Y8222D01*
X122280Y8216D01*
X122258Y8200D01*
X122231Y8172D01*
X122198Y8129D01*
X122166Y8074D01*
X122127Y8003D01*
X122095Y7916D01*
X122062Y7818D01*
X121609Y7878D01*
Y7883D01*
X121614Y7888D01*
Y7905D01*
X121620Y7927D01*
X121636Y7976D01*
X121658Y8047D01*
X121685Y8118D01*
X121718Y8194D01*
X121762Y8271D01*
X121811Y8342D01*
X121816Y8347D01*
X121838Y8369D01*
X121871Y8402D01*
X121914Y8445D01*
X121975Y8489D01*
X122045Y8533D01*
X122127Y8582D01*
X122220Y8620D01*
X122226D01*
X122231Y8626D01*
X122248Y8631D01*
X122269Y8636D01*
X122324Y8653D01*
X122400Y8669D01*
X122488Y8686D01*
X122597Y8702D01*
X122712Y8713D01*
X122843Y8718D01*
X122903D01*
X122963Y8713D01*
D02*
G37*
G36*
X120964Y5917D02*
X120500D01*
Y9696D01*
X120964D01*
Y5917D01*
D02*
G37*
G36*
X115100Y8342D02*
X115106Y8347D01*
X115117Y8358D01*
X115133Y8374D01*
X115160Y8402D01*
X115188Y8429D01*
X115226Y8462D01*
X115275Y8495D01*
X115324Y8533D01*
X115379Y8565D01*
X115439Y8598D01*
X115581Y8658D01*
X115657Y8686D01*
X115739Y8702D01*
X115826Y8713D01*
X115914Y8718D01*
X115963D01*
X116023Y8713D01*
X116094Y8702D01*
X116176Y8691D01*
X116263Y8669D01*
X116351Y8636D01*
X116438Y8598D01*
X116449Y8593D01*
X116476Y8576D01*
X116515Y8549D01*
X116564Y8511D01*
X116613Y8462D01*
X116667Y8407D01*
X116717Y8342D01*
X116760Y8265D01*
X116766Y8254D01*
X116777Y8227D01*
X116793Y8178D01*
X116809Y8107D01*
X116826Y8020D01*
X116842Y7916D01*
X116853Y7790D01*
X116858Y7648D01*
Y5917D01*
X116394D01*
Y7654D01*
Y7659D01*
Y7670D01*
Y7687D01*
Y7708D01*
X116389Y7768D01*
X116378Y7845D01*
X116356Y7927D01*
X116329Y8009D01*
X116291Y8090D01*
X116242Y8156D01*
X116236Y8162D01*
X116214Y8183D01*
X116181Y8211D01*
X116132Y8238D01*
X116072Y8271D01*
X116001Y8292D01*
X115914Y8314D01*
X115816Y8320D01*
X115783D01*
X115745Y8314D01*
X115690Y8309D01*
X115635Y8292D01*
X115570Y8276D01*
X115504Y8249D01*
X115433Y8211D01*
X115428Y8205D01*
X115406Y8189D01*
X115373Y8167D01*
X115335Y8134D01*
X115291Y8090D01*
X115248Y8041D01*
X115209Y7981D01*
X115177Y7916D01*
X115171Y7905D01*
X115166Y7883D01*
X115155Y7839D01*
X115138Y7785D01*
X115122Y7714D01*
X115111Y7626D01*
X115106Y7528D01*
X115100Y7413D01*
Y5917D01*
X114636D01*
Y9696D01*
X115100D01*
Y8342D01*
D02*
G37*
G36*
X111284Y5917D02*
X110820D01*
Y8658D01*
X111284D01*
Y5917D01*
D02*
G37*
G36*
X104421Y7250D02*
X104934D01*
Y6824D01*
X104421D01*
Y5917D01*
X103956D01*
Y6824D01*
X102313D01*
Y7250D01*
X104044Y9696D01*
X104421D01*
Y7250D01*
D02*
G37*
G36*
X100877Y9707D02*
X100921Y9701D01*
X100975Y9696D01*
X101035Y9685D01*
X101095Y9674D01*
X101237Y9636D01*
X101379Y9581D01*
X101450Y9548D01*
X101521Y9510D01*
X101587Y9461D01*
X101647Y9406D01*
X101652Y9401D01*
X101663Y9395D01*
X101674Y9374D01*
X101696Y9352D01*
X101723Y9324D01*
X101751Y9286D01*
X101778Y9248D01*
X101811Y9199D01*
X101865Y9095D01*
X101920Y8964D01*
X101942Y8899D01*
X101953Y8822D01*
X101964Y8746D01*
X101969Y8664D01*
Y8653D01*
Y8626D01*
X101964Y8582D01*
X101958Y8522D01*
X101947Y8456D01*
X101925Y8380D01*
X101903Y8298D01*
X101871Y8216D01*
X101865Y8205D01*
X101854Y8178D01*
X101832Y8134D01*
X101800Y8074D01*
X101756Y8009D01*
X101701Y7927D01*
X101636Y7845D01*
X101559Y7752D01*
X101549Y7741D01*
X101521Y7708D01*
X101494Y7681D01*
X101467Y7654D01*
X101434Y7621D01*
X101390Y7577D01*
X101347Y7534D01*
X101292Y7484D01*
X101237Y7430D01*
X101172Y7370D01*
X101101Y7310D01*
X101024Y7239D01*
X100937Y7168D01*
X100850Y7091D01*
X100844Y7086D01*
X100833Y7075D01*
X100812Y7059D01*
X100784Y7037D01*
X100751Y7004D01*
X100713Y6971D01*
X100626Y6900D01*
X100533Y6818D01*
X100446Y6736D01*
X100369Y6665D01*
X100337Y6638D01*
X100309Y6611D01*
X100304Y6605D01*
X100287Y6589D01*
X100266Y6567D01*
X100238Y6534D01*
X100211Y6496D01*
X100178Y6458D01*
X100113Y6365D01*
X101974D01*
Y5917D01*
X99468D01*
Y5923D01*
Y5945D01*
Y5977D01*
X99474Y6021D01*
X99479Y6070D01*
X99490Y6125D01*
X99501Y6179D01*
X99523Y6240D01*
Y6245D01*
X99528Y6250D01*
X99539Y6283D01*
X99561Y6332D01*
X99594Y6398D01*
X99638Y6474D01*
X99692Y6562D01*
X99752Y6649D01*
X99829Y6742D01*
Y6747D01*
X99840Y6753D01*
X99867Y6786D01*
X99916Y6835D01*
X99987Y6906D01*
X100069Y6988D01*
X100173Y7086D01*
X100298Y7195D01*
X100435Y7310D01*
X100440Y7315D01*
X100462Y7332D01*
X100495Y7359D01*
X100533Y7392D01*
X100582Y7435D01*
X100642Y7484D01*
X100702Y7539D01*
X100773Y7599D01*
X100910Y7730D01*
X101046Y7861D01*
X101112Y7927D01*
X101172Y7992D01*
X101226Y8052D01*
X101270Y8112D01*
Y8118D01*
X101281Y8123D01*
X101292Y8140D01*
X101303Y8162D01*
X101341Y8222D01*
X101385Y8292D01*
X101423Y8380D01*
X101461Y8473D01*
X101483Y8576D01*
X101494Y8675D01*
Y8680D01*
Y8686D01*
X101488Y8718D01*
X101483Y8773D01*
X101467Y8833D01*
X101445Y8909D01*
X101407Y8986D01*
X101357Y9062D01*
X101292Y9139D01*
X101281Y9150D01*
X101254Y9172D01*
X101216Y9199D01*
X101155Y9237D01*
X101079Y9270D01*
X100992Y9303D01*
X100888Y9324D01*
X100773Y9330D01*
X100741D01*
X100719Y9324D01*
X100653Y9319D01*
X100577Y9303D01*
X100495Y9281D01*
X100402Y9243D01*
X100315Y9193D01*
X100233Y9128D01*
X100222Y9117D01*
X100200Y9090D01*
X100167Y9046D01*
X100135Y8980D01*
X100096Y8904D01*
X100064Y8806D01*
X100042Y8697D01*
X100031Y8571D01*
X99556Y8620D01*
Y8626D01*
X99561Y8642D01*
Y8669D01*
X99567Y8708D01*
X99577Y8751D01*
X99589Y8800D01*
X99605Y8860D01*
X99621Y8920D01*
X99665Y9052D01*
X99730Y9183D01*
X99769Y9248D01*
X99818Y9313D01*
X99867Y9374D01*
X99922Y9428D01*
X99927Y9434D01*
X99938Y9439D01*
X99954Y9455D01*
X99982Y9472D01*
X100014Y9494D01*
X100053Y9516D01*
X100096Y9543D01*
X100151Y9570D01*
X100211Y9597D01*
X100276Y9625D01*
X100347Y9647D01*
X100424Y9668D01*
X100506Y9685D01*
X100593Y9701D01*
X100686Y9707D01*
X100784Y9712D01*
X100839D01*
X100877Y9707D01*
D02*
G37*
G36*
X95002D02*
X95046Y9701D01*
X95100Y9696D01*
X95160Y9685D01*
X95221Y9674D01*
X95362Y9636D01*
X95504Y9581D01*
X95575Y9548D01*
X95646Y9510D01*
X95712Y9461D01*
X95772Y9406D01*
X95777Y9401D01*
X95788Y9395D01*
X95799Y9374D01*
X95821Y9352D01*
X95848Y9324D01*
X95876Y9286D01*
X95903Y9248D01*
X95936Y9199D01*
X95990Y9095D01*
X96045Y8964D01*
X96067Y8899D01*
X96078Y8822D01*
X96089Y8746D01*
X96094Y8664D01*
Y8653D01*
Y8626D01*
X96089Y8582D01*
X96083Y8522D01*
X96072Y8456D01*
X96050Y8380D01*
X96029Y8298D01*
X95996Y8216D01*
X95990Y8205D01*
X95979Y8178D01*
X95958Y8134D01*
X95925Y8074D01*
X95881Y8009D01*
X95827Y7927D01*
X95761Y7845D01*
X95685Y7752D01*
X95674Y7741D01*
X95646Y7708D01*
X95619Y7681D01*
X95592Y7654D01*
X95559Y7621D01*
X95515Y7577D01*
X95472Y7534D01*
X95417Y7484D01*
X95362Y7430D01*
X95297Y7370D01*
X95226Y7310D01*
X95149Y7239D01*
X95062Y7168D01*
X94975Y7091D01*
X94969Y7086D01*
X94958Y7075D01*
X94937Y7059D01*
X94909Y7037D01*
X94876Y7004D01*
X94838Y6971D01*
X94751Y6900D01*
X94658Y6818D01*
X94571Y6736D01*
X94494Y6665D01*
X94462Y6638D01*
X94434Y6611D01*
X94429Y6605D01*
X94412Y6589D01*
X94390Y6567D01*
X94363Y6534D01*
X94336Y6496D01*
X94303Y6458D01*
X94238Y6365D01*
X96100D01*
Y5917D01*
X93593D01*
Y5923D01*
Y5945D01*
Y5977D01*
X93599Y6021D01*
X93604Y6070D01*
X93615Y6125D01*
X93626Y6179D01*
X93648Y6240D01*
Y6245D01*
X93653Y6250D01*
X93664Y6283D01*
X93686Y6332D01*
X93719Y6398D01*
X93763Y6474D01*
X93817Y6562D01*
X93877Y6649D01*
X93954Y6742D01*
Y6747D01*
X93965Y6753D01*
X93992Y6786D01*
X94041Y6835D01*
X94112Y6906D01*
X94194Y6988D01*
X94298Y7086D01*
X94423Y7195D01*
X94560Y7310D01*
X94565Y7315D01*
X94587Y7332D01*
X94620Y7359D01*
X94658Y7392D01*
X94707Y7435D01*
X94767Y7484D01*
X94827Y7539D01*
X94898Y7599D01*
X95035Y7730D01*
X95171Y7861D01*
X95237Y7927D01*
X95297Y7992D01*
X95351Y8052D01*
X95395Y8112D01*
Y8118D01*
X95406Y8123D01*
X95417Y8140D01*
X95428Y8162D01*
X95466Y8222D01*
X95510Y8292D01*
X95548Y8380D01*
X95586Y8473D01*
X95608Y8576D01*
X95619Y8675D01*
Y8680D01*
Y8686D01*
X95614Y8718D01*
X95608Y8773D01*
X95592Y8833D01*
X95570Y8909D01*
X95532Y8986D01*
X95482Y9062D01*
X95417Y9139D01*
X95406Y9150D01*
X95379Y9172D01*
X95341Y9199D01*
X95280Y9237D01*
X95204Y9270D01*
X95117Y9303D01*
X95013Y9324D01*
X94898Y9330D01*
X94866D01*
X94844Y9324D01*
X94778Y9319D01*
X94702Y9303D01*
X94620Y9281D01*
X94527Y9243D01*
X94440Y9193D01*
X94358Y9128D01*
X94347Y9117D01*
X94325Y9090D01*
X94292Y9046D01*
X94260Y8980D01*
X94221Y8904D01*
X94188Y8806D01*
X94167Y8697D01*
X94156Y8571D01*
X93681Y8620D01*
Y8626D01*
X93686Y8642D01*
Y8669D01*
X93692Y8708D01*
X93703Y8751D01*
X93713Y8800D01*
X93730Y8860D01*
X93746Y8920D01*
X93790Y9052D01*
X93856Y9183D01*
X93894Y9248D01*
X93943Y9313D01*
X93992Y9374D01*
X94047Y9428D01*
X94052Y9434D01*
X94063Y9439D01*
X94079Y9455D01*
X94107Y9472D01*
X94139Y9494D01*
X94178Y9516D01*
X94221Y9543D01*
X94276Y9570D01*
X94336Y9597D01*
X94402Y9625D01*
X94472Y9647D01*
X94549Y9668D01*
X94631Y9685D01*
X94718Y9701D01*
X94811Y9707D01*
X94909Y9712D01*
X94964D01*
X95002Y9707D01*
D02*
G37*
G36*
X152261Y8713D02*
X152305Y8708D01*
X152359Y8697D01*
X152419Y8686D01*
X152490Y8669D01*
X152556Y8653D01*
X152632Y8626D01*
X152703Y8598D01*
X152780Y8560D01*
X152856Y8516D01*
X152933Y8467D01*
X153004Y8407D01*
X153069Y8342D01*
X153075Y8336D01*
X153085Y8325D01*
X153102Y8303D01*
X153124Y8271D01*
X153151Y8232D01*
X153178Y8189D01*
X153211Y8134D01*
X153244Y8069D01*
X153277Y7998D01*
X153309Y7921D01*
X153337Y7834D01*
X153364Y7741D01*
X153386Y7637D01*
X153402Y7528D01*
X153413Y7413D01*
X153419Y7288D01*
Y7282D01*
Y7261D01*
Y7222D01*
X153413Y7168D01*
X151366D01*
Y7162D01*
Y7146D01*
X151371Y7124D01*
Y7091D01*
X151377Y7053D01*
X151388Y7009D01*
X151404Y6911D01*
X151437Y6802D01*
X151480Y6682D01*
X151540Y6573D01*
X151617Y6474D01*
X151622D01*
X151628Y6463D01*
X151661Y6436D01*
X151710Y6398D01*
X151775Y6360D01*
X151863Y6316D01*
X151961Y6278D01*
X152070Y6250D01*
X152130Y6245D01*
X152196Y6240D01*
X152239D01*
X152288Y6245D01*
X152348Y6256D01*
X152414Y6272D01*
X152490Y6294D01*
X152561Y6327D01*
X152632Y6371D01*
X152638Y6376D01*
X152665Y6398D01*
X152698Y6431D01*
X152736Y6474D01*
X152780Y6534D01*
X152829Y6611D01*
X152878Y6698D01*
X152922Y6802D01*
X153402Y6742D01*
Y6736D01*
X153397Y6725D01*
X153391Y6704D01*
X153380Y6671D01*
X153364Y6638D01*
X153348Y6594D01*
X153304Y6502D01*
X153249Y6398D01*
X153173Y6289D01*
X153085Y6185D01*
X152976Y6087D01*
X152971D01*
X152960Y6076D01*
X152944Y6065D01*
X152922Y6049D01*
X152889Y6032D01*
X152856Y6016D01*
X152813Y5994D01*
X152763Y5972D01*
X152709Y5950D01*
X152654Y5928D01*
X152518Y5896D01*
X152365Y5868D01*
X152196Y5857D01*
X152136D01*
X152097Y5863D01*
X152048Y5868D01*
X151988Y5879D01*
X151923Y5890D01*
X151852Y5901D01*
X151699Y5945D01*
X151617Y5977D01*
X151540Y6010D01*
X151459Y6054D01*
X151382Y6103D01*
X151311Y6158D01*
X151240Y6223D01*
X151235Y6229D01*
X151224Y6240D01*
X151207Y6261D01*
X151186Y6294D01*
X151158Y6332D01*
X151131Y6376D01*
X151098Y6431D01*
X151065Y6491D01*
X151033Y6562D01*
X151000Y6638D01*
X150972Y6725D01*
X150945Y6818D01*
X150923Y6917D01*
X150907Y7026D01*
X150896Y7141D01*
X150891Y7261D01*
Y7266D01*
Y7293D01*
Y7326D01*
X150896Y7375D01*
X150901Y7435D01*
X150907Y7501D01*
X150918Y7577D01*
X150934Y7654D01*
X150978Y7828D01*
X151005Y7916D01*
X151038Y8009D01*
X151082Y8096D01*
X151131Y8178D01*
X151186Y8260D01*
X151245Y8336D01*
X151251Y8342D01*
X151262Y8353D01*
X151284Y8369D01*
X151311Y8396D01*
X151344Y8424D01*
X151388Y8456D01*
X151437Y8495D01*
X151497Y8527D01*
X151557Y8565D01*
X151628Y8598D01*
X151704Y8631D01*
X151786Y8658D01*
X151873Y8686D01*
X151966Y8702D01*
X152065Y8713D01*
X152168Y8718D01*
X152223D01*
X152261Y8713D01*
D02*
G37*
G36*
X143744D02*
X143787Y8708D01*
X143842Y8697D01*
X143902Y8686D01*
X143973Y8669D01*
X144038Y8653D01*
X144115Y8626D01*
X144186Y8598D01*
X144262Y8560D01*
X144339Y8516D01*
X144415Y8467D01*
X144486Y8407D01*
X144552Y8342D01*
X144557Y8336D01*
X144568Y8325D01*
X144584Y8303D01*
X144606Y8271D01*
X144633Y8232D01*
X144661Y8189D01*
X144694Y8134D01*
X144726Y8069D01*
X144759Y7998D01*
X144792Y7921D01*
X144819Y7834D01*
X144846Y7741D01*
X144868Y7637D01*
X144885Y7528D01*
X144896Y7413D01*
X144901Y7288D01*
Y7282D01*
Y7261D01*
Y7222D01*
X144896Y7168D01*
X142848D01*
Y7162D01*
Y7146D01*
X142853Y7124D01*
Y7091D01*
X142859Y7053D01*
X142870Y7009D01*
X142886Y6911D01*
X142919Y6802D01*
X142963Y6682D01*
X143023Y6573D01*
X143099Y6474D01*
X143105D01*
X143110Y6463D01*
X143143Y6436D01*
X143192Y6398D01*
X143257Y6360D01*
X143345Y6316D01*
X143443Y6278D01*
X143552Y6250D01*
X143612Y6245D01*
X143678Y6240D01*
X143722D01*
X143771Y6245D01*
X143831Y6256D01*
X143896Y6272D01*
X143973Y6294D01*
X144044Y6327D01*
X144115Y6371D01*
X144120Y6376D01*
X144148Y6398D01*
X144180Y6431D01*
X144219Y6474D01*
X144262Y6534D01*
X144311Y6611D01*
X144360Y6698D01*
X144404Y6802D01*
X144885Y6742D01*
Y6736D01*
X144879Y6725D01*
X144874Y6704D01*
X144863Y6671D01*
X144846Y6638D01*
X144830Y6594D01*
X144786Y6502D01*
X144732Y6398D01*
X144655Y6289D01*
X144568Y6185D01*
X144459Y6087D01*
X144453D01*
X144442Y6076D01*
X144426Y6065D01*
X144404Y6049D01*
X144371Y6032D01*
X144339Y6016D01*
X144295Y5994D01*
X144246Y5972D01*
X144191Y5950D01*
X144137Y5928D01*
X144000Y5896D01*
X143847Y5868D01*
X143678Y5857D01*
X143618D01*
X143580Y5863D01*
X143530Y5868D01*
X143471Y5879D01*
X143405Y5890D01*
X143334Y5901D01*
X143181Y5945D01*
X143099Y5977D01*
X143023Y6010D01*
X142941Y6054D01*
X142864Y6103D01*
X142793Y6158D01*
X142722Y6223D01*
X142717Y6229D01*
X142706Y6240D01*
X142690Y6261D01*
X142668Y6294D01*
X142641Y6332D01*
X142613Y6376D01*
X142580Y6431D01*
X142548Y6491D01*
X142515Y6562D01*
X142482Y6638D01*
X142455Y6725D01*
X142428Y6818D01*
X142406Y6917D01*
X142389Y7026D01*
X142378Y7141D01*
X142373Y7261D01*
Y7266D01*
Y7293D01*
Y7326D01*
X142378Y7375D01*
X142384Y7435D01*
X142389Y7501D01*
X142400Y7577D01*
X142417Y7654D01*
X142460Y7828D01*
X142488Y7916D01*
X142520Y8009D01*
X142564Y8096D01*
X142613Y8178D01*
X142668Y8260D01*
X142728Y8336D01*
X142733Y8342D01*
X142744Y8353D01*
X142766Y8369D01*
X142793Y8396D01*
X142826Y8424D01*
X142870Y8456D01*
X142919Y8495D01*
X142979Y8527D01*
X143039Y8565D01*
X143110Y8598D01*
X143187Y8631D01*
X143269Y8658D01*
X143356Y8686D01*
X143449Y8702D01*
X143547Y8713D01*
X143651Y8718D01*
X143705D01*
X143744Y8713D01*
D02*
G37*
G36*
X139037D02*
X139086Y8708D01*
X139141Y8697D01*
X139201Y8686D01*
X139272Y8675D01*
X139419Y8626D01*
X139496Y8598D01*
X139572Y8560D01*
X139648Y8522D01*
X139725Y8467D01*
X139796Y8413D01*
X139867Y8347D01*
X139872Y8342D01*
X139883Y8331D01*
X139900Y8309D01*
X139921Y8282D01*
X139949Y8243D01*
X139981Y8194D01*
X140014Y8140D01*
X140047Y8080D01*
X140080Y8014D01*
X140113Y7932D01*
X140145Y7850D01*
X140173Y7757D01*
X140194Y7659D01*
X140211Y7555D01*
X140222Y7446D01*
X140227Y7326D01*
Y7321D01*
Y7304D01*
Y7277D01*
Y7239D01*
X140222Y7195D01*
X140216Y7141D01*
Y7086D01*
X140205Y7026D01*
X140189Y6889D01*
X140156Y6753D01*
X140118Y6616D01*
X140063Y6491D01*
Y6485D01*
X140058Y6480D01*
X140047Y6463D01*
X140036Y6442D01*
X139998Y6387D01*
X139949Y6322D01*
X139883Y6245D01*
X139801Y6169D01*
X139708Y6092D01*
X139599Y6021D01*
X139594D01*
X139588Y6016D01*
X139572Y6005D01*
X139545Y5994D01*
X139517Y5983D01*
X139485Y5972D01*
X139403Y5939D01*
X139310Y5912D01*
X139195Y5885D01*
X139075Y5863D01*
X138944Y5857D01*
X138890D01*
X138846Y5863D01*
X138797Y5868D01*
X138742Y5879D01*
X138677Y5890D01*
X138611Y5901D01*
X138464Y5945D01*
X138382Y5977D01*
X138305Y6010D01*
X138229Y6054D01*
X138152Y6103D01*
X138082Y6158D01*
X138011Y6223D01*
X138005Y6229D01*
X137994Y6240D01*
X137978Y6261D01*
X137956Y6294D01*
X137929Y6332D01*
X137901Y6376D01*
X137868Y6431D01*
X137836Y6496D01*
X137803Y6567D01*
X137770Y6649D01*
X137743Y6736D01*
X137716Y6829D01*
X137694Y6933D01*
X137677Y7042D01*
X137666Y7162D01*
X137661Y7288D01*
Y7299D01*
Y7321D01*
X137666Y7359D01*
Y7413D01*
X137672Y7474D01*
X137683Y7550D01*
X137694Y7626D01*
X137716Y7714D01*
X137738Y7801D01*
X137765Y7894D01*
X137797Y7992D01*
X137841Y8085D01*
X137885Y8172D01*
X137945Y8260D01*
X138005Y8342D01*
X138082Y8413D01*
X138087Y8418D01*
X138098Y8424D01*
X138120Y8440D01*
X138147Y8462D01*
X138180Y8484D01*
X138223Y8511D01*
X138267Y8538D01*
X138322Y8565D01*
X138382Y8593D01*
X138447Y8620D01*
X138595Y8669D01*
X138764Y8708D01*
X138851Y8713D01*
X138944Y8718D01*
X138999D01*
X139037Y8713D01*
D02*
G37*
G36*
X118775D02*
X118824Y8708D01*
X118879Y8697D01*
X118939Y8686D01*
X119010Y8675D01*
X119157Y8626D01*
X119234Y8598D01*
X119310Y8560D01*
X119386Y8522D01*
X119463Y8467D01*
X119534Y8413D01*
X119605Y8347D01*
X119610Y8342D01*
X119621Y8331D01*
X119638Y8309D01*
X119659Y8282D01*
X119687Y8243D01*
X119720Y8194D01*
X119752Y8140D01*
X119785Y8080D01*
X119818Y8014D01*
X119851Y7932D01*
X119883Y7850D01*
X119911Y7757D01*
X119932Y7659D01*
X119949Y7555D01*
X119960Y7446D01*
X119965Y7326D01*
Y7321D01*
Y7304D01*
Y7277D01*
Y7239D01*
X119960Y7195D01*
X119954Y7141D01*
Y7086D01*
X119943Y7026D01*
X119927Y6889D01*
X119894Y6753D01*
X119856Y6616D01*
X119801Y6491D01*
Y6485D01*
X119796Y6480D01*
X119785Y6463D01*
X119774Y6442D01*
X119736Y6387D01*
X119687Y6322D01*
X119621Y6245D01*
X119539Y6169D01*
X119447Y6092D01*
X119337Y6021D01*
X119332D01*
X119326Y6016D01*
X119310Y6005D01*
X119283Y5994D01*
X119255Y5983D01*
X119223Y5972D01*
X119141Y5939D01*
X119048Y5912D01*
X118933Y5885D01*
X118813Y5863D01*
X118682Y5857D01*
X118628D01*
X118584Y5863D01*
X118535Y5868D01*
X118480Y5879D01*
X118414Y5890D01*
X118349Y5901D01*
X118202Y5945D01*
X118120Y5977D01*
X118043Y6010D01*
X117967Y6054D01*
X117890Y6103D01*
X117819Y6158D01*
X117748Y6223D01*
X117743Y6229D01*
X117732Y6240D01*
X117716Y6261D01*
X117694Y6294D01*
X117666Y6332D01*
X117639Y6376D01*
X117606Y6431D01*
X117574Y6496D01*
X117541Y6567D01*
X117508Y6649D01*
X117481Y6736D01*
X117454Y6829D01*
X117432Y6933D01*
X117415Y7042D01*
X117404Y7162D01*
X117399Y7288D01*
Y7299D01*
Y7321D01*
X117404Y7359D01*
Y7413D01*
X117410Y7474D01*
X117421Y7550D01*
X117432Y7626D01*
X117454Y7714D01*
X117475Y7801D01*
X117503Y7894D01*
X117535Y7992D01*
X117579Y8085D01*
X117623Y8172D01*
X117683Y8260D01*
X117743Y8342D01*
X117819Y8413D01*
X117825Y8418D01*
X117836Y8424D01*
X117858Y8440D01*
X117885Y8462D01*
X117918Y8484D01*
X117961Y8511D01*
X118005Y8538D01*
X118060Y8565D01*
X118120Y8593D01*
X118185Y8620D01*
X118333Y8669D01*
X118502Y8708D01*
X118589Y8713D01*
X118682Y8718D01*
X118737D01*
X118775Y8713D01*
D02*
G37*
G36*
X97939Y9707D02*
X98010Y9696D01*
X98092Y9679D01*
X98180Y9657D01*
X98273Y9630D01*
X98360Y9586D01*
X98365D01*
X98371Y9581D01*
X98398Y9565D01*
X98442Y9537D01*
X98497Y9499D01*
X98557Y9445D01*
X98622Y9385D01*
X98682Y9313D01*
X98742Y9232D01*
X98748Y9221D01*
X98769Y9193D01*
X98791Y9144D01*
X98830Y9073D01*
X98862Y8991D01*
X98906Y8899D01*
X98944Y8789D01*
X98977Y8669D01*
Y8664D01*
X98982Y8653D01*
X98988Y8636D01*
X98993Y8609D01*
X98999Y8576D01*
X99004Y8538D01*
X99015Y8489D01*
X99021Y8434D01*
X99032Y8374D01*
X99037Y8309D01*
X99042Y8232D01*
X99053Y8156D01*
X99059Y8069D01*
Y7981D01*
X99064Y7883D01*
Y7779D01*
Y7774D01*
Y7752D01*
Y7714D01*
Y7670D01*
X99059Y7610D01*
Y7544D01*
X99053Y7474D01*
X99048Y7397D01*
X99032Y7222D01*
X99004Y7042D01*
X98971Y6867D01*
X98950Y6786D01*
X98922Y6704D01*
Y6698D01*
X98917Y6687D01*
X98906Y6665D01*
X98895Y6638D01*
X98884Y6600D01*
X98862Y6562D01*
X98819Y6469D01*
X98764Y6371D01*
X98693Y6261D01*
X98611Y6163D01*
X98513Y6070D01*
X98507D01*
X98502Y6059D01*
X98485Y6049D01*
X98464Y6038D01*
X98436Y6021D01*
X98409Y5999D01*
X98327Y5961D01*
X98229Y5923D01*
X98114Y5885D01*
X97978Y5863D01*
X97830Y5852D01*
X97776D01*
X97737Y5857D01*
X97694Y5863D01*
X97639Y5874D01*
X97579Y5885D01*
X97514Y5901D01*
X97448Y5923D01*
X97377Y5945D01*
X97306Y5977D01*
X97235Y6016D01*
X97164Y6059D01*
X97093Y6114D01*
X97028Y6174D01*
X96968Y6240D01*
X96962Y6245D01*
X96951Y6261D01*
X96935Y6289D01*
X96908Y6332D01*
X96880Y6381D01*
X96853Y6447D01*
X96815Y6523D01*
X96782Y6611D01*
X96749Y6709D01*
X96716Y6824D01*
X96684Y6949D01*
X96656Y7091D01*
X96629Y7244D01*
X96613Y7408D01*
X96602Y7588D01*
X96596Y7779D01*
Y7785D01*
Y7807D01*
Y7845D01*
Y7888D01*
X96602Y7949D01*
Y8014D01*
X96607Y8085D01*
X96613Y8167D01*
X96629Y8336D01*
X96656Y8516D01*
X96689Y8697D01*
X96711Y8778D01*
X96733Y8860D01*
Y8866D01*
X96738Y8877D01*
X96749Y8899D01*
X96760Y8926D01*
X96771Y8964D01*
X96793Y9002D01*
X96837Y9095D01*
X96891Y9193D01*
X96962Y9297D01*
X97044Y9401D01*
X97142Y9488D01*
X97148D01*
X97153Y9499D01*
X97170Y9510D01*
X97192Y9521D01*
X97219Y9543D01*
X97252Y9559D01*
X97334Y9603D01*
X97432Y9641D01*
X97546Y9679D01*
X97683Y9701D01*
X97830Y9712D01*
X97879D01*
X97939Y9707D01*
D02*
G37*
G36*
X92343Y5852D02*
X91972D01*
X93069Y9761D01*
X93441D01*
X92343Y5852D01*
D02*
G37*
G36*
X90563Y9707D02*
X90607Y9701D01*
X90656Y9696D01*
X90711Y9690D01*
X90765Y9674D01*
X90896Y9641D01*
X91027Y9592D01*
X91093Y9559D01*
X91158Y9521D01*
X91218Y9472D01*
X91278Y9423D01*
X91284Y9417D01*
X91289Y9412D01*
X91306Y9395D01*
X91328Y9374D01*
X91349Y9341D01*
X91377Y9308D01*
X91431Y9226D01*
X91486Y9122D01*
X91535Y9002D01*
X91573Y8866D01*
X91579Y8795D01*
X91584Y8718D01*
Y8713D01*
Y8708D01*
Y8675D01*
X91579Y8626D01*
X91568Y8565D01*
X91551Y8489D01*
X91524Y8413D01*
X91491Y8336D01*
X91442Y8260D01*
X91437Y8249D01*
X91415Y8227D01*
X91382Y8194D01*
X91338Y8151D01*
X91278Y8101D01*
X91207Y8052D01*
X91126Y8003D01*
X91027Y7959D01*
X91033D01*
X91044Y7954D01*
X91060Y7949D01*
X91082Y7938D01*
X91147Y7910D01*
X91224Y7872D01*
X91306Y7818D01*
X91393Y7757D01*
X91475Y7681D01*
X91551Y7594D01*
Y7588D01*
X91557Y7583D01*
X91579Y7550D01*
X91611Y7495D01*
X91644Y7424D01*
X91677Y7337D01*
X91710Y7233D01*
X91732Y7119D01*
X91737Y6993D01*
Y6988D01*
Y6971D01*
Y6944D01*
X91732Y6911D01*
X91726Y6873D01*
X91721Y6824D01*
X91710Y6769D01*
X91693Y6709D01*
X91655Y6583D01*
X91628Y6513D01*
X91590Y6447D01*
X91551Y6376D01*
X91508Y6311D01*
X91453Y6245D01*
X91393Y6179D01*
X91387Y6174D01*
X91377Y6163D01*
X91360Y6147D01*
X91333Y6130D01*
X91295Y6103D01*
X91256Y6076D01*
X91207Y6049D01*
X91153Y6016D01*
X91093Y5983D01*
X91022Y5956D01*
X90945Y5928D01*
X90869Y5901D01*
X90781Y5885D01*
X90689Y5868D01*
X90596Y5857D01*
X90492Y5852D01*
X90438D01*
X90399Y5857D01*
X90350Y5863D01*
X90295Y5868D01*
X90236Y5879D01*
X90170Y5896D01*
X90022Y5934D01*
X89946Y5961D01*
X89875Y5988D01*
X89799Y6027D01*
X89722Y6070D01*
X89651Y6119D01*
X89586Y6179D01*
X89580Y6185D01*
X89569Y6196D01*
X89553Y6212D01*
X89531Y6240D01*
X89509Y6272D01*
X89477Y6311D01*
X89449Y6354D01*
X89416Y6409D01*
X89384Y6463D01*
X89356Y6529D01*
X89302Y6665D01*
X89280Y6747D01*
X89264Y6829D01*
X89253Y6917D01*
X89247Y7004D01*
Y7009D01*
Y7020D01*
Y7042D01*
X89253Y7064D01*
Y7097D01*
X89258Y7135D01*
X89269Y7222D01*
X89291Y7321D01*
X89324Y7419D01*
X89373Y7523D01*
X89433Y7621D01*
Y7626D01*
X89444Y7632D01*
X89466Y7659D01*
X89509Y7703D01*
X89569Y7757D01*
X89646Y7812D01*
X89739Y7872D01*
X89842Y7921D01*
X89968Y7959D01*
X89963D01*
X89957Y7965D01*
X89941Y7970D01*
X89919Y7981D01*
X89870Y8003D01*
X89804Y8036D01*
X89733Y8080D01*
X89662Y8134D01*
X89597Y8194D01*
X89537Y8260D01*
X89531Y8271D01*
X89515Y8292D01*
X89493Y8336D01*
X89471Y8391D01*
X89444Y8462D01*
X89422Y8544D01*
X89406Y8636D01*
X89400Y8735D01*
Y8740D01*
Y8751D01*
Y8773D01*
X89406Y8806D01*
X89411Y8839D01*
X89416Y8882D01*
X89438Y8975D01*
X89471Y9084D01*
X89526Y9199D01*
X89558Y9259D01*
X89597Y9319D01*
X89646Y9374D01*
X89695Y9428D01*
X89700Y9434D01*
X89711Y9439D01*
X89728Y9455D01*
X89749Y9472D01*
X89777Y9494D01*
X89815Y9516D01*
X89859Y9543D01*
X89902Y9570D01*
X89957Y9597D01*
X90017Y9625D01*
X90083Y9647D01*
X90154Y9668D01*
X90307Y9701D01*
X90394Y9707D01*
X90481Y9712D01*
X90530D01*
X90563Y9707D01*
D02*
G37*
G36*
X87937Y5852D02*
X87565D01*
X88663Y9761D01*
X89034D01*
X87937Y5852D01*
D02*
G37*
G36*
X112294Y55189D02*
X111829D01*
Y58143D01*
X111824Y58138D01*
X111797Y58116D01*
X111764Y58083D01*
X111709Y58045D01*
X111649Y57996D01*
X111573Y57941D01*
X111486Y57881D01*
X111387Y57821D01*
X111382D01*
X111376Y57815D01*
X111344Y57794D01*
X111289Y57766D01*
X111223Y57734D01*
X111147Y57695D01*
X111065Y57657D01*
X110983Y57619D01*
X110901Y57586D01*
Y58034D01*
X110907D01*
X110918Y58045D01*
X110940Y58050D01*
X110967Y58067D01*
X111000Y58083D01*
X111038Y58105D01*
X111131Y58160D01*
X111240Y58220D01*
X111349Y58296D01*
X111464Y58383D01*
X111578Y58476D01*
X111584Y58482D01*
X111589Y58487D01*
X111606Y58504D01*
X111627Y58520D01*
X111677Y58574D01*
X111742Y58640D01*
X111808Y58716D01*
X111879Y58804D01*
X111939Y58891D01*
X111993Y58984D01*
X112294D01*
Y55189D01*
D02*
G37*
G36*
X110334D02*
X109766D01*
X109323Y56336D01*
X107740D01*
X107331Y55189D01*
X106801D01*
X108242Y58968D01*
X108788D01*
X110334Y55189D01*
D02*
G37*
%LPC*%
G36*
X4556Y64819D02*
X3475D01*
Y63471D01*
X4491D01*
X4529Y63476D01*
X4567D01*
X4611Y63481D01*
X4715Y63492D01*
X4829Y63514D01*
X4944Y63547D01*
X5048Y63591D01*
X5097Y63618D01*
X5135Y63651D01*
X5146Y63662D01*
X5168Y63683D01*
X5201Y63727D01*
X5239Y63782D01*
X5277Y63853D01*
X5310Y63940D01*
X5332Y64038D01*
X5342Y64153D01*
Y64158D01*
Y64164D01*
Y64191D01*
X5337Y64240D01*
X5326Y64295D01*
X5315Y64355D01*
X5293Y64426D01*
X5261Y64491D01*
X5222Y64557D01*
X5217Y64562D01*
X5201Y64584D01*
X5173Y64612D01*
X5141Y64650D01*
X5091Y64688D01*
X5037Y64721D01*
X4977Y64754D01*
X4906Y64781D01*
X4900D01*
X4879Y64786D01*
X4846Y64792D01*
X4802Y64803D01*
X4736Y64808D01*
X4655Y64814D01*
X4556Y64819D01*
D02*
G37*
G36*
X155847Y15008D02*
X155832D01*
X155789Y15001D01*
X155723Y14994D01*
X155650Y14972D01*
X155555Y14943D01*
X155460Y14892D01*
X155366Y14826D01*
X155271Y14731D01*
X155264Y14717D01*
X155234Y14680D01*
X155198Y14615D01*
X155161Y14527D01*
X155118Y14411D01*
X155081Y14272D01*
X155052Y14104D01*
X155045Y13915D01*
Y13908D01*
Y13893D01*
Y13857D01*
Y13820D01*
X155052Y13769D01*
Y13718D01*
X155067Y13594D01*
X155081Y13456D01*
X155111Y13310D01*
X155154Y13179D01*
X155176Y13120D01*
X155205Y13069D01*
Y13062D01*
X155220Y13055D01*
X155249Y13011D01*
X155300Y12953D01*
X155373Y12887D01*
X155468Y12814D01*
X155577Y12756D01*
X155708Y12712D01*
X155781Y12705D01*
X155854Y12697D01*
X155869D01*
X155912Y12705D01*
X155971Y12712D01*
X156051Y12734D01*
X156138Y12763D01*
X156233Y12814D01*
X156328Y12880D01*
X156423Y12975D01*
X156430Y12989D01*
X156459Y13025D01*
X156496Y13091D01*
X156539Y13186D01*
X156583Y13303D01*
X156620Y13448D01*
X156649Y13623D01*
X156656Y13820D01*
Y13827D01*
Y13849D01*
Y13878D01*
Y13922D01*
X156649Y13973D01*
X156641Y14039D01*
X156627Y14170D01*
X156598Y14323D01*
X156561Y14469D01*
X156503Y14615D01*
X156466Y14673D01*
X156423Y14731D01*
X156415Y14746D01*
X156379Y14775D01*
X156335Y14819D01*
X156270Y14870D01*
X156182Y14921D01*
X156087Y14965D01*
X155971Y14994D01*
X155847Y15008D01*
D02*
G37*
G36*
X149621Y13762D02*
X149614D01*
X149585Y13747D01*
X149541Y13740D01*
X149475Y13718D01*
X149395Y13696D01*
X149286Y13667D01*
X149169Y13638D01*
X149023Y13609D01*
X149009D01*
X148987Y13601D01*
X148958Y13594D01*
X148892Y13580D01*
X148805Y13558D01*
X148717Y13536D01*
X148630Y13507D01*
X148557Y13470D01*
X148498Y13441D01*
X148491Y13434D01*
X148469Y13419D01*
X148440Y13390D01*
X148411Y13354D01*
X148374Y13303D01*
X148345Y13244D01*
X148324Y13179D01*
X148316Y13106D01*
Y13098D01*
Y13069D01*
X148324Y13033D01*
X148338Y12989D01*
X148353Y12931D01*
X148374Y12872D01*
X148411Y12814D01*
X148462Y12756D01*
X148469Y12749D01*
X148491Y12734D01*
X148520Y12712D01*
X148571Y12683D01*
X148622Y12654D01*
X148688Y12632D01*
X148768Y12617D01*
X148848Y12610D01*
X148892D01*
X148943Y12617D01*
X149009Y12632D01*
X149089Y12654D01*
X149169Y12683D01*
X149264Y12719D01*
X149351Y12778D01*
X149359Y12785D01*
X149381Y12799D01*
X149410Y12829D01*
X149446Y12865D01*
X149483Y12916D01*
X149519Y12967D01*
X149556Y13033D01*
X149577Y13098D01*
Y13106D01*
X149585Y13120D01*
X149592Y13157D01*
X149599Y13201D01*
X149607Y13266D01*
X149614Y13346D01*
X149621Y13448D01*
Y13565D01*
Y13762D01*
D02*
G37*
G36*
X140253Y16218D02*
X139240D01*
Y15052D01*
X140217D01*
X140341Y15059D01*
X140567D01*
X140611Y15067D01*
X140654D01*
X140684Y15074D01*
X140727Y15081D01*
X140793Y15103D01*
X140858Y15125D01*
X140924Y15154D01*
X140990Y15191D01*
X141048Y15242D01*
X141055Y15249D01*
X141070Y15271D01*
X141099Y15300D01*
X141128Y15351D01*
X141150Y15409D01*
X141179Y15475D01*
X141194Y15555D01*
X141201Y15643D01*
Y15650D01*
Y15679D01*
X141194Y15723D01*
X141187Y15781D01*
X141172Y15839D01*
X141143Y15898D01*
X141114Y15963D01*
X141070Y16022D01*
X141063Y16029D01*
X141048Y16044D01*
X141012Y16073D01*
X140975Y16102D01*
X140917Y16131D01*
X140851Y16160D01*
X140771Y16182D01*
X140684Y16197D01*
X140676D01*
X140647Y16204D01*
X140567D01*
X140523Y16211D01*
X140334D01*
X140253Y16218D01*
D02*
G37*
G36*
X140297Y14214D02*
X139240D01*
Y12865D01*
X140363D01*
X140472Y12872D01*
X140589D01*
X140705Y12880D01*
X140800Y12887D01*
X140844D01*
X140873Y12894D01*
X140880D01*
X140910Y12902D01*
X140953Y12916D01*
X141004Y12931D01*
X141063Y12960D01*
X141128Y12996D01*
X141187Y13040D01*
X141245Y13091D01*
X141252Y13098D01*
X141267Y13120D01*
X141289Y13157D01*
X141318Y13208D01*
X141347Y13266D01*
X141369Y13339D01*
X141383Y13427D01*
X141391Y13521D01*
Y13529D01*
Y13558D01*
X141383Y13601D01*
X141376Y13652D01*
X141362Y13718D01*
X141340Y13776D01*
X141311Y13842D01*
X141274Y13908D01*
X141267Y13915D01*
X141252Y13937D01*
X141230Y13966D01*
X141194Y13995D01*
X141150Y14039D01*
X141092Y14075D01*
X141026Y14112D01*
X140953Y14141D01*
X140946D01*
X140910Y14155D01*
X140851Y14163D01*
X140815Y14170D01*
X140764Y14177D01*
X140713Y14185D01*
X140647Y14192D01*
X140574Y14199D01*
X140487D01*
X140399Y14207D01*
X140297Y14214D01*
D02*
G37*
G36*
X134341Y13762D02*
X134334D01*
X134305Y13747D01*
X134261Y13740D01*
X134195Y13718D01*
X134115Y13696D01*
X134006Y13667D01*
X133889Y13638D01*
X133744Y13609D01*
X133729D01*
X133707Y13601D01*
X133678Y13594D01*
X133612Y13580D01*
X133525Y13558D01*
X133437Y13536D01*
X133350Y13507D01*
X133277Y13470D01*
X133219Y13441D01*
X133211Y13434D01*
X133189Y13419D01*
X133160Y13390D01*
X133131Y13354D01*
X133095Y13303D01*
X133065Y13244D01*
X133044Y13179D01*
X133036Y13106D01*
Y13098D01*
Y13069D01*
X133044Y13033D01*
X133058Y12989D01*
X133073Y12931D01*
X133095Y12872D01*
X133131Y12814D01*
X133182Y12756D01*
X133189Y12749D01*
X133211Y12734D01*
X133240Y12712D01*
X133291Y12683D01*
X133343Y12654D01*
X133408Y12632D01*
X133488Y12617D01*
X133569Y12610D01*
X133612D01*
X133663Y12617D01*
X133729Y12632D01*
X133809Y12654D01*
X133889Y12683D01*
X133984Y12719D01*
X134072Y12778D01*
X134079Y12785D01*
X134101Y12799D01*
X134130Y12829D01*
X134166Y12865D01*
X134203Y12916D01*
X134239Y12967D01*
X134276Y13033D01*
X134298Y13098D01*
Y13106D01*
X134305Y13120D01*
X134312Y13157D01*
X134319Y13201D01*
X134327Y13266D01*
X134334Y13346D01*
X134341Y13448D01*
Y13565D01*
Y13762D01*
D02*
G37*
G36*
X110022Y15883D02*
X109337Y14010D01*
X110729D01*
X110022Y15883D01*
D02*
G37*
G36*
X103191Y16204D02*
X102025D01*
Y14921D01*
X103016D01*
X103162Y14928D01*
X103315Y14935D01*
X103468Y14943D01*
X103534Y14950D01*
X103592Y14957D01*
X103650Y14972D01*
X103687Y14979D01*
X103694D01*
X103716Y14994D01*
X103752Y15008D01*
X103789Y15030D01*
X103884Y15096D01*
X103927Y15140D01*
X103971Y15191D01*
X103978Y15198D01*
X103986Y15220D01*
X104008Y15249D01*
X104030Y15293D01*
X104044Y15351D01*
X104066Y15417D01*
X104073Y15489D01*
X104080Y15570D01*
Y15584D01*
Y15613D01*
X104073Y15657D01*
X104066Y15716D01*
X104044Y15781D01*
X104022Y15847D01*
X103986Y15920D01*
X103942Y15978D01*
X103935Y15985D01*
X103920Y16007D01*
X103884Y16029D01*
X103840Y16065D01*
X103789Y16102D01*
X103723Y16131D01*
X103643Y16160D01*
X103556Y16182D01*
X103548D01*
X103526Y16189D01*
X103483D01*
X103417Y16197D01*
X103257D01*
X103191Y16204D01*
D02*
G37*
G36*
X91724D02*
X91061D01*
Y12865D01*
X91957D01*
X92052Y12872D01*
X92154D01*
X92256Y12887D01*
X92351Y12894D01*
X92431Y12909D01*
X92446D01*
X92475Y12923D01*
X92519Y12938D01*
X92577Y12960D01*
X92642Y12989D01*
X92708Y13025D01*
X92774Y13069D01*
X92839Y13120D01*
X92847Y13128D01*
X92869Y13149D01*
X92898Y13186D01*
X92934Y13237D01*
X92971Y13303D01*
X93022Y13383D01*
X93058Y13485D01*
X93102Y13601D01*
Y13609D01*
X93109Y13616D01*
Y13638D01*
X93116Y13667D01*
X93131Y13696D01*
X93138Y13740D01*
X93160Y13849D01*
X93175Y13981D01*
X93196Y14134D01*
X93204Y14323D01*
X93211Y14527D01*
Y14535D01*
Y14556D01*
Y14586D01*
Y14622D01*
Y14673D01*
X93204Y14731D01*
X93196Y14855D01*
X93182Y15001D01*
X93167Y15154D01*
X93138Y15293D01*
X93102Y15424D01*
Y15431D01*
X93094Y15439D01*
X93080Y15475D01*
X93058Y15533D01*
X93029Y15606D01*
X92985Y15679D01*
X92934Y15759D01*
X92876Y15839D01*
X92810Y15912D01*
X92803Y15920D01*
X92781Y15942D01*
X92737Y15971D01*
X92686Y16007D01*
X92613Y16051D01*
X92533Y16087D01*
X92446Y16124D01*
X92344Y16153D01*
X92336D01*
X92300Y16160D01*
X92242Y16168D01*
X92161Y16182D01*
X92110D01*
X92045Y16189D01*
X91979D01*
X91906Y16197D01*
X91819D01*
X91724Y16204D01*
D02*
G37*
G36*
X144963Y14965D02*
X144926D01*
X144897Y14957D01*
X144832Y14950D01*
X144744Y14928D01*
X144642Y14892D01*
X144533Y14841D01*
X144423Y14768D01*
X144321Y14673D01*
X144314Y14659D01*
X144285Y14622D01*
X144241Y14549D01*
X144197Y14462D01*
X144146Y14345D01*
X144110Y14199D01*
X144081Y14031D01*
X144066Y13842D01*
Y13835D01*
Y13820D01*
Y13791D01*
X144073Y13755D01*
Y13703D01*
X144081Y13652D01*
X144095Y13536D01*
X144132Y13397D01*
X144176Y13259D01*
X144234Y13120D01*
X144321Y13004D01*
X144336Y12989D01*
X144365Y12960D01*
X144423Y12916D01*
X144503Y12865D01*
X144591Y12807D01*
X144700Y12763D01*
X144824Y12734D01*
X144963Y12719D01*
X144999D01*
X145028Y12727D01*
X145094Y12734D01*
X145182Y12756D01*
X145284Y12792D01*
X145393Y12836D01*
X145495Y12909D01*
X145597Y13004D01*
X145612Y13018D01*
X145641Y13055D01*
X145677Y13128D01*
X145728Y13215D01*
X145779Y13339D01*
X145816Y13477D01*
X145845Y13652D01*
X145860Y13842D01*
Y13849D01*
Y13864D01*
Y13893D01*
X145852Y13929D01*
Y13973D01*
X145845Y14031D01*
X145830Y14148D01*
X145794Y14279D01*
X145750Y14418D01*
X145685Y14556D01*
X145597Y14673D01*
X145582Y14688D01*
X145553Y14717D01*
X145495Y14768D01*
X145422Y14819D01*
X145327Y14870D01*
X145225Y14921D01*
X145101Y14950D01*
X144963Y14965D01*
D02*
G37*
G36*
X121234Y15008D02*
X121183D01*
X121124Y14994D01*
X121052Y14979D01*
X120971Y14950D01*
X120884Y14914D01*
X120797Y14855D01*
X120716Y14775D01*
X120709Y14768D01*
X120687Y14731D01*
X120651Y14680D01*
X120614Y14607D01*
X120571Y14520D01*
X120541Y14411D01*
X120519Y14287D01*
X120512Y14148D01*
X121956D01*
Y14155D01*
Y14170D01*
Y14185D01*
X121948Y14214D01*
X121941Y14294D01*
X121926Y14381D01*
X121897Y14483D01*
X121861Y14593D01*
X121802Y14695D01*
X121737Y14782D01*
X121730Y14790D01*
X121700Y14819D01*
X121657Y14855D01*
X121598Y14899D01*
X121526Y14935D01*
X121438Y14972D01*
X121343Y15001D01*
X121234Y15008D01*
D02*
G37*
G36*
X86796Y16284D02*
X86738D01*
X86694Y16277D01*
X86636Y16270D01*
X86577Y16262D01*
X86431Y16233D01*
X86271Y16175D01*
X86184Y16146D01*
X86096Y16102D01*
X86016Y16051D01*
X85928Y15992D01*
X85848Y15927D01*
X85775Y15847D01*
X85768Y15839D01*
X85761Y15825D01*
X85739Y15803D01*
X85717Y15767D01*
X85688Y15716D01*
X85659Y15664D01*
X85622Y15599D01*
X85586Y15519D01*
X85549Y15431D01*
X85513Y15336D01*
X85484Y15227D01*
X85454Y15111D01*
X85433Y14979D01*
X85411Y14841D01*
X85404Y14695D01*
X85396Y14535D01*
Y14527D01*
Y14498D01*
Y14454D01*
X85404Y14396D01*
X85411Y14323D01*
X85418Y14236D01*
X85433Y14148D01*
X85447Y14046D01*
X85491Y13835D01*
X85564Y13623D01*
X85608Y13514D01*
X85659Y13412D01*
X85724Y13317D01*
X85790Y13230D01*
X85797Y13222D01*
X85812Y13208D01*
X85834Y13186D01*
X85863Y13164D01*
X85899Y13128D01*
X85950Y13091D01*
X86001Y13047D01*
X86067Y13011D01*
X86205Y12923D01*
X86380Y12858D01*
X86475Y12829D01*
X86577Y12807D01*
X86686Y12792D01*
X86796Y12785D01*
X86854D01*
X86898Y12792D01*
X86949Y12799D01*
X87007Y12807D01*
X87146Y12843D01*
X87306Y12894D01*
X87386Y12931D01*
X87474Y12967D01*
X87554Y13018D01*
X87642Y13077D01*
X87722Y13142D01*
X87795Y13222D01*
X87802Y13230D01*
X87809Y13244D01*
X87831Y13266D01*
X87853Y13303D01*
X87889Y13354D01*
X87919Y13412D01*
X87955Y13477D01*
X87991Y13558D01*
X88028Y13645D01*
X88064Y13740D01*
X88101Y13849D01*
X88130Y13973D01*
X88152Y14097D01*
X88174Y14236D01*
X88181Y14389D01*
X88188Y14549D01*
Y14556D01*
Y14586D01*
Y14629D01*
X88181Y14695D01*
X88174Y14768D01*
X88166Y14848D01*
X88159Y14943D01*
X88137Y15037D01*
X88094Y15249D01*
X88028Y15468D01*
X87984Y15577D01*
X87933Y15672D01*
X87867Y15767D01*
X87802Y15854D01*
X87795Y15861D01*
X87787Y15876D01*
X87766Y15890D01*
X87736Y15920D01*
X87693Y15956D01*
X87649Y15992D01*
X87598Y16029D01*
X87532Y16073D01*
X87467Y16109D01*
X87386Y16146D01*
X87219Y16218D01*
X87124Y16248D01*
X87022Y16262D01*
X86913Y16277D01*
X86796Y16284D01*
D02*
G37*
G36*
X123438Y7293D02*
X123432D01*
X123427Y7288D01*
X123410Y7282D01*
X123389Y7277D01*
X123361Y7266D01*
X123328Y7255D01*
X123290Y7244D01*
X123247Y7233D01*
X123197Y7217D01*
X123137Y7206D01*
X123077Y7190D01*
X123006Y7173D01*
X122930Y7157D01*
X122854Y7141D01*
X122766Y7130D01*
X122673Y7113D01*
X122662D01*
X122630Y7108D01*
X122575Y7097D01*
X122515Y7086D01*
X122450Y7075D01*
X122384Y7059D01*
X122324Y7042D01*
X122269Y7020D01*
X122264D01*
X122248Y7009D01*
X122226Y6999D01*
X122204Y6982D01*
X122138Y6938D01*
X122084Y6873D01*
Y6867D01*
X122073Y6857D01*
X122067Y6835D01*
X122056Y6807D01*
X122045Y6775D01*
X122035Y6742D01*
X122029Y6698D01*
X122024Y6655D01*
Y6649D01*
Y6622D01*
X122029Y6589D01*
X122040Y6545D01*
X122056Y6496D01*
X122084Y6447D01*
X122116Y6392D01*
X122160Y6343D01*
X122166Y6338D01*
X122187Y6327D01*
X122220Y6305D01*
X122264Y6283D01*
X122324Y6261D01*
X122395Y6240D01*
X122477Y6229D01*
X122575Y6223D01*
X122619D01*
X122673Y6229D01*
X122733Y6240D01*
X122810Y6250D01*
X122886Y6272D01*
X122968Y6300D01*
X123050Y6338D01*
X123061Y6343D01*
X123083Y6360D01*
X123121Y6387D01*
X123165Y6425D01*
X123214Y6469D01*
X123268Y6523D01*
X123312Y6589D01*
X123356Y6660D01*
X123361Y6666D01*
X123367Y6687D01*
X123378Y6725D01*
X123394Y6775D01*
X123410Y6840D01*
X123421Y6917D01*
X123427Y7009D01*
X123432Y7119D01*
X123438Y7293D01*
D02*
G37*
G36*
X103956Y8942D02*
X102766Y7250D01*
X103956D01*
Y8942D01*
D02*
G37*
G36*
X152174Y8336D02*
X152141D01*
X152119Y8331D01*
X152059Y8325D01*
X151988Y8309D01*
X151901Y8282D01*
X151808Y8243D01*
X151720Y8189D01*
X151633Y8118D01*
X151622Y8107D01*
X151600Y8080D01*
X151562Y8031D01*
X151524Y7965D01*
X151480Y7888D01*
X151442Y7790D01*
X151409Y7676D01*
X151393Y7550D01*
X152927D01*
Y7555D01*
Y7566D01*
X152922Y7583D01*
Y7605D01*
X152911Y7670D01*
X152894Y7741D01*
X152867Y7828D01*
X152840Y7910D01*
X152796Y7992D01*
X152747Y8063D01*
Y8069D01*
X152736Y8074D01*
X152709Y8107D01*
X152660Y8151D01*
X152594Y8200D01*
X152512Y8249D01*
X152414Y8292D01*
X152299Y8325D01*
X152239Y8331D01*
X152174Y8336D01*
D02*
G37*
G36*
X143656D02*
X143623D01*
X143602Y8331D01*
X143542Y8325D01*
X143471Y8309D01*
X143383Y8282D01*
X143290Y8243D01*
X143203Y8189D01*
X143116Y8118D01*
X143105Y8107D01*
X143083Y8080D01*
X143045Y8031D01*
X143006Y7965D01*
X142963Y7888D01*
X142924Y7790D01*
X142892Y7676D01*
X142875Y7550D01*
X144410D01*
Y7555D01*
Y7566D01*
X144404Y7583D01*
Y7605D01*
X144393Y7670D01*
X144377Y7741D01*
X144350Y7828D01*
X144322Y7910D01*
X144279Y7992D01*
X144229Y8063D01*
Y8069D01*
X144219Y8074D01*
X144191Y8107D01*
X144142Y8151D01*
X144077Y8200D01*
X143995Y8249D01*
X143896Y8292D01*
X143782Y8325D01*
X143722Y8331D01*
X143656Y8336D01*
D02*
G37*
G36*
X138944D02*
X138911D01*
X138884Y8331D01*
X138824Y8325D01*
X138742Y8303D01*
X138649Y8271D01*
X138551Y8227D01*
X138458Y8162D01*
X138409Y8118D01*
X138365Y8074D01*
Y8069D01*
X138355Y8063D01*
X138344Y8047D01*
X138327Y8025D01*
X138311Y7998D01*
X138294Y7965D01*
X138273Y7921D01*
X138251Y7878D01*
X138229Y7823D01*
X138207Y7768D01*
X138191Y7703D01*
X138174Y7632D01*
X138158Y7555D01*
X138147Y7474D01*
X138142Y7381D01*
X138136Y7288D01*
Y7282D01*
Y7266D01*
Y7239D01*
X138142Y7201D01*
Y7157D01*
X138147Y7108D01*
X138163Y6993D01*
X138191Y6862D01*
X138234Y6731D01*
X138289Y6605D01*
X138327Y6551D01*
X138365Y6496D01*
X138371D01*
X138376Y6485D01*
X138409Y6458D01*
X138458Y6414D01*
X138524Y6371D01*
X138606Y6322D01*
X138704Y6278D01*
X138819Y6250D01*
X138879Y6245D01*
X138944Y6240D01*
X138977D01*
X139004Y6245D01*
X139064Y6256D01*
X139146Y6272D01*
X139234Y6305D01*
X139332Y6349D01*
X139425Y6414D01*
X139474Y6458D01*
X139517Y6502D01*
X139523Y6507D01*
X139528Y6513D01*
X139539Y6529D01*
X139556Y6551D01*
X139572Y6578D01*
X139594Y6611D01*
X139616Y6655D01*
X139638Y6698D01*
X139659Y6753D01*
X139676Y6813D01*
X139698Y6878D01*
X139714Y6949D01*
X139730Y7031D01*
X139741Y7113D01*
X139752Y7206D01*
Y7304D01*
Y7310D01*
Y7326D01*
Y7353D01*
X139747Y7386D01*
Y7430D01*
X139741Y7479D01*
X139725Y7594D01*
X139698Y7714D01*
X139654Y7845D01*
X139594Y7965D01*
X139561Y8025D01*
X139517Y8074D01*
Y8080D01*
X139506Y8085D01*
X139474Y8118D01*
X139425Y8156D01*
X139359Y8205D01*
X139277Y8254D01*
X139179Y8298D01*
X139070Y8325D01*
X139010Y8331D01*
X138944Y8336D01*
D02*
G37*
G36*
X118682D02*
X118649D01*
X118622Y8331D01*
X118562Y8325D01*
X118480Y8303D01*
X118387Y8271D01*
X118289Y8227D01*
X118196Y8162D01*
X118147Y8118D01*
X118103Y8074D01*
Y8069D01*
X118092Y8063D01*
X118081Y8047D01*
X118065Y8025D01*
X118049Y7998D01*
X118032Y7965D01*
X118010Y7921D01*
X117989Y7878D01*
X117967Y7823D01*
X117945Y7768D01*
X117929Y7703D01*
X117912Y7632D01*
X117896Y7555D01*
X117885Y7474D01*
X117879Y7381D01*
X117874Y7288D01*
Y7282D01*
Y7266D01*
Y7239D01*
X117879Y7201D01*
Y7157D01*
X117885Y7108D01*
X117901Y6993D01*
X117929Y6862D01*
X117972Y6731D01*
X118027Y6605D01*
X118065Y6551D01*
X118103Y6496D01*
X118109D01*
X118114Y6485D01*
X118147Y6458D01*
X118196Y6414D01*
X118262Y6371D01*
X118344Y6322D01*
X118442Y6278D01*
X118556Y6250D01*
X118617Y6245D01*
X118682Y6240D01*
X118715D01*
X118742Y6245D01*
X118802Y6256D01*
X118884Y6272D01*
X118972Y6305D01*
X119070Y6349D01*
X119163Y6414D01*
X119212Y6458D01*
X119255Y6502D01*
X119261Y6507D01*
X119266Y6513D01*
X119277Y6529D01*
X119294Y6551D01*
X119310Y6578D01*
X119332Y6611D01*
X119354Y6655D01*
X119376Y6698D01*
X119397Y6753D01*
X119414Y6813D01*
X119436Y6878D01*
X119452Y6949D01*
X119468Y7031D01*
X119479Y7113D01*
X119490Y7206D01*
Y7304D01*
Y7310D01*
Y7326D01*
Y7353D01*
X119485Y7386D01*
Y7430D01*
X119479Y7479D01*
X119463Y7594D01*
X119436Y7714D01*
X119392Y7845D01*
X119332Y7965D01*
X119299Y8025D01*
X119255Y8074D01*
Y8080D01*
X119245Y8085D01*
X119212Y8118D01*
X119163Y8156D01*
X119097Y8205D01*
X119015Y8254D01*
X118917Y8298D01*
X118808Y8325D01*
X118748Y8331D01*
X118682Y8336D01*
D02*
G37*
G36*
X97825Y9330D02*
X97792D01*
X97770Y9324D01*
X97710Y9313D01*
X97639Y9297D01*
X97557Y9264D01*
X97470Y9215D01*
X97426Y9183D01*
X97383Y9150D01*
X97344Y9106D01*
X97306Y9057D01*
Y9052D01*
X97295Y9041D01*
X97284Y9019D01*
X97268Y8991D01*
X97252Y8948D01*
X97230Y8899D01*
X97213Y8839D01*
X97192Y8767D01*
X97170Y8686D01*
X97148Y8593D01*
X97126Y8489D01*
X97110Y8374D01*
X97093Y8243D01*
X97082Y8101D01*
X97077Y7949D01*
X97071Y7779D01*
Y7768D01*
Y7741D01*
Y7692D01*
X97077Y7626D01*
Y7555D01*
X97082Y7468D01*
X97088Y7375D01*
X97099Y7277D01*
X97126Y7064D01*
X97142Y6960D01*
X97164Y6862D01*
X97186Y6769D01*
X97219Y6682D01*
X97252Y6605D01*
X97290Y6540D01*
Y6534D01*
X97301Y6529D01*
X97328Y6491D01*
X97377Y6442D01*
X97437Y6387D01*
X97519Y6332D01*
X97612Y6283D01*
X97716Y6245D01*
X97770Y6240D01*
X97830Y6234D01*
X97863D01*
X97885Y6240D01*
X97939Y6250D01*
X98016Y6272D01*
X98098Y6311D01*
X98191Y6365D01*
X98234Y6398D01*
X98278Y6442D01*
X98322Y6485D01*
X98365Y6540D01*
Y6545D01*
X98376Y6556D01*
X98387Y6573D01*
X98398Y6600D01*
X98420Y6638D01*
X98436Y6687D01*
X98458Y6742D01*
X98480Y6807D01*
X98497Y6889D01*
X98518Y6977D01*
X98540Y7080D01*
X98557Y7190D01*
X98567Y7321D01*
X98578Y7457D01*
X98589Y7610D01*
Y7779D01*
Y7785D01*
Y7790D01*
Y7818D01*
Y7867D01*
X98584Y7932D01*
Y8003D01*
X98578Y8090D01*
X98573Y8183D01*
X98562Y8287D01*
X98535Y8495D01*
X98518Y8598D01*
X98497Y8697D01*
X98475Y8789D01*
X98442Y8877D01*
X98409Y8953D01*
X98371Y9019D01*
Y9024D01*
X98360Y9030D01*
X98349Y9046D01*
X98333Y9068D01*
X98283Y9117D01*
X98224Y9177D01*
X98142Y9232D01*
X98049Y9281D01*
X98000Y9303D01*
X97945Y9319D01*
X97885Y9324D01*
X97825Y9330D01*
D02*
G37*
G36*
X90492D02*
X90448D01*
X90399Y9319D01*
X90334Y9308D01*
X90263Y9286D01*
X90186Y9259D01*
X90115Y9215D01*
X90044Y9155D01*
X90039Y9150D01*
X90017Y9128D01*
X89990Y9090D01*
X89963Y9041D01*
X89930Y8980D01*
X89902Y8909D01*
X89881Y8833D01*
X89875Y8746D01*
Y8740D01*
Y8735D01*
X89881Y8702D01*
X89886Y8653D01*
X89897Y8593D01*
X89919Y8522D01*
X89946Y8451D01*
X89990Y8374D01*
X90044Y8309D01*
X90050Y8303D01*
X90077Y8282D01*
X90115Y8254D01*
X90165Y8227D01*
X90230Y8194D01*
X90307Y8167D01*
X90394Y8145D01*
X90492Y8140D01*
X90503D01*
X90536Y8145D01*
X90585Y8151D01*
X90650Y8162D01*
X90721Y8183D01*
X90792Y8211D01*
X90869Y8254D01*
X90934Y8309D01*
X90940Y8314D01*
X90962Y8342D01*
X90989Y8374D01*
X91022Y8424D01*
X91054Y8484D01*
X91082Y8555D01*
X91104Y8636D01*
X91109Y8724D01*
Y8729D01*
Y8735D01*
Y8767D01*
X91098Y8817D01*
X91087Y8877D01*
X91065Y8942D01*
X91033Y9013D01*
X90989Y9084D01*
X90929Y9155D01*
X90923Y9161D01*
X90896Y9183D01*
X90858Y9210D01*
X90809Y9243D01*
X90743Y9275D01*
X90672Y9303D01*
X90585Y9324D01*
X90492Y9330D01*
D02*
G37*
G36*
X90476Y7763D02*
X90443D01*
X90421Y7757D01*
X90361Y7752D01*
X90285Y7736D01*
X90197Y7708D01*
X90110Y7670D01*
X90017Y7615D01*
X89935Y7544D01*
X89924Y7534D01*
X89902Y7506D01*
X89870Y7457D01*
X89831Y7397D01*
X89788Y7315D01*
X89755Y7222D01*
X89733Y7119D01*
X89722Y7004D01*
Y6993D01*
Y6971D01*
X89728Y6933D01*
X89733Y6884D01*
X89744Y6824D01*
X89761Y6758D01*
X89782Y6693D01*
X89810Y6622D01*
X89815Y6616D01*
X89826Y6589D01*
X89848Y6556D01*
X89881Y6518D01*
X89919Y6469D01*
X89968Y6420D01*
X90022Y6376D01*
X90088Y6332D01*
X90099Y6327D01*
X90121Y6316D01*
X90159Y6300D01*
X90208Y6283D01*
X90268Y6267D01*
X90339Y6250D01*
X90416Y6240D01*
X90492Y6234D01*
X90525D01*
X90547Y6240D01*
X90612Y6245D01*
X90689Y6261D01*
X90776Y6289D01*
X90869Y6322D01*
X90956Y6376D01*
X91044Y6447D01*
X91054Y6458D01*
X91076Y6485D01*
X91114Y6534D01*
X91153Y6594D01*
X91191Y6671D01*
X91229Y6764D01*
X91251Y6873D01*
X91262Y6988D01*
Y6993D01*
Y7004D01*
Y7020D01*
X91256Y7042D01*
X91251Y7102D01*
X91235Y7184D01*
X91207Y7266D01*
X91169Y7359D01*
X91114Y7452D01*
X91038Y7539D01*
X91027Y7550D01*
X91000Y7572D01*
X90951Y7610D01*
X90885Y7654D01*
X90803Y7692D01*
X90705Y7730D01*
X90596Y7752D01*
X90476Y7763D01*
D02*
G37*
G36*
X108504Y58574D02*
Y58569D01*
X108499Y58558D01*
Y58536D01*
X108488Y58514D01*
X108483Y58476D01*
X108472Y58438D01*
X108450Y58345D01*
X108423Y58236D01*
X108384Y58116D01*
X108346Y57985D01*
X108297Y57848D01*
X107887Y56745D01*
X109165D01*
X108772Y57783D01*
Y57788D01*
X108766Y57805D01*
X108756Y57832D01*
X108745Y57865D01*
X108728Y57903D01*
X108712Y57952D01*
X108695Y58007D01*
X108674Y58061D01*
X108630Y58187D01*
X108586Y58318D01*
X108543Y58449D01*
X108504Y58574D01*
D02*
G37*
%LPD*%
D10*
X114070Y46935D02*
G03*
X113791Y51771I28056J4050D01*
G01*
X113923Y47059D02*
X114070Y46935D01*
X90551Y45079D02*
X113923Y47059D01*
X90551Y53740D02*
X113779Y51772D01*
M02*
