G04*
G04 #@! TF.GenerationSoftware,Altium Limited,Altium Designer,21.4.1 (30)*
G04*
G04 Layer_Physical_Order=2*
G04 Layer_Color=16711680*
%FSLAX25Y25*%
%MOIN*%
G70*
G04*
G04 #@! TF.SameCoordinates,3DD515BA-ABF8-41DF-8C9C-53FC49308A7C*
G04*
G04*
G04 #@! TF.FilePolarity,Positive*
G04*
G01*
G75*
%ADD16R,0.05906X0.05906*%
%ADD19C,0.19685*%
%ADD20C,0.02795*%
G36*
X216535Y97406D02*
X216535D01*
D01*
X217759Y97406D01*
X220185Y97086D01*
X222548Y96453D01*
X224809Y95517D01*
X226928Y94293D01*
X228869Y92804D01*
X230599Y91074D01*
X232088Y89132D01*
X233312Y87013D01*
X234248Y84753D01*
X234881Y82389D01*
X235201Y79963D01*
X235201Y78740D01*
Y19685D01*
Y18462D01*
X234881Y16036D01*
X234248Y13672D01*
X233312Y11412D01*
X232088Y9293D01*
X230599Y7352D01*
X228869Y5621D01*
X226928Y4132D01*
X224809Y2909D01*
X222548Y1972D01*
X220185Y1339D01*
X217759Y1020D01*
X18462D01*
X16036Y1339D01*
X13672Y1972D01*
X11412Y2909D01*
X9293Y4132D01*
X7352Y5621D01*
X5621Y7352D01*
X4132Y9293D01*
X2908Y11412D01*
X1972Y13672D01*
X1339Y16036D01*
X1020Y18462D01*
Y19685D01*
Y41343D01*
X15374D01*
X15764Y41420D01*
X16095Y41641D01*
X16316Y41972D01*
X16394Y42362D01*
Y56063D01*
X16316Y56453D01*
X16095Y56784D01*
X15764Y57005D01*
X15374Y57083D01*
X1020D01*
Y78740D01*
Y79963D01*
X1339Y82389D01*
X1972Y84753D01*
X2908Y87013D01*
X4132Y89132D01*
X5621Y91074D01*
X7352Y92804D01*
X9293Y94293D01*
X11412Y95517D01*
X13672Y96453D01*
X16036Y97086D01*
X18462Y97406D01*
X19685D01*
X216535Y97406D01*
D02*
G37*
%LPC*%
G36*
X70866Y89406D02*
Y80709D01*
X79563D01*
X79473Y81279D01*
X78946Y82902D01*
X78171Y84423D01*
X77168Y85804D01*
X75961Y87010D01*
X74580Y88013D01*
X73060Y88788D01*
X71437Y89316D01*
X70866Y89406D01*
D02*
G37*
G36*
X66929D02*
X66359Y89316D01*
X64736Y88788D01*
X63215Y88013D01*
X61834Y87010D01*
X60627Y85804D01*
X59624Y84423D01*
X58850Y82902D01*
X58322Y81279D01*
X58232Y80709D01*
X66929D01*
Y89406D01*
D02*
G37*
G36*
X218504D02*
Y80709D01*
X227201D01*
X227111Y81279D01*
X226584Y82902D01*
X225809Y84423D01*
X224806Y85804D01*
X223599Y87010D01*
X222218Y88013D01*
X220697Y88788D01*
X219074Y89316D01*
X218504Y89406D01*
D02*
G37*
G36*
X214567D02*
X213997Y89316D01*
X212373Y88788D01*
X210853Y88013D01*
X209472Y87010D01*
X208265Y85804D01*
X207262Y84423D01*
X206487Y82902D01*
X205960Y81279D01*
X205870Y80709D01*
X214567D01*
Y89406D01*
D02*
G37*
G36*
X21654D02*
Y80709D01*
X30351D01*
X30261Y81279D01*
X29733Y82902D01*
X28958Y84423D01*
X27955Y85804D01*
X26748Y87010D01*
X25368Y88013D01*
X23847Y88788D01*
X22224Y89316D01*
X21654Y89406D01*
D02*
G37*
G36*
X17717D02*
X17146Y89316D01*
X15523Y88788D01*
X14002Y88013D01*
X12622Y87010D01*
X11415Y85804D01*
X10412Y84423D01*
X9637Y82902D01*
X9110Y81279D01*
X9019Y80709D01*
X17717D01*
Y89406D01*
D02*
G37*
G36*
X66929Y76772D02*
X58232D01*
X58322Y76201D01*
X58850Y74578D01*
X59624Y73057D01*
X60627Y71677D01*
X61834Y70470D01*
X63215Y69467D01*
X64736Y68692D01*
X66359Y68165D01*
X66929Y68074D01*
Y76772D01*
D02*
G37*
G36*
X227201Y76772D02*
X218504D01*
Y68074D01*
X219074Y68165D01*
X220697Y68692D01*
X222218Y69467D01*
X223599Y70470D01*
X224806Y71677D01*
X225809Y73057D01*
X226584Y74578D01*
X227111Y76201D01*
X227201Y76772D01*
D02*
G37*
G36*
X214567D02*
X205870D01*
X205960Y76201D01*
X206487Y74578D01*
X207262Y73057D01*
X208265Y71677D01*
X209472Y70470D01*
X210853Y69467D01*
X212373Y68692D01*
X213997Y68165D01*
X214567Y68074D01*
Y76772D01*
D02*
G37*
G36*
X30351D02*
X21654D01*
Y68074D01*
X22224Y68165D01*
X23847Y68692D01*
X25368Y69467D01*
X26748Y70470D01*
X27955Y71677D01*
X28958Y73057D01*
X29733Y74578D01*
X30261Y76201D01*
X30351Y76772D01*
D02*
G37*
G36*
X17717D02*
X9019D01*
X9110Y76201D01*
X9637Y74578D01*
X10412Y73057D01*
X11415Y71677D01*
X12622Y70470D01*
X14002Y69467D01*
X15523Y68692D01*
X17146Y68165D01*
X17717Y68074D01*
Y76772D01*
D02*
G37*
G36*
X79563Y76772D02*
X70866D01*
Y68074D01*
X71437Y68165D01*
X73060Y68692D01*
X74580Y69467D01*
X75961Y70470D01*
X77168Y71677D01*
X78171Y73057D01*
X78946Y74578D01*
X79473Y76201D01*
X79563Y76772D01*
D02*
G37*
G36*
X22961Y66286D02*
Y64398D01*
X24849D01*
X24493Y65256D01*
X23819Y65930D01*
X22961Y66286D01*
D02*
G37*
G36*
X21961D02*
X21102Y65930D01*
X20428Y65256D01*
X20073Y64398D01*
X21961D01*
Y66286D01*
D02*
G37*
G36*
X10736Y66168D02*
Y64280D01*
X12624D01*
X12269Y65138D01*
X11594Y65812D01*
X10736Y66168D01*
D02*
G37*
G36*
X9736D02*
X8878Y65812D01*
X8204Y65138D01*
X7848Y64280D01*
X9736D01*
Y66168D01*
D02*
G37*
G36*
X24849Y63398D02*
X22961D01*
Y61510D01*
X23819Y61865D01*
X24493Y62539D01*
X24849Y63398D01*
D02*
G37*
G36*
X21961D02*
X20073D01*
X20428Y62539D01*
X21102Y61865D01*
X21961Y61510D01*
Y63398D01*
D02*
G37*
G36*
X12624Y63279D02*
X10736D01*
Y61391D01*
X11594Y61747D01*
X12269Y62421D01*
X12624Y63279D01*
D02*
G37*
G36*
X9736D02*
X7848D01*
X8204Y62421D01*
X8878Y61747D01*
X9736Y61391D01*
Y63279D01*
D02*
G37*
G36*
X31799Y58687D02*
Y56799D01*
X33687D01*
X33332Y57657D01*
X32657Y58332D01*
X31799Y58687D01*
D02*
G37*
G36*
X30799D02*
X29941Y58332D01*
X29267Y57657D01*
X28911Y56799D01*
X30799D01*
Y58687D01*
D02*
G37*
G36*
X33687Y55799D02*
X31799D01*
Y53911D01*
X32657Y54267D01*
X33332Y54941D01*
X33687Y55799D01*
D02*
G37*
G36*
X30799D02*
X28911D01*
X29267Y54941D01*
X29941Y54267D01*
X30799Y53911D01*
Y55799D01*
D02*
G37*
G36*
X31898Y44514D02*
Y42626D01*
X33786D01*
X33430Y43484D01*
X32756Y44159D01*
X31898Y44514D01*
D02*
G37*
G36*
X30898D02*
X30040Y44159D01*
X29365Y43484D01*
X29010Y42626D01*
X30898D01*
Y44514D01*
D02*
G37*
G36*
X33786Y41626D02*
X31898D01*
Y39738D01*
X32756Y40093D01*
X33430Y40768D01*
X33786Y41626D01*
D02*
G37*
G36*
X30898D02*
X29010D01*
X29365Y40768D01*
X30040Y40093D01*
X30898Y39738D01*
Y41626D01*
D02*
G37*
G36*
X9949Y37034D02*
Y35146D01*
X11837D01*
X11481Y36004D01*
X10807Y36678D01*
X9949Y37034D01*
D02*
G37*
G36*
X8949D02*
X8091Y36678D01*
X7416Y36004D01*
X7061Y35146D01*
X8949D01*
Y37034D01*
D02*
G37*
G36*
X22961Y36916D02*
Y35028D01*
X24849D01*
X24493Y35886D01*
X23819Y36560D01*
X22961Y36916D01*
D02*
G37*
G36*
X21961D02*
X21102Y36560D01*
X20428Y35886D01*
X20073Y35028D01*
X21961D01*
Y36916D01*
D02*
G37*
G36*
X11837Y34146D02*
X9949D01*
Y32258D01*
X10807Y32613D01*
X11481Y33288D01*
X11837Y34146D01*
D02*
G37*
G36*
X8949D02*
X7061D01*
X7416Y33288D01*
X8091Y32613D01*
X8949Y32258D01*
Y34146D01*
D02*
G37*
G36*
X24849Y34028D02*
X22961D01*
Y32140D01*
X23819Y32495D01*
X24493Y33169D01*
X24849Y34028D01*
D02*
G37*
G36*
X21961D02*
X20073D01*
X20428Y33169D01*
X21102Y32495D01*
X21961Y32140D01*
Y34028D01*
D02*
G37*
G36*
X70866Y30351D02*
Y21654D01*
X79563D01*
X79473Y22224D01*
X78946Y23847D01*
X78171Y25368D01*
X77168Y26748D01*
X75961Y27955D01*
X74580Y28958D01*
X73060Y29733D01*
X71437Y30261D01*
X70866Y30351D01*
D02*
G37*
G36*
X66929D02*
X66359Y30261D01*
X64736Y29733D01*
X63215Y28958D01*
X61834Y27955D01*
X60627Y26748D01*
X59624Y25368D01*
X58850Y23847D01*
X58322Y22224D01*
X58232Y21654D01*
X66929D01*
Y30351D01*
D02*
G37*
G36*
X218504D02*
Y21654D01*
X227201D01*
X227111Y22224D01*
X226584Y23847D01*
X225809Y25368D01*
X224806Y26748D01*
X223599Y27955D01*
X222218Y28958D01*
X220697Y29733D01*
X219074Y30261D01*
X218504Y30351D01*
D02*
G37*
G36*
X214567D02*
X213997Y30261D01*
X212373Y29733D01*
X210853Y28958D01*
X209472Y27955D01*
X208265Y26748D01*
X207262Y25368D01*
X206487Y23847D01*
X205960Y22224D01*
X205870Y21654D01*
X214567D01*
Y30351D01*
D02*
G37*
G36*
X21654D02*
Y21654D01*
X30351D01*
X30261Y22224D01*
X29733Y23847D01*
X28958Y25368D01*
X27955Y26748D01*
X26748Y27955D01*
X25368Y28958D01*
X23847Y29733D01*
X22224Y30261D01*
X21654Y30351D01*
D02*
G37*
G36*
X17717D02*
X17146Y30261D01*
X15523Y29733D01*
X14002Y28958D01*
X12622Y27955D01*
X11415Y26748D01*
X10412Y25368D01*
X9637Y23847D01*
X9110Y22224D01*
X9019Y21654D01*
X17717D01*
Y30351D01*
D02*
G37*
G36*
X66929Y17717D02*
X58232D01*
X58322Y17146D01*
X58850Y15523D01*
X59624Y14002D01*
X60627Y12622D01*
X61834Y11415D01*
X63215Y10412D01*
X64736Y9637D01*
X66359Y9110D01*
X66929Y9019D01*
Y17717D01*
D02*
G37*
G36*
X227201Y17717D02*
X218504D01*
Y9019D01*
X219074Y9110D01*
X220697Y9637D01*
X222218Y10412D01*
X223599Y11415D01*
X224806Y12622D01*
X225809Y14002D01*
X226584Y15523D01*
X227111Y17146D01*
X227201Y17717D01*
D02*
G37*
G36*
X214567D02*
X205870D01*
X205960Y17146D01*
X206487Y15523D01*
X207262Y14002D01*
X208265Y12622D01*
X209472Y11415D01*
X210853Y10412D01*
X212373Y9637D01*
X213997Y9110D01*
X214567Y9019D01*
Y17717D01*
D02*
G37*
G36*
X30351D02*
X21654D01*
Y9019D01*
X22224Y9110D01*
X23847Y9637D01*
X25368Y10412D01*
X26748Y11415D01*
X27955Y12622D01*
X28958Y14002D01*
X29733Y15523D01*
X30261Y17146D01*
X30351Y17717D01*
D02*
G37*
G36*
X17717D02*
X9019D01*
X9110Y17146D01*
X9637Y15523D01*
X10412Y14002D01*
X11415Y12622D01*
X12622Y11415D01*
X14002Y10412D01*
X15523Y9637D01*
X17146Y9110D01*
X17717Y9019D01*
Y17717D01*
D02*
G37*
G36*
X79563Y17717D02*
X70866D01*
Y9019D01*
X71437Y9110D01*
X73060Y9637D01*
X74580Y10412D01*
X75961Y11415D01*
X77168Y12622D01*
X78171Y14002D01*
X78946Y15523D01*
X79473Y17146D01*
X79563Y17717D01*
D02*
G37*
%LPD*%
D16*
X87008Y49409D02*
D03*
D19*
X68898Y78740D02*
D03*
Y19685D02*
D03*
X19685D02*
D03*
X216535D02*
D03*
Y78740D02*
D03*
X19685D02*
D03*
D20*
X31398Y42126D02*
D03*
X31299Y56299D02*
D03*
X9449Y34646D02*
D03*
X22461Y34528D02*
D03*
X10236Y63779D02*
D03*
X22461Y63898D02*
D03*
M02*
