G04*
G04 #@! TF.GenerationSoftware,Altium Limited,Altium Designer,21.4.1 (30)*
G04*
G04 Layer_Physical_Order=1*
G04 Layer_Color=255*
%FSLAX25Y25*%
%MOIN*%
G70*
G04*
G04 #@! TF.SameCoordinates,35213D09-E783-4A94-B544-0D3754CD514C*
G04*
G04*
G04 #@! TF.FilePolarity,Positive*
G04*
G01*
G75*
%ADD10R,0.11024X0.04331*%
%ADD11R,0.01000X0.01000*%
%ADD16C,0.01968*%
%ADD17C,0.04331*%
%ADD18C,0.19685*%
%ADD19C,0.02795*%
G36*
X317400Y97267D02*
X319797Y96790D01*
X322112Y96005D01*
X324304Y94924D01*
X326337Y93565D01*
X328174Y91954D01*
X329786Y90116D01*
X331144Y88084D01*
X332225Y85891D01*
X333011Y83577D01*
X333488Y81179D01*
X333645Y78776D01*
X333638Y78740D01*
Y60410D01*
X333445Y60252D01*
X330654D01*
Y60949D01*
X329654D01*
Y59449D01*
X328654D01*
Y60949D01*
X327654D01*
Y60252D01*
X321598D01*
Y60949D01*
X320598D01*
Y59449D01*
X319598D01*
Y60949D01*
X318598D01*
Y60252D01*
X306673D01*
X306366Y60190D01*
X306105Y60017D01*
X305931Y59756D01*
X305873Y59465D01*
X305673D01*
Y58630D01*
X304493D01*
X302896Y60227D01*
X302721Y60489D01*
X302135Y60881D01*
X301444Y61018D01*
X300753Y60881D01*
X300167Y60489D01*
X299775Y59903D01*
X299638Y59212D01*
Y59125D01*
X299775Y58434D01*
X300167Y57848D01*
X302468Y55546D01*
X303054Y55155D01*
X303745Y55017D01*
X305673D01*
Y53134D01*
X306163D01*
X306366Y52999D01*
X306673Y52937D01*
X317736D01*
X317768Y52944D01*
X318165Y52665D01*
X318124Y52347D01*
X318035Y52165D01*
X312379D01*
X312185Y52191D01*
X299521D01*
X276574Y75137D01*
X275958Y75611D01*
X275239Y75908D01*
X274468Y76010D01*
X214559D01*
X214483Y76000D01*
X187000D01*
X186693Y75939D01*
X186432Y75765D01*
X186258Y75504D01*
X186197Y75197D01*
Y70866D01*
X186258Y70559D01*
X186432Y70298D01*
X186693Y70124D01*
X187000Y70063D01*
X214483D01*
X214559Y70053D01*
X273235D01*
X296181Y47107D01*
X296182Y47107D01*
X296798Y46633D01*
X297517Y46336D01*
X298287Y46234D01*
X298288Y46234D01*
X312185D01*
X312379Y46260D01*
X318035D01*
X318124Y46078D01*
X318165Y45760D01*
X317768Y45482D01*
X317736Y45488D01*
X306673D01*
X306366Y45427D01*
X306163Y45291D01*
X305673D01*
Y44408D01*
X303881D01*
X303190Y44270D01*
X302604Y43879D01*
X300216Y41491D01*
X299824Y40905D01*
X299687Y40213D01*
X299824Y39522D01*
X300216Y38936D01*
X300802Y38544D01*
X301493Y38407D01*
X302184Y38544D01*
X302770Y38936D01*
X304629Y40795D01*
X305673D01*
Y38961D01*
X305873D01*
X305931Y38669D01*
X306105Y38409D01*
X306366Y38235D01*
X306673Y38174D01*
X318598D01*
Y37476D01*
X319598D01*
Y38976D01*
X306673D01*
Y44685D01*
X317736D01*
Y41142D01*
X333445D01*
Y38976D01*
X329654D01*
Y37476D01*
X330654D01*
Y38174D01*
X333158D01*
X333658Y37762D01*
X333643Y20185D01*
X333642Y19705D01*
X333638Y19685D01*
X333615Y19195D01*
X333488Y17246D01*
X333011Y14849D01*
X332225Y12534D01*
X331144Y10342D01*
X329786Y8309D01*
X328174Y6471D01*
X326337Y4860D01*
X324304Y3502D01*
X322112Y2421D01*
X319797Y1635D01*
X317400Y1158D01*
X314996Y1001D01*
X314961Y1008D01*
X20184Y1008D01*
X19685Y1008D01*
X19195Y1030D01*
X17246Y1158D01*
X14849Y1635D01*
X12534Y2421D01*
X10342Y3502D01*
X8309Y4860D01*
X6471Y6471D01*
X4860Y8309D01*
X3502Y10342D01*
X2421Y12534D01*
X1635Y14849D01*
X1158Y17246D01*
X1030Y19195D01*
X1008Y19685D01*
X1003Y19705D01*
X1003Y20185D01*
X988Y37762D01*
X1488Y38173D01*
X3992D01*
Y37476D01*
X4992D01*
Y38976D01*
X5992D01*
Y37476D01*
X6992D01*
Y38173D01*
X13047D01*
Y37476D01*
X14047D01*
Y38976D01*
X15047D01*
Y37476D01*
X16047D01*
Y38173D01*
X27972D01*
X28280Y38235D01*
X28540Y38409D01*
X28714Y38669D01*
X28772Y38961D01*
X28972D01*
Y39766D01*
X30054Y40307D01*
X31900Y38461D01*
X32486Y38069D01*
X33177Y37931D01*
X33868Y38069D01*
X34455Y38461D01*
X34846Y39047D01*
X34984Y39738D01*
X34846Y40429D01*
X34455Y41015D01*
X32066Y43403D01*
X31480Y43795D01*
X30789Y43932D01*
X30080D01*
X28972Y44486D01*
Y45291D01*
X28482D01*
X28280Y45427D01*
X27972Y45488D01*
X16909D01*
X16878Y45482D01*
X16481Y45760D01*
X16522Y46078D01*
X16611Y46260D01*
X22267D01*
X22461Y46234D01*
X37713D01*
X38483Y46336D01*
X39202Y46633D01*
X39819Y47107D01*
X62765Y70053D01*
X120079D01*
X120155Y70063D01*
X147638D01*
X147945Y70124D01*
X148205Y70298D01*
X148380Y70559D01*
X148441Y70866D01*
Y75197D01*
X148380Y75504D01*
X148205Y75765D01*
X147945Y75939D01*
X147638Y76000D01*
X120155D01*
X120079Y76010D01*
X61532D01*
X61532Y76010D01*
X60761Y75908D01*
X60042Y75611D01*
X59426Y75137D01*
X59425Y75137D01*
X36479Y52191D01*
X22461D01*
X22267Y52165D01*
X16611D01*
X16522Y52347D01*
X16481Y52665D01*
X16878Y52944D01*
X16909Y52937D01*
X27972D01*
X28280Y52998D01*
X28482Y53134D01*
X28972D01*
Y53988D01*
X30080Y54542D01*
X30925D01*
X31616Y54680D01*
X32203Y55071D01*
X34504Y57372D01*
X34895Y57958D01*
X35033Y58650D01*
Y58736D01*
X34895Y59428D01*
X34504Y60014D01*
X33918Y60405D01*
X33226Y60543D01*
X32535Y60405D01*
X31949Y60014D01*
X31774Y59752D01*
X30177Y58155D01*
X30080D01*
X28972Y58709D01*
Y59465D01*
X28772D01*
X28714Y59756D01*
X28540Y60017D01*
X28280Y60190D01*
X27972Y60252D01*
X16047D01*
Y60949D01*
X15047D01*
Y59449D01*
X27972D01*
Y58311D01*
X29929Y57333D01*
Y55364D01*
X27972Y54386D01*
Y53740D01*
X16909D01*
Y57284D01*
X1201D01*
Y59449D01*
X4992D01*
Y60949D01*
X3992D01*
Y60252D01*
X1201D01*
X1008Y60410D01*
Y78740D01*
X1001Y78776D01*
X1158Y81179D01*
X1635Y83577D01*
X2421Y85891D01*
X3502Y88084D01*
X4860Y90116D01*
X6471Y91954D01*
X8309Y93565D01*
X10342Y94924D01*
X12534Y96005D01*
X14849Y96790D01*
X17246Y97267D01*
X19649Y97425D01*
X19685Y97418D01*
X314961D01*
X314996Y97425D01*
X317400Y97267D01*
D02*
G37*
G36*
X214559Y70866D02*
X187000D01*
Y75197D01*
X214559D01*
Y70866D01*
D02*
G37*
G36*
X147638D02*
X120079D01*
Y75197D01*
X147638D01*
Y70866D01*
D02*
G37*
G36*
X333445Y57087D02*
X317736D01*
Y53740D01*
X306673D01*
Y59449D01*
X333445D01*
Y57087D01*
D02*
G37*
G36*
X27972Y44089D02*
X29929Y43110D01*
Y41142D01*
X27972Y40163D01*
Y38976D01*
X1201D01*
Y41339D01*
X16909D01*
Y44685D01*
X27972D01*
Y44089D01*
D02*
G37*
%LPC*%
G36*
X316929Y89406D02*
Y80709D01*
X325626D01*
X325536Y81279D01*
X325009Y82902D01*
X324234Y84423D01*
X323231Y85804D01*
X322024Y87010D01*
X320643Y88013D01*
X319123Y88788D01*
X317500Y89316D01*
X316929Y89406D01*
D02*
G37*
G36*
X312992D02*
X312422Y89316D01*
X310799Y88788D01*
X309278Y88013D01*
X307897Y87010D01*
X306690Y85804D01*
X305687Y84423D01*
X304912Y82902D01*
X304385Y81279D01*
X304295Y80709D01*
X312992D01*
Y89406D01*
D02*
G37*
G36*
X21654D02*
Y80709D01*
X30351D01*
X30261Y81279D01*
X29733Y82902D01*
X28958Y84423D01*
X27955Y85804D01*
X26748Y87010D01*
X25368Y88013D01*
X23847Y88788D01*
X22224Y89316D01*
X21654Y89406D01*
D02*
G37*
G36*
X17717D02*
X17146Y89316D01*
X15523Y88788D01*
X14002Y88013D01*
X12622Y87010D01*
X11415Y85804D01*
X10412Y84423D01*
X9637Y82902D01*
X9110Y81279D01*
X9019Y80709D01*
X17717D01*
Y89406D01*
D02*
G37*
G36*
X325626Y76772D02*
X316929D01*
Y68074D01*
X317500Y68165D01*
X319123Y68692D01*
X320643Y69467D01*
X322024Y70470D01*
X323231Y71677D01*
X324234Y73057D01*
X325009Y74578D01*
X325536Y76201D01*
X325626Y76772D01*
D02*
G37*
G36*
X312992D02*
X304295D01*
X304385Y76201D01*
X304912Y74578D01*
X305687Y73057D01*
X306690Y71677D01*
X307897Y70470D01*
X309278Y69467D01*
X310799Y68692D01*
X312422Y68165D01*
X312992Y68074D01*
Y76772D01*
D02*
G37*
G36*
X30351D02*
X21654D01*
Y68074D01*
X22224Y68165D01*
X23847Y68692D01*
X25368Y69467D01*
X26748Y70470D01*
X27955Y71677D01*
X28958Y73057D01*
X29733Y74578D01*
X30261Y76201D01*
X30351Y76772D01*
D02*
G37*
G36*
X17717D02*
X9019D01*
X9110Y76201D01*
X9637Y74578D01*
X10412Y73057D01*
X11415Y71677D01*
X12622Y70470D01*
X14002Y69467D01*
X15523Y68692D01*
X17146Y68165D01*
X17717Y68074D01*
Y76772D01*
D02*
G37*
G36*
X14047Y60949D02*
X13047D01*
Y60252D01*
X6992D01*
Y60949D01*
X5992D01*
Y59449D01*
X14047D01*
Y60949D01*
D02*
G37*
G36*
X328654Y38976D02*
X320598D01*
Y37476D01*
X321598D01*
Y38174D01*
X327654D01*
Y37476D01*
X328654D01*
Y38976D01*
D02*
G37*
G36*
X316929Y30351D02*
Y21654D01*
X325626D01*
X325536Y22224D01*
X325009Y23847D01*
X324234Y25368D01*
X323231Y26748D01*
X322024Y27955D01*
X320643Y28958D01*
X319123Y29733D01*
X317500Y30261D01*
X316929Y30351D01*
D02*
G37*
G36*
X312992D02*
X312422Y30261D01*
X310799Y29733D01*
X309278Y28958D01*
X307897Y27955D01*
X306690Y26748D01*
X305687Y25368D01*
X304912Y23847D01*
X304385Y22224D01*
X304295Y21654D01*
X312992D01*
Y30351D01*
D02*
G37*
G36*
X218504D02*
Y21654D01*
X227201D01*
X227111Y22224D01*
X226584Y23847D01*
X225809Y25368D01*
X224806Y26748D01*
X223599Y27955D01*
X222218Y28958D01*
X220697Y29733D01*
X219074Y30261D01*
X218504Y30351D01*
D02*
G37*
G36*
X214567D02*
X213997Y30261D01*
X212373Y29733D01*
X210853Y28958D01*
X209472Y27955D01*
X208265Y26748D01*
X207262Y25368D01*
X206487Y23847D01*
X205960Y22224D01*
X205870Y21654D01*
X214567D01*
Y30351D01*
D02*
G37*
G36*
X120079D02*
Y21654D01*
X128776D01*
X128686Y22224D01*
X128158Y23847D01*
X127384Y25368D01*
X126380Y26748D01*
X125174Y27955D01*
X123793Y28958D01*
X122272Y29733D01*
X120649Y30261D01*
X120079Y30351D01*
D02*
G37*
G36*
X116142D02*
X115571Y30261D01*
X113948Y29733D01*
X112427Y28958D01*
X111047Y27955D01*
X109840Y26748D01*
X108837Y25368D01*
X108062Y23847D01*
X107535Y22224D01*
X107444Y21654D01*
X116142D01*
Y30351D01*
D02*
G37*
G36*
X21654D02*
Y21654D01*
X30351D01*
X30261Y22224D01*
X29733Y23847D01*
X28958Y25368D01*
X27955Y26748D01*
X26748Y27955D01*
X25368Y28958D01*
X23847Y29733D01*
X22224Y30261D01*
X21654Y30351D01*
D02*
G37*
G36*
X17717D02*
X17146Y30261D01*
X15523Y29733D01*
X14002Y28958D01*
X12622Y27955D01*
X11415Y26748D01*
X10412Y25368D01*
X9637Y23847D01*
X9110Y22224D01*
X9019Y21654D01*
X17717D01*
Y30351D01*
D02*
G37*
G36*
X325626Y17717D02*
X316929D01*
Y9019D01*
X317500Y9110D01*
X319123Y9637D01*
X320643Y10412D01*
X322024Y11415D01*
X323231Y12622D01*
X324234Y14002D01*
X325009Y15523D01*
X325536Y17146D01*
X325626Y17717D01*
D02*
G37*
G36*
X312992D02*
X304295D01*
X304385Y17146D01*
X304912Y15523D01*
X305687Y14002D01*
X306690Y12622D01*
X307897Y11415D01*
X309278Y10412D01*
X310799Y9637D01*
X312422Y9110D01*
X312992Y9019D01*
Y17717D01*
D02*
G37*
G36*
X227201D02*
X218504D01*
Y9019D01*
X219074Y9110D01*
X220697Y9637D01*
X222218Y10412D01*
X223599Y11415D01*
X224806Y12622D01*
X225809Y14002D01*
X226584Y15523D01*
X227111Y17146D01*
X227201Y17717D01*
D02*
G37*
G36*
X214567D02*
X205870D01*
X205960Y17146D01*
X206487Y15523D01*
X207262Y14002D01*
X208265Y12622D01*
X209472Y11415D01*
X210853Y10412D01*
X212373Y9637D01*
X213997Y9110D01*
X214567Y9019D01*
Y17717D01*
D02*
G37*
G36*
X128776D02*
X120079D01*
Y9019D01*
X120649Y9110D01*
X122272Y9637D01*
X123793Y10412D01*
X125174Y11415D01*
X126380Y12622D01*
X127384Y14002D01*
X128158Y15523D01*
X128686Y17146D01*
X128776Y17717D01*
D02*
G37*
G36*
X116142D02*
X107444D01*
X107535Y17146D01*
X108062Y15523D01*
X108837Y14002D01*
X109840Y12622D01*
X111047Y11415D01*
X112427Y10412D01*
X113948Y9637D01*
X115571Y9110D01*
X116142Y9019D01*
Y17717D01*
D02*
G37*
G36*
X30351D02*
X21654D01*
Y9019D01*
X22224Y9110D01*
X23847Y9637D01*
X25368Y10412D01*
X26748Y11415D01*
X27955Y12622D01*
X28958Y14002D01*
X29733Y15523D01*
X30261Y17146D01*
X30351Y17717D01*
D02*
G37*
G36*
X17717D02*
X9019D01*
X9110Y17146D01*
X9637Y15523D01*
X10412Y14002D01*
X11415Y12622D01*
X12622Y11415D01*
X14002Y10412D01*
X15523Y9637D01*
X17146Y9110D01*
X17717Y9019D01*
Y17717D01*
D02*
G37*
%LPD*%
D10*
X22461Y56299D02*
D03*
Y42126D02*
D03*
Y49213D02*
D03*
X312185Y49213D02*
D03*
Y56299D02*
D03*
Y42126D02*
D03*
D11*
X14547Y38976D02*
D03*
X5492D02*
D03*
Y59449D02*
D03*
X14547D02*
D03*
X320098Y38976D02*
D03*
X329154D02*
D03*
Y59449D02*
D03*
X320098D02*
D03*
D16*
X312160Y56824D02*
X312210Y56775D01*
X301493Y40213D02*
X303881Y42601D01*
X312210D01*
X301444Y59125D02*
X303745Y56824D01*
X312160D01*
X301444Y59125D02*
Y59212D01*
X33226Y58650D02*
Y58736D01*
X22510Y56348D02*
X30925D01*
X33226Y58650D01*
X22461Y42126D02*
X30789D01*
X33177Y39738D01*
X22461Y56299D02*
X22510Y56348D01*
D17*
X22461Y49213D02*
X37713D01*
X61532Y73032D02*
X120079D01*
X37713Y49213D02*
X61532Y73032D01*
X274468D02*
X298287Y49213D01*
X214559Y73032D02*
X274468D01*
X298287Y49213D02*
X312185D01*
D18*
X314961Y78740D02*
D03*
X19685D02*
D03*
X314961Y19685D02*
D03*
X216535D02*
D03*
X118110D02*
D03*
X19685D02*
D03*
D19*
X33226Y58736D02*
D03*
X33177Y39738D02*
D03*
X301493Y40213D02*
D03*
X301444Y59212D02*
D03*
X68094Y56205D02*
D03*
X99590D02*
D03*
X83842D02*
D03*
X304315Y87701D02*
D03*
X296441Y71953D02*
D03*
Y8961D02*
D03*
X288567Y87701D02*
D03*
X280693Y40457D02*
D03*
X288567Y24709D02*
D03*
X280693Y8961D02*
D03*
X272819Y87701D02*
D03*
Y56205D02*
D03*
X264945Y40457D02*
D03*
X272819Y24709D02*
D03*
X264945Y8961D02*
D03*
X257071Y87701D02*
D03*
Y56205D02*
D03*
X249197Y40457D02*
D03*
X257071Y24709D02*
D03*
X249197Y8961D02*
D03*
X241323Y87701D02*
D03*
Y56205D02*
D03*
X233449Y40457D02*
D03*
X241323Y24709D02*
D03*
X233449Y8961D02*
D03*
X225575Y87701D02*
D03*
Y56205D02*
D03*
X217701Y40457D02*
D03*
X209827Y87701D02*
D03*
Y56205D02*
D03*
X201953Y40457D02*
D03*
Y8961D02*
D03*
X194079Y87701D02*
D03*
Y56205D02*
D03*
X186205Y40457D02*
D03*
X194079Y24709D02*
D03*
X186205Y8961D02*
D03*
X178331Y87701D02*
D03*
X170457Y71953D02*
D03*
X178331Y56205D02*
D03*
X170457Y40457D02*
D03*
X178331Y24709D02*
D03*
X170457Y8961D02*
D03*
X162583Y87701D02*
D03*
X154709Y71953D02*
D03*
X162583Y56205D02*
D03*
X154709Y40457D02*
D03*
X162583Y24709D02*
D03*
X154709Y8961D02*
D03*
X146835Y87701D02*
D03*
Y56205D02*
D03*
X138961Y40457D02*
D03*
X146835Y24709D02*
D03*
X138961Y8961D02*
D03*
X131087Y87701D02*
D03*
Y56205D02*
D03*
X123213Y40457D02*
D03*
X131087Y24709D02*
D03*
X115339Y87701D02*
D03*
Y56205D02*
D03*
X107465Y40457D02*
D03*
Y8961D02*
D03*
X99590Y87701D02*
D03*
X91716Y40457D02*
D03*
X99590Y24709D02*
D03*
X91716Y8961D02*
D03*
X83842Y87701D02*
D03*
X75968Y40457D02*
D03*
X83842Y24709D02*
D03*
X75968Y8961D02*
D03*
X68094Y87701D02*
D03*
X60220Y40457D02*
D03*
X68094Y24709D02*
D03*
X60220Y8961D02*
D03*
X52346Y87701D02*
D03*
X44472Y71953D02*
D03*
Y40457D02*
D03*
X52346Y24709D02*
D03*
X44472Y8961D02*
D03*
X36598Y87701D02*
D03*
Y24709D02*
D03*
X28724Y8961D02*
D03*
X12976D02*
D03*
M02*
