G04*
G04 #@! TF.GenerationSoftware,Altium Limited,Altium Designer,21.4.1 (30)*
G04*
G04 Layer_Physical_Order=2*
G04 Layer_Color=16711680*
%FSLAX25Y25*%
%MOIN*%
G70*
G04*
G04 #@! TF.SameCoordinates,35213D09-E783-4A94-B544-0D3754CD514C*
G04*
G04*
G04 #@! TF.FilePolarity,Positive*
G04*
G01*
G75*
%ADD18C,0.19685*%
%ADD19C,0.02795*%
G36*
X317400Y97267D02*
X319797Y96790D01*
X322112Y96005D01*
X324304Y94924D01*
X326337Y93565D01*
X328174Y91954D01*
X329786Y90116D01*
X331144Y88084D01*
X332225Y85891D01*
X333011Y83577D01*
X333488Y81179D01*
X333645Y78776D01*
X333638Y78740D01*
Y57067D01*
X319272D01*
X318888Y56990D01*
X318562Y56773D01*
X318344Y56447D01*
X318268Y56063D01*
Y42362D01*
X318344Y41978D01*
X318562Y41653D01*
X318888Y41435D01*
X319272Y41359D01*
X333307D01*
X333661Y41005D01*
X333643Y20185D01*
X333642Y19705D01*
X333638Y19685D01*
X333615Y19195D01*
X333488Y17246D01*
X333011Y14849D01*
X332225Y12534D01*
X331144Y10342D01*
X329786Y8309D01*
X328174Y6471D01*
X326337Y4860D01*
X324304Y3502D01*
X322112Y2421D01*
X319797Y1635D01*
X317400Y1158D01*
X314996Y1001D01*
X314961Y1008D01*
X20184Y1008D01*
X19685Y1008D01*
X19195Y1030D01*
X17246Y1158D01*
X14849Y1635D01*
X12534Y2421D01*
X10342Y3502D01*
X8309Y4860D01*
X6471Y6471D01*
X4860Y8309D01*
X3502Y10342D01*
X2421Y12534D01*
X1635Y14849D01*
X1158Y17246D01*
X1030Y19195D01*
X1008Y19685D01*
X1003Y19705D01*
X1003Y20185D01*
X985Y41005D01*
X1338Y41359D01*
X15374D01*
X15758Y41435D01*
X16084Y41653D01*
X16301Y41978D01*
X16377Y42362D01*
Y56063D01*
X16301Y56447D01*
X16084Y56773D01*
X15758Y56990D01*
X15374Y57067D01*
X1008D01*
Y78740D01*
X1001Y78776D01*
X1158Y81179D01*
X1635Y83577D01*
X2421Y85891D01*
X3502Y88084D01*
X4860Y90116D01*
X6471Y91954D01*
X8309Y93565D01*
X10342Y94924D01*
X12534Y96005D01*
X14849Y96790D01*
X17246Y97267D01*
X19649Y97425D01*
X19685Y97418D01*
X314961D01*
X314996Y97425D01*
X317400Y97267D01*
D02*
G37*
%LPC*%
G36*
X316929Y89406D02*
Y80709D01*
X325626D01*
X325536Y81279D01*
X325009Y82902D01*
X324234Y84423D01*
X323231Y85804D01*
X322024Y87010D01*
X320643Y88013D01*
X319123Y88788D01*
X317500Y89316D01*
X316929Y89406D01*
D02*
G37*
G36*
X312992D02*
X312422Y89316D01*
X310799Y88788D01*
X309278Y88013D01*
X307897Y87010D01*
X306690Y85804D01*
X305687Y84423D01*
X304912Y82902D01*
X304385Y81279D01*
X304295Y80709D01*
X312992D01*
Y89406D01*
D02*
G37*
G36*
X21654D02*
Y80709D01*
X30351D01*
X30261Y81279D01*
X29733Y82902D01*
X28958Y84423D01*
X27955Y85804D01*
X26748Y87010D01*
X25368Y88013D01*
X23847Y88788D01*
X22224Y89316D01*
X21654Y89406D01*
D02*
G37*
G36*
X17717D02*
X17146Y89316D01*
X15523Y88788D01*
X14002Y88013D01*
X12622Y87010D01*
X11415Y85804D01*
X10412Y84423D01*
X9637Y82902D01*
X9110Y81279D01*
X9019Y80709D01*
X17717D01*
Y89406D01*
D02*
G37*
G36*
X325626Y76772D02*
X316929D01*
Y68074D01*
X317500Y68165D01*
X319123Y68692D01*
X320643Y69467D01*
X322024Y70470D01*
X323231Y71677D01*
X324234Y73057D01*
X325009Y74578D01*
X325536Y76201D01*
X325626Y76772D01*
D02*
G37*
G36*
X312992D02*
X304295D01*
X304385Y76201D01*
X304912Y74578D01*
X305687Y73057D01*
X306690Y71677D01*
X307897Y70470D01*
X309278Y69467D01*
X310799Y68692D01*
X312422Y68165D01*
X312992Y68074D01*
Y76772D01*
D02*
G37*
G36*
X30351D02*
X21654D01*
Y68074D01*
X22224Y68165D01*
X23847Y68692D01*
X25368Y69467D01*
X26748Y70470D01*
X27955Y71677D01*
X28958Y73057D01*
X29733Y74578D01*
X30261Y76201D01*
X30351Y76772D01*
D02*
G37*
G36*
X17717D02*
X9019D01*
X9110Y76201D01*
X9637Y74578D01*
X10412Y73057D01*
X11415Y71677D01*
X12622Y70470D01*
X14002Y69467D01*
X15523Y68692D01*
X17146Y68165D01*
X17717Y68074D01*
Y76772D01*
D02*
G37*
G36*
X316929Y30351D02*
Y21654D01*
X325626D01*
X325536Y22224D01*
X325009Y23847D01*
X324234Y25368D01*
X323231Y26748D01*
X322024Y27955D01*
X320643Y28958D01*
X319123Y29733D01*
X317500Y30261D01*
X316929Y30351D01*
D02*
G37*
G36*
X312992D02*
X312422Y30261D01*
X310799Y29733D01*
X309278Y28958D01*
X307897Y27955D01*
X306690Y26748D01*
X305687Y25368D01*
X304912Y23847D01*
X304385Y22224D01*
X304295Y21654D01*
X312992D01*
Y30351D01*
D02*
G37*
G36*
X218504D02*
Y21654D01*
X227201D01*
X227111Y22224D01*
X226584Y23847D01*
X225809Y25368D01*
X224806Y26748D01*
X223599Y27955D01*
X222218Y28958D01*
X220697Y29733D01*
X219074Y30261D01*
X218504Y30351D01*
D02*
G37*
G36*
X214567D02*
X213997Y30261D01*
X212373Y29733D01*
X210853Y28958D01*
X209472Y27955D01*
X208265Y26748D01*
X207262Y25368D01*
X206487Y23847D01*
X205960Y22224D01*
X205870Y21654D01*
X214567D01*
Y30351D01*
D02*
G37*
G36*
X120079D02*
Y21654D01*
X128776D01*
X128686Y22224D01*
X128158Y23847D01*
X127384Y25368D01*
X126380Y26748D01*
X125174Y27955D01*
X123793Y28958D01*
X122272Y29733D01*
X120649Y30261D01*
X120079Y30351D01*
D02*
G37*
G36*
X116142D02*
X115571Y30261D01*
X113948Y29733D01*
X112427Y28958D01*
X111047Y27955D01*
X109840Y26748D01*
X108837Y25368D01*
X108062Y23847D01*
X107535Y22224D01*
X107444Y21654D01*
X116142D01*
Y30351D01*
D02*
G37*
G36*
X21654D02*
Y21654D01*
X30351D01*
X30261Y22224D01*
X29733Y23847D01*
X28958Y25368D01*
X27955Y26748D01*
X26748Y27955D01*
X25368Y28958D01*
X23847Y29733D01*
X22224Y30261D01*
X21654Y30351D01*
D02*
G37*
G36*
X17717D02*
X17146Y30261D01*
X15523Y29733D01*
X14002Y28958D01*
X12622Y27955D01*
X11415Y26748D01*
X10412Y25368D01*
X9637Y23847D01*
X9110Y22224D01*
X9019Y21654D01*
X17717D01*
Y30351D01*
D02*
G37*
G36*
X325626Y17717D02*
X316929D01*
Y9019D01*
X317500Y9110D01*
X319123Y9637D01*
X320643Y10412D01*
X322024Y11415D01*
X323231Y12622D01*
X324234Y14002D01*
X325009Y15523D01*
X325536Y17146D01*
X325626Y17717D01*
D02*
G37*
G36*
X312992D02*
X304295D01*
X304385Y17146D01*
X304912Y15523D01*
X305687Y14002D01*
X306690Y12622D01*
X307897Y11415D01*
X309278Y10412D01*
X310799Y9637D01*
X312422Y9110D01*
X312992Y9019D01*
Y17717D01*
D02*
G37*
G36*
X227201D02*
X218504D01*
Y9019D01*
X219074Y9110D01*
X220697Y9637D01*
X222218Y10412D01*
X223599Y11415D01*
X224806Y12622D01*
X225809Y14002D01*
X226584Y15523D01*
X227111Y17146D01*
X227201Y17717D01*
D02*
G37*
G36*
X214567D02*
X205870D01*
X205960Y17146D01*
X206487Y15523D01*
X207262Y14002D01*
X208265Y12622D01*
X209472Y11415D01*
X210853Y10412D01*
X212373Y9637D01*
X213997Y9110D01*
X214567Y9019D01*
Y17717D01*
D02*
G37*
G36*
X128776D02*
X120079D01*
Y9019D01*
X120649Y9110D01*
X122272Y9637D01*
X123793Y10412D01*
X125174Y11415D01*
X126380Y12622D01*
X127384Y14002D01*
X128158Y15523D01*
X128686Y17146D01*
X128776Y17717D01*
D02*
G37*
G36*
X116142D02*
X107444D01*
X107535Y17146D01*
X108062Y15523D01*
X108837Y14002D01*
X109840Y12622D01*
X111047Y11415D01*
X112427Y10412D01*
X113948Y9637D01*
X115571Y9110D01*
X116142Y9019D01*
Y17717D01*
D02*
G37*
G36*
X30351D02*
X21654D01*
Y9019D01*
X22224Y9110D01*
X23847Y9637D01*
X25368Y10412D01*
X26748Y11415D01*
X27955Y12622D01*
X28958Y14002D01*
X29733Y15523D01*
X30261Y17146D01*
X30351Y17717D01*
D02*
G37*
G36*
X17717D02*
X9019D01*
X9110Y17146D01*
X9637Y15523D01*
X10412Y14002D01*
X11415Y12622D01*
X12622Y11415D01*
X14002Y10412D01*
X15523Y9637D01*
X17146Y9110D01*
X17717Y9019D01*
Y17717D01*
D02*
G37*
%LPD*%
D18*
X314961Y78740D02*
D03*
X19685D02*
D03*
X314961Y19685D02*
D03*
X216535D02*
D03*
X118110D02*
D03*
X19685D02*
D03*
D19*
X33226Y58736D02*
D03*
X33177Y39738D02*
D03*
X301493Y40213D02*
D03*
X301444Y59212D02*
D03*
X68094Y56205D02*
D03*
X99590D02*
D03*
X83842D02*
D03*
X304315Y87701D02*
D03*
X296441Y71953D02*
D03*
Y8961D02*
D03*
X288567Y87701D02*
D03*
X280693Y40457D02*
D03*
X288567Y24709D02*
D03*
X280693Y8961D02*
D03*
X272819Y87701D02*
D03*
Y56205D02*
D03*
X264945Y40457D02*
D03*
X272819Y24709D02*
D03*
X264945Y8961D02*
D03*
X257071Y87701D02*
D03*
Y56205D02*
D03*
X249197Y40457D02*
D03*
X257071Y24709D02*
D03*
X249197Y8961D02*
D03*
X241323Y87701D02*
D03*
Y56205D02*
D03*
X233449Y40457D02*
D03*
X241323Y24709D02*
D03*
X233449Y8961D02*
D03*
X225575Y87701D02*
D03*
Y56205D02*
D03*
X217701Y40457D02*
D03*
X209827Y87701D02*
D03*
Y56205D02*
D03*
X201953Y40457D02*
D03*
Y8961D02*
D03*
X194079Y87701D02*
D03*
Y56205D02*
D03*
X186205Y40457D02*
D03*
X194079Y24709D02*
D03*
X186205Y8961D02*
D03*
X178331Y87701D02*
D03*
X170457Y71953D02*
D03*
X178331Y56205D02*
D03*
X170457Y40457D02*
D03*
X178331Y24709D02*
D03*
X170457Y8961D02*
D03*
X162583Y87701D02*
D03*
X154709Y71953D02*
D03*
X162583Y56205D02*
D03*
X154709Y40457D02*
D03*
X162583Y24709D02*
D03*
X154709Y8961D02*
D03*
X146835Y87701D02*
D03*
Y56205D02*
D03*
X138961Y40457D02*
D03*
X146835Y24709D02*
D03*
X138961Y8961D02*
D03*
X131087Y87701D02*
D03*
Y56205D02*
D03*
X123213Y40457D02*
D03*
X131087Y24709D02*
D03*
X115339Y87701D02*
D03*
Y56205D02*
D03*
X107465Y40457D02*
D03*
Y8961D02*
D03*
X99590Y87701D02*
D03*
X91716Y40457D02*
D03*
X99590Y24709D02*
D03*
X91716Y8961D02*
D03*
X83842Y87701D02*
D03*
X75968Y40457D02*
D03*
X83842Y24709D02*
D03*
X75968Y8961D02*
D03*
X68094Y87701D02*
D03*
X60220Y40457D02*
D03*
X68094Y24709D02*
D03*
X60220Y8961D02*
D03*
X52346Y87701D02*
D03*
X44472Y71953D02*
D03*
Y40457D02*
D03*
X52346Y24709D02*
D03*
X44472Y8961D02*
D03*
X36598Y87701D02*
D03*
Y24709D02*
D03*
X28724Y8961D02*
D03*
X12976D02*
D03*
M02*
