G04*
G04 #@! TF.GenerationSoftware,Altium Limited,Altium Designer,21.4.1 (30)*
G04*
G04 Layer_Color=8388736*
%FSLAX25Y25*%
%MOIN*%
G70*
G04*
G04 #@! TF.SameCoordinates,35213D09-E783-4A94-B544-0D3754CD514C*
G04*
G04*
G04 #@! TF.FilePolarity,Negative*
G04*
G01*
G75*
%ADD12R,0.11824X0.05131*%
%ADD13R,0.01800X0.01800*%
%ADD14C,0.05131*%
%ADD15C,0.20485*%
G36*
X214611Y75594D02*
X214663Y75584D01*
X214713Y75567D01*
X214759Y75544D01*
X214803Y75515D01*
X214843Y75480D01*
X214877Y75441D01*
X214906Y75397D01*
X214929Y75350D01*
X214946Y75301D01*
X214956Y75249D01*
X214960Y75197D01*
Y70866D01*
X214956Y70814D01*
X214946Y70762D01*
X214929Y70713D01*
X214906Y70666D01*
X214877Y70622D01*
X214843Y70583D01*
X214803Y70548D01*
X214759Y70519D01*
X214713Y70496D01*
X214663Y70479D01*
X214611Y70469D01*
X214559Y70465D01*
X202748D01*
X202696Y70469D01*
X202644Y70479D01*
X202595Y70496D01*
X202548Y70519D01*
X202504Y70548D01*
X202465Y70583D01*
X202430Y70622D01*
X202401Y70666D01*
X202378Y70713D01*
X202361Y70762D01*
X202351Y70814D01*
X202347Y70866D01*
Y75197D01*
X202351Y75249D01*
X202361Y75301D01*
X202378Y75350D01*
X202401Y75397D01*
X202430Y75441D01*
X202465Y75480D01*
X202504Y75515D01*
X202548Y75544D01*
X202595Y75567D01*
X202644Y75584D01*
X202696Y75594D01*
X202748Y75598D01*
X214559D01*
X214611Y75594D01*
D02*
G37*
G36*
X198863D02*
X198915Y75584D01*
X198964Y75567D01*
X199012Y75544D01*
X199055Y75515D01*
X199094Y75480D01*
X199129Y75441D01*
X199158Y75397D01*
X199181Y75350D01*
X199198Y75301D01*
X199208Y75249D01*
X199212Y75197D01*
Y70866D01*
X199208Y70814D01*
X199198Y70762D01*
X199181Y70713D01*
X199158Y70666D01*
X199129Y70622D01*
X199094Y70583D01*
X199055Y70548D01*
X199012Y70519D01*
X198964Y70496D01*
X198915Y70479D01*
X198863Y70469D01*
X198811Y70465D01*
X187000D01*
X186948Y70469D01*
X186896Y70479D01*
X186847Y70496D01*
X186800Y70519D01*
X186756Y70548D01*
X186717Y70583D01*
X186682Y70622D01*
X186653Y70666D01*
X186630Y70713D01*
X186613Y70762D01*
X186603Y70814D01*
X186599Y70866D01*
Y75197D01*
X186603Y75249D01*
X186613Y75301D01*
X186630Y75350D01*
X186653Y75397D01*
X186682Y75441D01*
X186717Y75480D01*
X186756Y75515D01*
X186800Y75544D01*
X186847Y75567D01*
X186896Y75584D01*
X186948Y75594D01*
X187000Y75598D01*
X198811D01*
X198863Y75594D01*
D02*
G37*
G36*
X147690D02*
X147742Y75584D01*
X147791Y75567D01*
X147838Y75544D01*
X147882Y75515D01*
X147921Y75480D01*
X147956Y75441D01*
X147985Y75397D01*
X148008Y75350D01*
X148025Y75301D01*
X148035Y75249D01*
X148039Y75197D01*
Y70866D01*
X148035Y70814D01*
X148025Y70762D01*
X148008Y70713D01*
X147985Y70666D01*
X147956Y70622D01*
X147921Y70583D01*
X147882Y70548D01*
X147838Y70519D01*
X147791Y70496D01*
X147742Y70479D01*
X147690Y70469D01*
X147638Y70465D01*
X135827D01*
X135775Y70469D01*
X135723Y70479D01*
X135673Y70496D01*
X135626Y70519D01*
X135583Y70548D01*
X135543Y70583D01*
X135509Y70622D01*
X135480Y70666D01*
X135456Y70713D01*
X135440Y70762D01*
X135429Y70814D01*
X135426Y70866D01*
Y75197D01*
X135429Y75249D01*
X135440Y75301D01*
X135456Y75350D01*
X135480Y75397D01*
X135509Y75441D01*
X135543Y75480D01*
X135583Y75515D01*
X135626Y75544D01*
X135673Y75567D01*
X135723Y75584D01*
X135775Y75594D01*
X135827Y75598D01*
X147638D01*
X147690Y75594D01*
D02*
G37*
G36*
X131942D02*
X131993Y75584D01*
X132043Y75567D01*
X132090Y75544D01*
X132134Y75515D01*
X132173Y75480D01*
X132208Y75441D01*
X132237Y75397D01*
X132260Y75350D01*
X132277Y75301D01*
X132287Y75249D01*
X132291Y75197D01*
Y70866D01*
X132287Y70814D01*
X132277Y70762D01*
X132260Y70713D01*
X132237Y70666D01*
X132208Y70622D01*
X132173Y70583D01*
X132134Y70548D01*
X132090Y70519D01*
X132043Y70496D01*
X131993Y70479D01*
X131942Y70469D01*
X131890Y70465D01*
X120079D01*
X120026Y70469D01*
X119975Y70479D01*
X119925Y70496D01*
X119878Y70519D01*
X119835Y70548D01*
X119795Y70583D01*
X119761Y70622D01*
X119732Y70666D01*
X119708Y70713D01*
X119692Y70762D01*
X119681Y70814D01*
X119678Y70866D01*
Y75197D01*
X119681Y75249D01*
X119692Y75301D01*
X119708Y75350D01*
X119732Y75397D01*
X119761Y75441D01*
X119795Y75480D01*
X119835Y75515D01*
X119878Y75544D01*
X119925Y75567D01*
X119975Y75584D01*
X120026Y75594D01*
X120079Y75598D01*
X131890D01*
X131942Y75594D01*
D02*
G37*
G36*
X333839Y56299D02*
X319665D01*
Y53347D01*
X306279D01*
Y59842D01*
X333839D01*
Y56299D01*
D02*
G37*
G36*
X28366Y53347D02*
X14980D01*
Y56299D01*
X807D01*
Y59842D01*
X28366D01*
Y53347D01*
D02*
G37*
G36*
X319665Y42126D02*
X333839D01*
Y38583D01*
X306279D01*
Y45079D01*
X319665D01*
Y42126D01*
D02*
G37*
G36*
X28366Y38583D02*
X807D01*
Y42126D01*
X14980D01*
Y45079D01*
X28366D01*
Y38583D01*
D02*
G37*
D12*
X22461Y49213D02*
D03*
X312185Y49213D02*
D03*
D13*
X14547Y38976D02*
D03*
X5492D02*
D03*
Y59449D02*
D03*
X14547D02*
D03*
X320098Y38976D02*
D03*
X329154D02*
D03*
Y59449D02*
D03*
X320098D02*
D03*
D14*
X61532Y73032D02*
X120079D01*
X37713Y49213D02*
X61532Y73032D01*
X274468D02*
X298287Y49213D01*
X214559Y73032D02*
X274468D01*
D15*
X314961Y78740D02*
D03*
X19685D02*
D03*
X314961Y19685D02*
D03*
X216535D02*
D03*
X118110D02*
D03*
X19685D02*
D03*
M02*
